<?xml version="1.0" encoding="utf-8"?>
<svg version="1.1" xmlns="http://www.w3.org/2000/svg" xmlns:xlink="http://www.w3.org/1999/xlink" x="0px" y="0px"
	 width="1045.4px" height="832.5px" viewBox="0 0 1045.4 832.5" enable-background="new 0 0 1045.4 832.5" xml:space="preserve">
<g id="Layer_12">
	<g>
		
			<line fill="#58ABDC" stroke="#58ABDC" stroke-width="3" stroke-linecap="round" stroke-linejoin="round" stroke-miterlimit="10" x1="451.7" y1="65.2" x2="255.7" y2="65.2"/>
		<path fill="#58ABDC" stroke="#FAFBFC" stroke-width="2" stroke-miterlimit="10" d="M210.9,95.7H69.2c-18.2,0-33-14.8-33-33v0
			c0-18.2,14.8-33,33-33h141.8c18.2,0,33,14.8,33,33v0C243.9,80.9,229.2,95.7,210.9,95.7z"/>
		<g>
			<g>
				<path fill="#FAFBFC" d="M92.4,69.8c-2.1,0-3.8-1.7-3.8-3.8v-9.4c0-2.1,1.7-3.8,3.8-3.8h5.1c2.1,0,3.8,1.7,3.8,3.8v9.4
					c0,2.1-1.7,3.8-3.8,3.8H92.4z M90.7,56.3v9.8c0,0.9,0.8,1.7,1.7,1.7h5.1c0.9,0,1.7-0.8,1.7-1.7v-9.8c0-0.9-0.8-1.7-1.7-1.7h-5.1
					C91.5,54.6,90.7,55.4,90.7,56.3z"/>
				<path fill="#FAFBFC" d="M104.3,63.6c-0.4-0.1-0.6-0.4-0.6-0.7v-1.5c0-1.8,1.3-3,3.1-3h6.2V60c0,0.1-0.1,0.2-0.2,0.2h-5.9
					c-0.7,0-1.1,0.4-1.1,1.1V62c0,0.1,0.1,0.2,0.2,0.2l6.9,1.6c0.4,0.1,0.6,0.4,0.6,0.7v2c0,2-1.4,3-3.2,3h-6.4v-1.6
					c0-0.1,0.1-0.2,0.2-0.2h6.1c0.7,0,1.4-0.4,1.4-1.2v-1.1c0-0.1-0.1-0.2-0.2-0.2L104.3,63.6z M109.4,56.2l1.1-2.6h-1.5
					c-0.2,0-0.3,0.1-0.4,0.2l-1.1,2.6h1.5C109.2,56.4,109.4,56.3,109.4,56.2z"/>
				<path fill="#FAFBFC" d="M129.6,58.4v9.8c0,0.8-0.7,1.5-1.5,1.5h-8.8c-1.8,0-3.3-1.5-3.3-3.3v-8h1.7c0.1,0,0.2,0.1,0.2,0.2v7.8
					c0,0.7,0.6,1.3,1.3,1.3h2.9c-0.2-0.1-0.4-0.4-0.4-0.6v-8.7h1.7c0.1,0,0.2,0.1,0.2,0.2v8.9c0,0.1,0.1,0.2,0.2,0.2h3.4
					c0.1,0,0.2-0.1,0.2-0.2v0v-8.9c0-0.1,0.1-0.2,0.2-0.2H129.6z"/>
				<path fill="#FAFBFC" d="M134.3,53.6v1.8h-1.7c-0.1,0-0.2-0.1-0.2-0.2v-1.8h1.7C134.2,53.4,134.3,53.5,134.3,53.6z M134.3,58.6
					v11h-1.7c-0.1,0-0.2-0.1-0.2-0.2v-11h1.7C134.2,58.4,134.3,58.5,134.3,58.6z"/>
				<path fill="#FAFBFC" d="M137.1,66.4v-4.8c0-2.1,1.5-3.2,3.3-3.2h3c1.8,0,3.3,1.1,3.3,3.2v2.6c0,0.4,0,0.7-0.6,0.7H140
					c-0.4,0-0.7-0.2-0.9-0.4v2c0,0.7,0.6,1.3,1.3,1.3h5.6c0.1,0,0.2,0.1,0.2,0.2v1.6h-5.8C138.6,69.7,137.1,68.2,137.1,66.4z
					 M140.4,60.3c-0.7,0-1.3,0.4-1.3,1.3v1.2c0,0.1,0.1,0.2,0.2,0.2h5.2c0.1,0,0.2-0.1,0.2-0.2v-1.2c0-0.9-0.4-1.3-1.3-1.3H140.4z"
					/>
				<path fill="#FAFBFC" d="M155,68v1.6h-2.3c-1.8,0-3.3-1.5-3.3-3.3V53h1.7c0.1,0,0.2,0.1,0.2,0.2v5.6c0.1-0.2,0.4-0.4,0.7-0.4h2.4
					v1.6c0,0.1-0.1,0.2-0.2,0.2h-2.8v6.2c0,0.7,0.6,1.3,1.3,1.3h2C154.9,67.8,155,67.9,155,68z"/>
				<path fill="#FAFBFC" d="M159,53.1v16.6h-1.7c-0.1,0-0.2-0.1-0.2-0.2V52.8h1.7C158.9,52.8,159,52.9,159,53.1z"/>
				<path fill="#FAFBFC" d="M161.8,66.4v-4.8c0-2.1,1.5-3.2,3.3-3.2h3c1.8,0,3.3,1.1,3.3,3.2v2.6c0,0.4,0,0.7-0.6,0.7h-6.2
					c-0.4,0-0.7-0.2-0.9-0.4v2c0,0.7,0.6,1.3,1.3,1.3h5.6c0.1,0,0.2,0.1,0.2,0.2v1.6h-5.8C163.3,69.7,161.8,68.2,161.8,66.4z
					 M165.1,60.3c-0.7,0-1.3,0.4-1.3,1.3v1.2c0,0.1,0.1,0.2,0.2,0.2h5.2c0.1,0,0.2-0.1,0.2-0.2v-1.2c0-0.9-0.4-1.3-1.3-1.3H165.1z"
					/>
				<path fill="#FAFBFC" d="M183.7,61.7v8H182c-0.1,0-0.2-0.1-0.2-0.2v-7.8c0-0.7-0.6-1.3-1.3-1.3h-4.1c-0.1,0-0.2,0.1-0.2,0.2v8.9
					c0,0.1-0.1,0.2-0.2,0.2h-1.7v-9.8c0-0.8,0.7-1.5,1.5-1.5h4.8C182.2,58.4,183.7,59.9,183.7,61.7z"/>
				<path fill="#FAFBFC" d="M188.5,53.6v1.8h-1.7c-0.1,0-0.2-0.1-0.2-0.2v-1.8h1.7C188.4,53.4,188.5,53.5,188.5,53.6z M188.5,58.6
					v11h-1.7c-0.1,0-0.2-0.1-0.2-0.2v-11h1.7C188.4,58.4,188.5,58.5,188.5,58.6z"/>
				<path fill="#FAFBFC" d="M191.3,66.4v-4.8c0-2.1,1.5-3.2,3.3-3.2h3c1.8,0,3.3,1.1,3.3,3.2v2.6c0,0.4,0,0.7-0.6,0.7h-6.2
					c-0.4,0-0.7-0.2-0.9-0.4v2c0,0.7,0.6,1.3,1.3,1.3h5.6c0.1,0,0.2,0.1,0.2,0.2v1.6h-5.8C192.8,69.7,191.3,68.2,191.3,66.4z
					 M194.6,60.3c-0.7,0-1.3,0.4-1.3,1.3v1.2c0,0.1,0.1,0.2,0.2,0.2h5.2c0.1,0,0.2-0.1,0.2-0.2v-1.2c0-0.9-0.4-1.3-1.3-1.3H194.6z"
					/>
			</g>
		</g>
		
			<line fill="#58ABDC" stroke="#58ABDC" stroke-width="3" stroke-linecap="round" stroke-linejoin="round" stroke-miterlimit="10" x1="468.1" y1="160.3" x2="306.5" y2="160.3"/>
		
			<line fill="#58ABDC" stroke="#58ABDC" stroke-width="3" stroke-linecap="round" stroke-linejoin="round" stroke-miterlimit="10" x1="750.5" y1="74.3" x2="611.4" y2="74.3"/>
		
			<line fill="#58ABDC" stroke="#58ABDC" stroke-width="3" stroke-linecap="round" stroke-linejoin="round" stroke-miterlimit="10" x1="733.7" y1="195.7" x2="670.3" y2="208.3"/>
		<path fill="#58ABDC" stroke="#FAFBFC" stroke-width="2" stroke-miterlimit="10" d="M266.4,191.4H102.7
			c-17.6,0-31.9-14.3-31.9-31.9v0c0-17.6,14.3-31.9,31.9-31.9h163.7c17.6,0,31.9,14.3,31.9,31.9v0
			C298.3,177.2,284,191.4,266.4,191.4z"/>
		<g>
			<g>
				<path fill="#FAFBFC" d="M111.6,150v16.9h-1.8c-0.2,0-0.3-0.1-0.3-0.3v-7.2h-8.1v7.2c0,0.2-0.1,0.3-0.3,0.3h-1.8V150h1.8
					c0.2,0,0.3,0.1,0.3,0.3v7.2h8.1v-7.2c0-0.2,0.1-0.3,0.3-0.3H111.6z"/>
				<path fill="#FAFBFC" d="M114.3,163.6v-4.8c0-2.1,1.5-3.2,3.3-3.2h3c1.8,0,3.3,1.1,3.3,3.2v2.6c0,0.4,0,0.7-0.6,0.7h-6.2
					c-0.4,0-0.7-0.2-0.9-0.4v2c0,0.7,0.6,1.3,1.3,1.3h5.6c0.1,0,0.2,0.1,0.2,0.2v1.6h-5.8C115.8,166.9,114.3,165.4,114.3,163.6z
					 M117.6,157.5c-0.7,0-1.3,0.4-1.3,1.3v1.2c0,0.1,0.1,0.2,0.2,0.2h5.2c0.1,0,0.2-0.1,0.2-0.2v-1.2c0-0.9-0.4-1.3-1.3-1.3H117.6z"
					/>
				<path fill="#FAFBFC" d="M130.6,155.4v1.7c0,0.2-0.1,0.4-0.2,0.5l-1.6,1.1v8.2h-1.7c-0.1,0-0.2-0.1-0.2-0.2V160l-1.6,1.1v-1.7
					c0-0.2,0.1-0.4,0.2-0.4l1.4-1v-8h1.7c0.1,0,0.2,0.1,0.2,0.2v6.4L130.6,155.4z"/>
				<path fill="#FAFBFC" d="M145.4,158.9v8h-1.7c-0.1,0-0.2-0.1-0.2-0.2v-7.8c0-0.7-0.6-1.3-1.3-1.3h-2.9c0.2,0.1,0.4,0.4,0.4,0.6
					v8.8h-1.7c-0.1,0-0.2-0.1-0.2-0.2v-8.9c0-0.1-0.1-0.2-0.2-0.2H134c-0.1,0-0.2,0.1-0.2,0.2v8.9c0,0.1-0.1,0.2-0.2,0.2h-1.7v-9.8
					c0-0.8,0.7-1.5,1.5-1.5h8.8C143.9,155.6,145.4,157.1,145.4,158.9z"/>
				<path fill="#FAFBFC" d="M158.4,158.8v4.8c0,0.7,0.6,1.3,1.3,1.3h4c0.1,0,0.2,0.1,0.2,0.2v1.6h-4.2c-1.8,0-3.3-1.5-3.3-3.3v-4.7
					c0-1.8,1.5-3.3,3.3-3.3h4.2v1.6c0,0.1-0.1,0.2-0.2,0.2h-4C159,157.5,158.4,158.1,158.4,158.8z"/>
				<path fill="#FAFBFC" d="M168.5,150.8v1.8h-1.7c-0.1,0-0.2-0.1-0.2-0.2v-1.8h1.7C168.4,150.6,168.5,150.7,168.5,150.8z
					 M168.5,155.9v11h-1.7c-0.1,0-0.2-0.1-0.2-0.2v-11h1.7C168.4,155.6,168.5,155.7,168.5,155.9z"/>
				<path fill="#FAFBFC" d="M171.6,160.8c-0.4-0.1-0.6-0.4-0.6-0.7v-1.5c0-1.8,1.3-3,3.1-3h6.2v1.6c0,0.1-0.1,0.2-0.2,0.2h-5.9
					c-0.7,0-1.1,0.4-1.1,1.1v0.7c0,0.1,0.1,0.2,0.2,0.2l6.9,1.6c0.4,0.1,0.6,0.4,0.6,0.7v2c0,2-1.4,3-3.2,3h-6.4v-1.6
					c0-0.1,0.1-0.2,0.2-0.2h6.1c0.7,0,1.4-0.4,1.4-1.2v-1.1c0-0.1-0.1-0.2-0.2-0.2L171.6,160.8z M176.7,153.4l1.1-2.6h-1.5
					c-0.2,0-0.3,0.1-0.4,0.2l-1.1,2.6h1.5C176.5,153.6,176.7,153.5,176.7,153.4z"/>
				<path fill="#FAFBFC" d="M192.9,158.9v8h-1.7c-0.1,0-0.2-0.1-0.2-0.2v-7.8c0-0.7-0.6-1.3-1.3-1.3h-4.1c-0.1,0-0.2,0.1-0.2,0.2
					v8.9c0,0.1-0.1,0.2-0.2,0.2h-1.7v-9.8c0-0.8,0.7-1.5,1.5-1.5h4.8C191.4,155.6,192.9,157.1,192.9,158.9z"/>
				<path fill="#FAFBFC" d="M197.7,150.8v1.8H196c-0.1,0-0.2-0.1-0.2-0.2v-1.8h1.7C197.6,150.6,197.7,150.7,197.7,150.8z
					 M197.7,155.9v11H196c-0.1,0-0.2-0.1-0.2-0.2v-11h1.7C197.6,155.6,197.7,155.7,197.7,155.9z"/>
				<path fill="#FAFBFC" d="M200.5,163.6v-4.8c0-2.1,1.5-3.2,3.3-3.2h3c1.8,0,3.3,1.1,3.3,3.2v2.6c0,0.4,0,0.7-0.6,0.7h-6.2
					c-0.4,0-0.7-0.2-0.9-0.4v2c0,0.7,0.6,1.3,1.3,1.3h5.6c0.1,0,0.2,0.1,0.2,0.2v1.6h-5.8C202,166.9,200.5,165.4,200.5,163.6z
					 M203.8,157.5c-0.7,0-1.3,0.4-1.3,1.3v1.2c0,0.1,0.1,0.2,0.2,0.2h5.2c0.1,0,0.2-0.1,0.2-0.2v-1.2c0-0.9-0.4-1.3-1.3-1.3H203.8z"
					/>
				<path fill="#FAFBFC" d="M222.4,158.9v8h-1.7c-0.1,0-0.2-0.1-0.2-0.2v-7.8c0-0.7-0.6-1.3-1.3-1.3H215c-0.1,0-0.2,0.1-0.2,0.2v8.9
					c0,0.1-0.1,0.2-0.2,0.2h-1.7v-9.8c0-0.8,0.7-1.5,1.5-1.5h4.8C220.9,155.6,222.4,157.1,222.4,158.9z"/>
				<path fill="#FAFBFC" d="M227.1,150.8v1.8h-1.7c-0.1,0-0.2-0.1-0.2-0.2v-1.8h1.7C227,150.6,227.1,150.7,227.1,150.8z
					 M227.1,155.9v11h-1.7c-0.1,0-0.2-0.1-0.2-0.2v-11h1.7C227,155.6,227.1,155.7,227.1,155.9z"/>
				<path fill="#FAFBFC" d="M233.2,167c-1.8,0-3.3-1.5-3.3-3.3v-5c0-1.8,1.5-3.3,3.3-3.3h3c1.8,0,3.3,1.5,3.3,3.3v5
					c0,1.8-1.5,3.3-3.3,3.3H233.2z M231.9,158.7v5.2c0,0.7,0.6,1.3,1.3,1.3h3c0.7,0,1.3-0.6,1.3-1.3v-5.2c0-0.7-0.6-1.3-1.3-1.3h-3
					C232.5,157.3,231.9,157.9,231.9,158.7z"/>
				<path fill="#FAFBFC" d="M255.8,155.6v9.8c0,0.8-0.7,1.5-1.5,1.5h-8.8c-1.8,0-3.3-1.5-3.3-3.3v-8h1.7c0.1,0,0.2,0.1,0.2,0.2v7.8
					c0,0.7,0.6,1.3,1.3,1.3h2.9c-0.2-0.1-0.4-0.4-0.4-0.6v-8.7h1.7c0.1,0,0.2,0.1,0.2,0.2v8.9c0,0.1,0.1,0.2,0.2,0.2h3.4
					c0.1,0,0.2-0.1,0.2-0.2v0v-8.9c0-0.1,0.1-0.2,0.2-0.2H255.8z"/>
				<path fill="#FAFBFC" d="M267.5,155.6c0.1,0,0.2,0.1,0.2,0.2v13.2c0,1.8-1.5,3.3-3.3,3.3h-5.5v-1.6c0-0.1,0.1-0.2,0.2-0.2h5.3
					c0.7,0,1.3-0.6,1.3-1.3v-3c-0.3,0.4-0.8,0.7-1.6,0.7h-2.5c-1.8,0-3.3-1.5-3.3-3.3v-8h1.7c0.1,0,0.2,0.1,0.2,0.2v7.8
					c0,0.7,0.6,1.3,1.3,1.3h3c0.6-0.1,1.1-0.6,1.1-1.1v-8.2H267.5z"/>
			</g>
		</g>
		<path fill="#58ABDC" stroke="#FAFBFC" stroke-width="2" stroke-miterlimit="10" d="M984.4,225.8H776c-18.3,0-33.1-14.8-33.1-33.1
			v0c0-18.3,14.8-33.1,33.1-33.1h208.4c18.3,0,33.1,14.8,33.1,33.1v0C1017.5,210.9,1002.6,225.8,984.4,225.8z"/>
		<g>
			<g>
				<path fill="#FAFBFC" d="M851.4,183.6c0.9,0,1.7-0.8,1.7-1.7v-2c0-0.2-0.2-0.5-0.4-0.5l-8.6-2.9c-0.7-0.2-1.2-1-1.2-1.7V172
					c0-2.1,1.7-3.4,3.8-3.4h8v1.6c0,0.2-0.1,0.3-0.3,0.3h-7.7c-0.9,0-1.7,0.6-1.7,1.6v2.2c0,0.2,0.2,0.5,0.4,0.6l8.6,2.9
					c0.7,0.2,1.2,1,1.2,1.7v2.4c0,2.1-1.6,3.7-3.7,3.7h-8.6v-1.6c0-0.2,0.1-0.3,0.3-0.3H851.4z"/>
				<path fill="#FAFBFC" d="M866.5,174.3c0.1,0,0.2,0.1,0.2,0.2v13.2c0,1.8-1.5,3.3-3.3,3.3H858v-1.6c0-0.1,0.1-0.2,0.2-0.2h5.3
					c0.7,0,1.3-0.6,1.3-1.3v-3c-0.3,0.4-0.8,0.7-1.6,0.7h-2.5c-1.8,0-3.3-1.5-3.3-3.3v-8h1.7c0.1,0,0.2,0.1,0.2,0.2v7.8
					c0,0.7,0.6,1.3,1.3,1.3h3c0.6-0.1,1.1-0.6,1.1-1.1v-8.2H866.5z"/>
				<path fill="#FAFBFC" d="M869.2,178.8v-1.5c0-1.8,1.3-3,3.1-3h6.2v1.6c0,0.1-0.1,0.2-0.2,0.2h-5.9c-0.7,0-1.1,0.4-1.1,1.1v0.7
					c0,0.1,0.1,0.2,0.2,0.2l6.9,1.6c0.4,0.1,0.6,0.4,0.6,0.7v2c0,2-1.4,3-3.2,3h-6.4v-1.6c0-0.1,0.1-0.2,0.2-0.2h6.1
					c0.7,0,1.4-0.4,1.4-1.2v-1.1c0-0.1-0.1-0.2-0.2-0.2l-7.1-1.7C869.5,179.4,869.2,179.1,869.2,178.8z"/>
				<path fill="#FAFBFC" d="M887.2,183.9v1.6H885c-1.8,0-3.3-1.5-3.3-3.3v-13.4h1.7c0.1,0,0.2,0.1,0.2,0.2v5.6
					c0.1-0.2,0.4-0.4,0.7-0.4h2.4v1.6c0,0.1-0.1,0.2-0.2,0.2h-2.8v6.2c0,0.7,0.6,1.3,1.3,1.3h2C887.1,183.7,887.2,183.8,887.2,183.9
					z"/>
				<path fill="#FAFBFC" d="M889.3,182.3v-4.8c0-2.1,1.5-3.2,3.3-3.2h3c1.8,0,3.3,1.1,3.3,3.2v2.6c0,0.4,0,0.7-0.6,0.7h-6.2
					c-0.4,0-0.7-0.2-0.9-0.4v2c0,0.7,0.6,1.3,1.3,1.3h5.6c0.1,0,0.2,0.1,0.2,0.2v1.6h-5.8C890.7,185.5,889.3,184.1,889.3,182.3z
					 M892.5,176.1c-0.7,0-1.3,0.4-1.3,1.3v1.2c0,0.1,0.1,0.2,0.2,0.2h5.2c0.1,0,0.2-0.1,0.2-0.2v-1.2c0-0.9-0.4-1.3-1.3-1.3H892.5z"
					/>
				<path fill="#FAFBFC" d="M915.2,177.6v8h-1.7c-0.1,0-0.2-0.1-0.2-0.2v-7.8c0-0.7-0.6-1.3-1.3-1.3H909c0.2,0.1,0.4,0.4,0.4,0.6
					v8.8h-1.7c-0.1,0-0.2-0.1-0.2-0.2v-8.9c0-0.1-0.1-0.2-0.2-0.2h-3.4c-0.1,0-0.2,0.1-0.2,0.2v8.9c0,0.1-0.1,0.2-0.2,0.2h-1.7v-9.8
					c0-0.8,0.7-1.5,1.5-1.5h8.8C913.7,174.3,915.2,175.8,915.2,177.6z"/>
				<path fill="#FAFBFC" d="M778.5,205.5h-2.6c-0.7,0-1.3-0.4-1.5-0.7v6c0,0.1-0.1,0.2-0.2,0.2h-1.7v-16c0-0.4,0.3-0.7,0.7-0.7h5.3
					c1.8,0,3.3,0.9,3.3,3.2v4.9C781.8,204.3,780.3,205.5,778.5,205.5z M779.8,197.5c0-1-0.6-1.3-1.3-1.3h-3.9
					c-0.1,0-0.2,0.1-0.2,0.2v6.1c0,0.6,0.5,1.1,1.1,1.1h3c0.7,0,1.3-0.6,1.3-1.3V197.5z"/>
				<path fill="#FAFBFC" d="M787.7,205.7c-1.8,0-3.3-1.5-3.3-3.3v-5c0-1.8,1.5-3.3,3.3-3.3h3c1.8,0,3.3,1.5,3.3,3.3v5
					c0,1.8-1.5,3.3-3.3,3.3H787.7z M786.4,197.3v5.2c0,0.7,0.6,1.3,1.3,1.3h3c0.7,0,1.3-0.6,1.3-1.3v-5.2c0-0.7-0.6-1.3-1.3-1.3h-3
					C787,196,786.4,196.6,786.4,197.3z"/>
				<path fill="#FAFBFC" d="M799.7,194.3h2.6c0.7,0,1.3,0.3,1.6,0.7v-6.1c0-0.1,0.1-0.2,0.2-0.2h1.7v16.1c0,0.4-0.3,0.7-0.7,0.7
					h-5.3c-1.8,0-3.3-1.5-3.3-3.3v-4.7C796.5,195.8,797.9,194.3,799.7,194.3z M798.5,202.3c0,0.7,0.6,1.3,1.3,1.3h3.9
					c0.1,0,0.2-0.1,0.2-0.2v-6.1c0-0.6-0.5-1.1-1.1-1.1h-3c-0.7,0-1.3,0.6-1.3,1.3V202.3z"/>
				<path fill="#FAFBFC" d="M814.1,203.9v1.6h-2.3c-1.8,0-3.3-1.5-3.3-3.3v-13.4h1.7c0.1,0,0.2,0.1,0.2,0.2v5.6
					c0.1-0.2,0.4-0.4,0.7-0.4h2.4v1.6c0,0.1-0.1,0.2-0.2,0.2h-2.8v6.2c0,0.7,0.6,1.3,1.3,1.3h2C814,203.7,814.1,203.8,814.1,203.9z"
					/>
				<path fill="#FAFBFC" d="M822.3,194.3v1.6c0,0.1-0.1,0.2-0.2,0.2h-2.8c-0.6,0-1,0.5-1.1,1v8.4h-1.7c-0.1,0-0.2-0.1-0.2-0.2v-11
					h1.7c0.1,0,0.2,0.1,0.2,0.2v0.5c0.3-0.4,0.8-0.7,1.5-0.7H822.3z"/>
				<path fill="#FAFBFC" d="M832.6,205.3c0,0.1-0.1,0.2-0.2,0.2h-8.5c-0.1,0-0.2-0.1-0.2-0.2v-0.9c0-0.4,0.2-0.8,0.4-1.1l6.1-6.9
					c0,0,0-0.1,0-0.1c0-0.1-0.1-0.2-0.2-0.2h-5.8v-1.6c0-0.1,0.1-0.2,0.2-0.2h7.8c0.1,0,0.2,0.1,0.2,0.2v1.3c0,0.4-0.2,0.8-0.4,1.1
					l-5.8,6.6c-0.1,0.1-0.1,0.2,0,0.2c0,0,0.1,0,0.1,0h6.2V205.3z"/>
				<path fill="#FAFBFC" d="M843.7,194.3c0.1,0,0.2,0.1,0.2,0.2v13.2c0,1.8-1.5,3.3-3.3,3.3h-5.5v-1.6c0-0.1,0.1-0.2,0.2-0.2h5.3
					c0.7,0,1.3-0.6,1.3-1.3v-3c-0.3,0.4-0.8,0.7-1.6,0.7h-2.5c-1.8,0-3.3-1.5-3.3-3.3v-8h1.7c0.1,0,0.2,0.1,0.2,0.2v7.8
					c0,0.7,0.6,1.3,1.3,1.3h3c0.6-0.1,1.1-0.6,1.1-1.1v-8.2H843.7z"/>
				<path fill="#FAFBFC" d="M860.3,197.6v8h-1.7c-0.1,0-0.2-0.1-0.2-0.2v-7.8c0-0.7-0.6-1.3-1.3-1.3h-2.9c0.2,0.1,0.4,0.4,0.4,0.6
					v8.8h-1.7c-0.1,0-0.2-0.1-0.2-0.2v-8.9c0-0.1-0.1-0.2-0.2-0.2h-3.4c-0.1,0-0.2,0.1-0.2,0.2v8.9c0,0.1-0.1,0.2-0.2,0.2h-1.7v-9.8
					c0-0.8,0.7-1.5,1.5-1.5h8.8C858.9,194.3,860.3,195.8,860.3,197.6z"/>
				<path fill="#FAFBFC" d="M872,194.3c0.1,0,0.2,0.1,0.2,0.2v13.2c0,1.8-1.5,3.3-3.3,3.3h-5.5v-1.6c0-0.1,0.1-0.2,0.2-0.2h5.3
					c0.7,0,1.3-0.6,1.3-1.3v-3c-0.3,0.4-0.8,0.7-1.6,0.7h-2.5c-1.8,0-3.3-1.5-3.3-3.3v-8h1.7c0.1,0,0.2,0.1,0.2,0.2v7.8
					c0,0.7,0.6,1.3,1.3,1.3h3c0.6-0.1,1.1-0.6,1.1-1.1v-8.2H872z"/>
				<path fill="#FAFBFC" d="M888.6,194.3v9.8c0,0.8-0.7,1.5-1.5,1.5h-8.8c-1.8,0-3.3-1.5-3.3-3.3v-8h1.7c0.1,0,0.2,0.1,0.2,0.2v7.8
					c0,0.7,0.6,1.3,1.3,1.3h2.9c-0.2-0.1-0.4-0.4-0.4-0.6v-8.7h1.7c0.1,0,0.2,0.1,0.2,0.2v8.9c0,0.1,0.1,0.2,0.2,0.2h3.4
					c0.1,0,0.2-0.1,0.2-0.2v0v-8.9c0-0.1,0.1-0.2,0.2-0.2H888.6z"/>
				<path fill="#FAFBFC" d="M900.1,197.4v7.4c0,0.4-0.3,0.7-0.7,0.7h-0.2h-1h-4c-1.8,0-3.3-1.5-3.3-3.3v-0.7c0-1.8,1.5-3.3,3.3-3.3
					h3.8c0.1,0,0.2-0.1,0.2-0.2v-0.6c0-0.7-0.5-1.3-1.3-1.3h-4.5c-0.1,0-0.2-0.1-0.2-0.2v-1.6h4.7
					C898.7,194.3,900.1,195.4,900.1,197.4z M894.1,203.6h3.8c0.1,0,0.2-0.1,0.2-0.2v-3.6c-0.1,0.2-0.3,0.3-0.6,0.3h-3.5
					c-0.7,0-1.3,0.6-1.3,1.3v0.8C892.8,203,893.4,203.6,894.1,203.6z"/>
				<path fill="#FAFBFC" d="M912.3,197.6v8h-1.7c-0.1,0-0.2-0.1-0.2-0.2v-7.8c0-0.7-0.6-1.3-1.3-1.3H905c-0.1,0-0.2,0.1-0.2,0.2v8.9
					c0,0.1-0.1,0.2-0.2,0.2h-1.7v-9.8c0-0.8,0.7-1.5,1.5-1.5h4.8C910.9,194.3,912.3,195.8,912.3,197.6z"/>
				<path fill="#FAFBFC" d="M917.1,189.5v1.8h-1.7c-0.1,0-0.2-0.1-0.2-0.2v-1.8h1.7C917,189.3,917.1,189.4,917.1,189.5z
					 M917.1,194.5v11h-1.7c-0.1,0-0.2-0.1-0.2-0.2v-11h1.7C917,194.3,917.1,194.4,917.1,194.5z"/>
				<path fill="#FAFBFC" d="M928.8,197.4v7.4c0,0.4-0.3,0.7-0.7,0.7h-0.2h-1h-4c-1.8,0-3.3-1.5-3.3-3.3v-0.7c0-1.8,1.5-3.3,3.3-3.3
					h3.8c0.1,0,0.2-0.1,0.2-0.2v-0.6c0-0.7-0.5-1.3-1.3-1.3H921c-0.1,0-0.2-0.1-0.2-0.2v-1.6h4.7
					C927.3,194.3,928.8,195.4,928.8,197.4z M922.8,203.6h3.8c0.1,0,0.2-0.1,0.2-0.2v-3.6c-0.1,0.2-0.3,0.3-0.6,0.3h-3.5
					c-0.7,0-1.3,0.6-1.3,1.3v0.8C921.5,203,922.1,203.6,922.8,203.6z"/>
				<path fill="#FAFBFC" d="M948.4,205.3c0,0.1-0.1,0.2-0.2,0.2h-8.6c-0.1,0-0.2-0.1-0.2-0.2v-0.9c0-0.4,0.2-0.8,0.4-1.1l6-6.9
					c0,0,0-0.1,0-0.1c0-0.1-0.1-0.2-0.2-0.2h-6.3v-1.6c0-0.1,0.1-0.2,0.2-0.2h8.3c0.1,0,0.2,0.1,0.2,0.2v1.2c0,0.4-0.2,0.8-0.4,1.1
					l-5.7,6.5c-0.1,0.1-0.1,0.2,0,0.2c0,0,0.1,0,0.1,0h6.3V205.3z M942.9,191.4v-1.6h1.6c0.2,0,0.4,0.2,0.4,0.4v1.6h-1.6
					C943.1,191.8,942.9,191.7,942.9,191.4z"/>
				<path fill="#FAFBFC" d="M959.5,194.3c0.1,0,0.2,0.1,0.2,0.2v13.2c0,1.8-1.5,3.3-3.3,3.3h-5.5v-1.6c0-0.1,0.1-0.2,0.2-0.2h5.3
					c0.7,0,1.3-0.6,1.3-1.3v-3c-0.3,0.4-0.8,0.7-1.6,0.7h-2.5c-1.8,0-3.3-1.5-3.3-3.3v-8h1.7c0.1,0,0.2,0.1,0.2,0.2v7.8
					c0,0.7,0.6,1.3,1.3,1.3h3c0.6-0.1,1.1-0.6,1.1-1.1v-8.2H959.5z"/>
				<path fill="#FAFBFC" d="M964.3,197.5v4.8c0,0.7,0.6,1.3,1.3,1.3h4c0.1,0,0.2,0.1,0.2,0.2v1.6h-4.2c-1.8,0-3.3-1.5-3.3-3.3v-4.7
					c0-1.8,1.5-3.3,3.3-3.3h4.2v1.6c0,0.1-0.1,0.2-0.2,0.2h-4C964.8,196.2,964.3,196.8,964.3,197.5z"/>
				<path fill="#FAFBFC" d="M974.4,189.5v1.8h-1.7c-0.1,0-0.2-0.1-0.2-0.2v-1.8h1.7C974.3,189.3,974.4,189.4,974.4,189.5z
					 M974.4,194.5v11h-1.7c-0.1,0-0.2-0.1-0.2-0.2v-11h1.7C974.3,194.3,974.4,194.4,974.4,194.5z"/>
				<path fill="#FAFBFC" d="M986,197.4v7.4c0,0.4-0.3,0.7-0.7,0.7h-0.2h-1h-4c-1.8,0-3.3-1.5-3.3-3.3v-0.7c0-1.8,1.5-3.3,3.3-3.3
					h3.8c0.1,0,0.2-0.1,0.2-0.2v-0.6c0-0.7-0.5-1.3-1.3-1.3h-4.5c-0.1,0-0.2-0.1-0.2-0.2v-1.6h4.7C984.6,194.3,986,195.4,986,197.4z
					 M980.1,203.6h3.8c0.1,0,0.2-0.1,0.2-0.2v-3.6c-0.1,0.2-0.3,0.3-0.6,0.3h-3.5c-0.7,0-1.3,0.6-1.3,1.3v0.8
					C978.7,203,979.3,203.6,980.1,203.6z"/>
			</g>
		</g>
		
			<line fill="#58ABDC" stroke="#58ABDC" stroke-width="3" stroke-linecap="round" stroke-linejoin="round" stroke-miterlimit="10" x1="855.5" y1="333.7" x2="787" y2="476"/>
		<path fill="#58ABDC" stroke="#FAFBFC" stroke-width="2" stroke-miterlimit="10" d="M932,323.3H794c-14.2,0-25.7-11.5-25.7-25.7v0
			c0-14.2,11.5-25.7,25.7-25.7h138c14.2,0,25.7,11.5,25.7,25.7v0C957.7,311.9,946.2,323.3,932,323.3z"/>
		<g>
			<g>
				<path fill="#FAFBFC" d="M819.1,296.9v7.8c0,0.2-0.1,0.3-0.3,0.3H817v-15.6c0-0.7,0.6-1.3,1.3-1.3h7.1c2.1,0,3.8,1.3,3.8,3.6v2.2
					c0,2-1.4,3.1-3.1,3.5l3.6,7.6h-2c-0.2,0-0.3-0.1-0.4-0.3l-3.4-7.2H821h-0.7C819.8,297.5,819.3,297.3,819.1,296.9L819.1,296.9z
					 M825.3,295.6c0.9,0,1.7-0.8,1.7-1.7v-2.1c0-0.9-0.8-1.7-1.7-1.7h-5.8c-0.2,0-0.4,0.2-0.4,0.4v4.7c0,0.2,0.2,0.4,0.4,0.4H825.3z
					"/>
				<path fill="#FAFBFC" d="M831.5,301.7v-4.8c0-2.1,1.5-3.2,3.3-3.2h3c1.8,0,3.3,1.1,3.3,3.2v2.6c0,0.4,0,0.7-0.6,0.7h-6.2
					c-0.4,0-0.7-0.2-0.9-0.4v2c0,0.7,0.6,1.3,1.3,1.3h5.6c0.1,0,0.2,0.1,0.2,0.2v1.6h-0.9l-1.7,1.5v0.7c0,0.1,0.1,0.2,0.2,0.2h1.6
					c0.2,0,0.4,0.2,0.4,0.4v0.8h-2.2c-0.7,0-1.3-0.6-1.3-1.3v-1.1l1.5-1.2h-3.5C833,305,831.5,303.5,831.5,301.7z M834.8,295.6
					c-0.7,0-1.3,0.4-1.3,1.3v1.2c0,0.1,0.1,0.2,0.2,0.2h5.2c0.1,0,0.2-0.1,0.2-0.2v-1.2c0-0.9-0.4-1.3-1.3-1.3H834.8z"/>
				<path fill="#FAFBFC" d="M853,305h-1.9c-0.2,0-0.3-0.1-0.4-0.2l-2.2-4.4h-2.7c-0.1,0-0.2,0.1-0.2,0.2v4.2c0,0.1-0.1,0.2-0.2,0.2
					h-1.7v-16.7h1.7c0.1,0,0.2,0.1,0.2,0.2v10.3c0.1-0.2,0.3-0.4,0.6-0.4h2.8c0.7,0,1.3-0.6,1.3-1.3V294c0-0.1,0.1-0.2,0.2-0.2h1.7
					v3.3c0,1.2-0.7,2.3-1.7,2.9L853,305z"/>
				<path fill="#FAFBFC" d="M863.6,296.9v7.4c0,0.4-0.3,0.7-0.7,0.7h-0.2h-1h-4c-1.8,0-3.3-1.5-3.3-3.3V301c0-1.8,1.5-3.3,3.3-3.3
					h3.8c0.1,0,0.2-0.1,0.2-0.2v-0.6c0-0.7-0.5-1.3-1.3-1.3h-4.5c-0.1,0-0.2-0.1-0.2-0.2v-1.6h4.7
					C862.1,293.8,863.6,294.9,863.6,296.9z M857.6,303.1h3.8c0.1,0,0.2-0.1,0.2-0.2v-3.6c-0.1,0.2-0.3,0.3-0.6,0.3h-3.5
					c-0.7,0-1.3,0.6-1.3,1.3v0.8C856.3,302.5,856.8,303.1,857.6,303.1z"/>
				<path fill="#FAFBFC" d="M879.8,293.8v9.8c0,0.8-0.7,1.5-1.5,1.5h-8.8c-1.8,0-3.3-1.5-3.3-3.3v-8h1.7c0.1,0,0.2,0.1,0.2,0.2v7.8
					c0,0.7,0.6,1.3,1.3,1.3h2.9c-0.2-0.1-0.4-0.4-0.4-0.6v-8.7h1.7c0.1,0,0.2,0.1,0.2,0.2v8.9c0,0.1,0.1,0.2,0.2,0.2h3.4
					c0.1,0,0.2-0.1,0.2-0.2v0V294c0-0.1,0.1-0.2,0.2-0.2H879.8z"/>
				<path fill="#FAFBFC" d="M884.5,289v1.8h-1.7c-0.1,0-0.2-0.1-0.2-0.2v-1.8h1.7C884.4,288.7,884.5,288.8,884.5,289z M884.5,294v11
					h-1.7c-0.1,0-0.2-0.1-0.2-0.2v-11h1.7C884.4,293.8,884.5,293.8,884.5,294z"/>
				<path fill="#FAFBFC" d="M889.1,297v4.8c0,0.7,0.6,1.3,1.3,1.3h4c0.1,0,0.2,0.1,0.2,0.2v1.6h-4.2c-1.8,0-3.3-1.5-3.3-3.3v-4.7
					c0-1.8,1.5-3.3,3.3-3.3h4.2v1.6c0,0.1-0.1,0.2-0.2,0.2h-4C889.7,295.6,889.1,296.2,889.1,297z"/>
				<path fill="#FAFBFC" d="M897.2,301.7v-4.8c0-2.1,1.5-3.2,3.3-3.2h3c1.8,0,3.3,1.1,3.3,3.2v2.6c0,0.4,0,0.7-0.6,0.7H900
					c-0.4,0-0.7-0.2-0.9-0.4v2c0,0.7,0.6,1.3,1.3,1.3h5.6c0.1,0,0.2,0.1,0.2,0.2v1.6h-5.8C898.7,305,897.2,303.5,897.2,301.7z
					 M900.5,295.6c-0.7,0-1.3,0.4-1.3,1.3v1.2c0,0.1,0.1,0.2,0.2,0.2h5.2c0.1,0,0.2-0.1,0.2-0.2v-1.2c0-0.9-0.4-1.3-1.3-1.3H900.5z"
					/>
			</g>
		</g>
		<path fill="#58ABDC" stroke="#FAFBFC" stroke-width="2" stroke-miterlimit="10" d="M931.5,106.2H794.6
			c-17.6,0-31.9-14.3-31.9-31.9v0c0-17.6,14.3-31.9,31.9-31.9h136.9c17.6,0,31.9,14.3,31.9,31.9v0C963.3,92,949.1,106.2,931.5,106.2
			z"/>
		<g>
			<g>
				<path fill="#FAFBFC" d="M803.3,79.8c0.9,0,1.7-0.8,1.7-1.7v-2c0-0.2-0.2-0.5-0.4-0.5l-8.6-2.9c-0.7-0.2-1.2-1-1.2-1.7v-2.7
					c0-2.1,1.7-3.4,3.8-3.4h8v1.6c0,0.2-0.1,0.3-0.3,0.3h-7.7c-0.9,0-1.7,0.6-1.7,1.6v2.2c0,0.2,0.2,0.5,0.4,0.6l8.6,2.9
					c0.7,0.2,1.2,1,1.2,1.7V78c0,2.1-1.6,3.7-3.7,3.7h-8.6v-1.6c0-0.2,0.1-0.3,0.3-0.3H803.3z"/>
				<path fill="#FAFBFC" d="M817.7,81.4c0,0.1-0.1,0.2-0.2,0.2H809c-0.1,0-0.2-0.1-0.2-0.2v-0.9c0-0.4,0.2-0.8,0.4-1.1l6.1-6.9
					c0,0,0-0.1,0-0.1c0-0.1-0.1-0.2-0.2-0.2h-5.8v-1.6c0-0.1,0.1-0.2,0.2-0.2h7.8c0.1,0,0.2,0.1,0.2,0.2v1.3c0,0.4-0.2,0.8-0.4,1.1
					l-5.8,6.6c-0.1,0.1-0.1,0.2,0,0.2c0,0,0.1,0,0.1,0h6.2V81.4z"/>
				<path fill="#FAFBFC" d="M828.8,70.5c0.1,0,0.2,0.1,0.2,0.2v13.2c0,1.8-1.5,3.3-3.3,3.3h-5.5v-1.6c0-0.1,0.1-0.2,0.2-0.2h5.3
					c0.7,0,1.3-0.6,1.3-1.3v-3c-0.3,0.4-0.8,0.7-1.6,0.7H823c-1.8,0-3.3-1.5-3.3-3.3v-8h1.7c0.1,0,0.2,0.1,0.2,0.2v7.8
					c0,0.7,0.6,1.3,1.3,1.3h3c0.6-0.1,1.1-0.6,1.1-1.1v-8.2H828.8z"/>
				<path fill="#FAFBFC" d="M841.1,73.7v4.7c0,1.8-1.5,3.3-3.3,3.3h-5.3c-0.4,0-0.7-0.3-0.7-0.7V64.8h1.7c0.1,0,0.2,0.1,0.2,0.2v6.1
					c0.3-0.4,0.8-0.7,1.5-0.7h2.6C839.7,70.5,841.1,71.9,841.1,73.7z M839.2,73.6c0-0.7-0.6-1.3-1.3-1.3h-3c-0.6,0.1-1,0.5-1.1,1.1
					v6.1c0,0.1,0.1,0.2,0.2,0.2h3.9c0.7,0,1.3-0.6,1.3-1.3V73.6z"/>
				<path fill="#FAFBFC" d="M852.5,73.6V81c0,0.4-0.3,0.7-0.7,0.7h-0.2h-1h-4c-1.8,0-3.3-1.5-3.3-3.3v-0.7c0-1.8,1.5-3.3,3.3-3.3
					h3.8c0.1,0,0.2-0.1,0.2-0.2v-0.6c0-0.7-0.5-1.3-1.3-1.3h-4.5c-0.1,0-0.2-0.1-0.2-0.2v-1.6h4.7C851,70.5,852.5,71.6,852.5,73.6z
					 M846.5,79.8h3.8c0.1,0,0.2-0.1,0.2-0.2V76c-0.1,0.2-0.3,0.3-0.6,0.3h-3.5c-0.7,0-1.3,0.6-1.3,1.3v0.8
					C845.2,79.2,845.8,79.8,846.5,79.8z"/>
				<path fill="#FAFBFC" d="M877.2,70.5v9.8c0,0.8-0.7,1.5-1.5,1.5h-8.8c-1.8,0-3.3-1.5-3.3-3.3v-8h1.7c0.1,0,0.2,0.1,0.2,0.2v7.8
					c0,0.7,0.6,1.3,1.3,1.3h2.9c-0.2-0.1-0.4-0.4-0.4-0.6v-8.7h1.7c0.1,0,0.2,0.1,0.2,0.2v8.9c0,0.1,0.1,0.2,0.2,0.2h3.4
					c0.1,0,0.2-0.1,0.2-0.2v0v-8.9c0-0.1,0.1-0.2,0.2-0.2H877.2z"/>
				<path fill="#FAFBFC" d="M881.9,65.7v1.8h-1.7c-0.1,0-0.2-0.1-0.2-0.2v-1.8h1.7C881.8,65.4,881.9,65.5,881.9,65.7z M881.9,70.7
					v11h-1.7c-0.1,0-0.2-0.1-0.2-0.2v-11h1.7C881.8,70.5,881.9,70.5,881.9,70.7z"/>
				<path fill="#FAFBFC" d="M893.1,81.4c0,0.1-0.1,0.2-0.2,0.2h-8.5c-0.1,0-0.2-0.1-0.2-0.2v-0.9c0-0.4,0.2-0.8,0.4-1.1l6.1-6.9
					c0,0,0-0.1,0-0.1c0-0.1-0.1-0.2-0.2-0.2h-5.8v-1.6c0-0.1,0.1-0.2,0.2-0.2h7.8c0.1,0,0.2,0.1,0.2,0.2v1.3c0,0.4-0.2,0.8-0.4,1.1
					l-5.8,6.6c-0.1,0.1-0.1,0.2,0,0.2c0,0,0.1,0,0.1,0h6.2V81.4z"/>
				<path fill="#FAFBFC" d="M893.1,85.6c0-0.1,0.1-0.2,0.2-0.2h0.6c0.7,0,1.3-0.6,1.3-1.3v-2.5v-3.1v-7.9h1.7c0.1,0,0.2,0.1,0.2,0.2
					v7.7v3.3v2.2c0,1.8-1.5,3.3-3.3,3.3h-0.9V85.6z M897,65.6h-1.7v1.8c0,0.1,0.1,0.2,0.2,0.2h1.7v-1.8
					C897.2,65.8,897.1,65.6,897,65.6z"/>
				<path fill="#FAFBFC" d="M900,78.4v-4.8c0-2.1,1.5-3.2,3.3-3.2h3c1.8,0,3.3,1.1,3.3,3.2v2.6c0,0.4,0,0.7-0.6,0.7h-6.2
					c-0.4,0-0.7-0.2-0.9-0.4v2c0,0.7,0.6,1.3,1.3,1.3h5.6c0.1,0,0.2,0.1,0.2,0.2v1.6h-5.8C901.4,81.7,900,80.2,900,78.4z
					 M903.3,72.3c-0.7,0-1.3,0.4-1.3,1.3v1.2c0,0.1,0.1,0.2,0.2,0.2h5.2c0.1,0,0.2-0.1,0.2-0.2v-1.2c0-0.9-0.4-1.3-1.3-1.3H903.3z"
					/>
				<path fill="#FAFBFC" d="M918.4,70.5v1.6c0,0.1-0.1,0.2-0.2,0.2h-2.8c-0.6,0-1,0.5-1.1,1v8.4h-1.7c-0.1,0-0.2-0.1-0.2-0.2v-11
					h1.7c0.1,0,0.2,0.1,0.2,0.2v0.5c0.3-0.4,0.8-0.7,1.5-0.7H918.4z"/>
				<path fill="#FAFBFC" d="M928.7,73.6V81c0,0.4-0.3,0.7-0.7,0.7h-0.2h-1h-4c-1.8,0-3.3-1.5-3.3-3.3v-0.7c0-1.8,1.5-3.3,3.3-3.3
					h3.8c0.1,0,0.2-0.1,0.2-0.2v-0.6c0-0.7-0.5-1.3-1.3-1.3H921c-0.1,0-0.2-0.1-0.2-0.2v-1.6h4.7C927.3,70.5,928.7,71.6,928.7,73.6z
					 M922.7,79.8h3.8c0.1,0,0.2-0.1,0.2-0.2V76c-0.1,0.2-0.3,0.3-0.6,0.3h-3.5c-0.7,0-1.3,0.6-1.3,1.3v0.8
					C921.4,79.2,922,79.8,922.7,79.8z"/>
			</g>
		</g>
		
			<line fill="#58ABDC" stroke="#58ABDC" stroke-width="3" stroke-linecap="round" stroke-linejoin="round" stroke-miterlimit="10" x1="520.1" y1="271.5" x2="338.7" y2="271.5"/>
		
			<line fill="#58ABDC" stroke="#58ABDC" stroke-width="3" stroke-linecap="round" stroke-linejoin="round" stroke-miterlimit="10" x1="501.2" y1="341" x2="390.7" y2="390.7"/>
		
			<line fill="#58ABDC" stroke="#58ABDC" stroke-width="3" stroke-linecap="round" stroke-linejoin="round" stroke-miterlimit="10" x1="447.8" y1="808.5" x2="389.8" y2="648.1"/>
		<path fill="#58ABDC" stroke="#FAFBFC" stroke-width="2" stroke-miterlimit="10" d="M296.9,301.7H135.7
			c-16.7,0-30.2-13.5-30.2-30.2v0c0-16.7,13.5-30.2,30.2-30.2h161.1c16.7,0,30.2,13.5,30.2,30.2v0
			C327.1,288.2,313.6,301.7,296.9,301.7z"/>
		<g>
			<g>
				<path fill="#FAFBFC" d="M156.7,267.3v-9.4c0-2.1,1.7-3.8,3.8-3.8h7.7v1.6c0,0.2-0.1,0.3-0.3,0.3h-7.4c-0.9,0-1.7,0.8-1.7,1.7
					v9.8c0,0.9,0.8,1.7,1.7,1.7h4.7c0.9,0,1.9-0.8,1.9-1.7v-4.1H163c-0.2,0-0.3-0.1-0.3-0.3v-1.6h6c0.2,0,0.3,0.1,0.3,0.3v5.8
					c0,2.4-1.7,3.6-3.8,3.6h-4.7C158.4,271.1,156.7,269.4,156.7,267.3z"/>
				<path fill="#FAFBFC" d="M177.9,271.2h-3c-1.8,0-3.3-1.5-3.3-3.3v-5c0-1.8,1.5-3.3,3.3-3.3h3c1.8,0,3.3,1.5,3.3,3.3v5
					C181.2,269.7,179.7,271.2,177.9,271.2z M174.9,261.5c-0.7,0-1.3,0.6-1.3,1.3v5.2c0,0.7,0.6,1.3,1.3,1.3h3c0.7,0,1.3-0.6,1.3-1.3
					v-5.2c0-0.7-0.6-1.3-1.3-1.3H174.9z M177.4,257l0.9-2.3h-1.6c-0.2,0-0.3,0.1-0.4,0.3l-1,2.3h1.6
					C177.2,257.2,177.4,257.1,177.4,257z"/>
				<path fill="#FAFBFC" d="M190,259.8v1.6c0,0.1-0.1,0.2-0.2,0.2h-2.8c-0.6,0-1,0.5-1.1,1v8.4h-1.7c-0.1,0-0.2-0.1-0.2-0.2v-11h1.7
					c0.1,0,0.2,0.1,0.2,0.2v0.5c0.3-0.4,0.8-0.7,1.5-0.7H190z"/>
				<path fill="#FAFBFC" d="M201.6,263v8h-1.7c-0.1,0-0.2-0.1-0.2-0.2v-7.8c0-0.7-0.6-1.3-1.3-1.3h-4.1c-0.1,0-0.2,0.1-0.2,0.2v8.9
					c0,0.1-0.1,0.2-0.2,0.2H192v-9.8c0-0.8,0.7-1.5,1.5-1.5h4.8C200.1,259.8,201.6,261.2,201.6,263z"/>
				<path fill="#FAFBFC" d="M213.2,262.9v7.4c0,0.4-0.3,0.7-0.7,0.7h-0.2h-1h-4c-1.8,0-3.3-1.5-3.3-3.3V267c0-1.8,1.5-3.3,3.3-3.3
					h3.8c0.1,0,0.2-0.1,0.2-0.2v-0.6c0-0.7-0.5-1.3-1.3-1.3h-4.5c-0.1,0-0.2-0.1-0.2-0.2v-1.6h4.7
					C211.7,259.8,213.2,260.9,213.2,262.9z M207.2,269.1h3.8c0.1,0,0.2-0.1,0.2-0.2v-3.6c-0.1,0.2-0.3,0.3-0.6,0.3h-3.5
					c-0.7,0-1.3,0.6-1.3,1.3v0.8C205.9,268.5,206.4,269.1,207.2,269.1z"/>
				<path fill="#FAFBFC" d="M226.1,263v4.8c0,0.7,0.6,1.3,1.3,1.3h4c0.1,0,0.2,0.1,0.2,0.2v1.6h-4.2c-1.8,0-3.3-1.5-3.3-3.3v-4.7
					c0-1.8,1.5-3.3,3.3-3.3h4.2v1.6c0,0.1-0.1,0.2-0.2,0.2h-4C226.7,261.6,226.1,262.2,226.1,263z"/>
				<path fill="#FAFBFC" d="M242.5,270.8c0,0.1-0.1,0.2-0.2,0.2h-8.5c-0.1,0-0.2-0.1-0.2-0.2v-0.9c0-0.4,0.2-0.8,0.4-1.1l6.1-6.9
					c0,0,0-0.1,0-0.1c0-0.1-0.1-0.2-0.2-0.2h-5.8V260c0-0.1,0.1-0.2,0.2-0.2h7.8c0.1,0,0.2,0.1,0.2,0.2v1.3c0,0.4-0.2,0.8-0.4,1.1
					l-5.8,6.6c-0.1,0.1-0.1,0.2,0,0.2c0,0,0.1,0,0.1,0h6.2V270.8z"/>
				<path fill="#FAFBFC" d="M244.6,267.7V263c0-2.1,1.5-3.2,3.3-3.2h3c1.8,0,3.3,1.1,3.3,3.2v2.6c0,0.4,0,0.7-0.6,0.7h-6.2
					c-0.4,0-0.7-0.2-0.9-0.4v2c0,0.7,0.6,1.3,1.3,1.3h5.6c0.1,0,0.2,0.1,0.2,0.2v1.6h-0.9l-1.7,1.5v0.7c0,0.1,0.1,0.2,0.2,0.2h1.6
					c0.2,0,0.4,0.2,0.4,0.4v0.8h-2.2c-0.7,0-1.3-0.6-1.3-1.3v-1.1l1.5-1.2h-3.5C246,271,244.6,269.5,244.6,267.7z M247.9,261.6
					c-0.7,0-1.3,0.4-1.3,1.3v1.2c0,0.1,0.1,0.2,0.2,0.2h5.2c0.1,0,0.2-0.1,0.2-0.2v-1.2c0-0.9-0.4-1.3-1.3-1.3H247.9z"/>
				<path fill="#FAFBFC" d="M257,265c-0.4-0.1-0.6-0.4-0.6-0.7v-1.5c0-1.8,1.3-3,3.1-3h6.2v1.6c0,0.1-0.1,0.2-0.2,0.2h-5.9
					c-0.7,0-1.1,0.4-1.1,1.1v0.7c0,0.1,0.1,0.2,0.2,0.2l6.9,1.6c0.4,0.1,0.6,0.4,0.6,0.7v2c0,2-1.4,3-3.2,3h-6.4v-1.6
					c0-0.1,0.1-0.2,0.2-0.2h6.1c0.7,0,1.4-0.4,1.4-1.2v-1.1c0-0.1-0.1-0.2-0.2-0.2L257,265z M262.1,257.5l1.1-2.6h-1.5
					c-0.2,0-0.3,0.1-0.4,0.2l-1.1,2.6h1.5C261.9,257.7,262.1,257.6,262.1,257.5z"/>
				<path fill="#FAFBFC" d="M270.5,263v4.8c0,0.7,0.6,1.3,1.3,1.3h4c0.1,0,0.2,0.1,0.2,0.2v1.6h-4.2c-1.8,0-3.3-1.5-3.3-3.3v-4.7
					c0-1.8,1.5-3.3,3.3-3.3h4.2v1.6c0,0.1-0.1,0.2-0.2,0.2h-4C271.1,261.6,270.5,262.2,270.5,263z M273.4,257.8h-1.5l1.2-2.3
					c0-0.1,0.2-0.2,0.4-0.2h1.5l-1.2,2.3C273.8,257.6,273.6,257.8,273.4,257.8z"/>
				<path fill="#FAFBFC" d="M169,284.2v-1.5c0-1.8,1.3-3,3.1-3h6.2v1.6c0,0.1-0.1,0.2-0.2,0.2H172c-0.7,0-1.1,0.4-1.1,1.1v0.7
					c0,0.1,0.1,0.2,0.2,0.2l6.9,1.6c0.4,0.1,0.6,0.4,0.6,0.7v2c0,2-1.4,3-3.2,3h-6.4v-1.6c0-0.1,0.1-0.2,0.2-0.2h6.1
					c0.7,0,1.4-0.4,1.4-1.2v-1.1c0-0.1-0.1-0.2-0.2-0.2l-7.1-1.7C169.2,284.9,169,284.6,169,284.2z"/>
				<path fill="#FAFBFC" d="M190.8,291h-1.9c-0.2,0-0.3-0.1-0.4-0.2l-2.2-4.4h-2.7c-0.1,0-0.2,0.1-0.2,0.2v4.2
					c0,0.1-0.1,0.2-0.2,0.2h-1.7v-16.7h1.7c0.1,0,0.2,0.1,0.2,0.2v10.3c0.1-0.2,0.3-0.4,0.6-0.4h2.8c0.7,0,1.3-0.6,1.3-1.3V280
					c0-0.1,0.1-0.2,0.2-0.2h1.7v3.3c0,1.2-0.7,2.3-1.7,2.9L190.8,291z"/>
				<path fill="#FAFBFC" d="M201.3,282.9v7.4c0,0.4-0.3,0.7-0.7,0.7h-0.2h-1h-4c-1.8,0-3.3-1.5-3.3-3.3V287c0-1.8,1.5-3.3,3.3-3.3
					h3.8c0.1,0,0.2-0.1,0.2-0.2v-0.6c0-0.7-0.5-1.3-1.3-1.3h-4.5c-0.1,0-0.2-0.1-0.2-0.2v-1.6h4.7
					C199.9,279.8,201.3,280.9,201.3,282.9z M195.4,289.1h3.8c0.1,0,0.2-0.1,0.2-0.2v-3.6c-0.1,0.2-0.3,0.3-0.6,0.3h-3.5
					c-0.7,0-1.3,0.6-1.3,1.3v0.8C194,288.5,194.6,289.1,195.4,289.1z"/>
				<path fill="#FAFBFC" d="M209.6,274.1v1.6c0,0.1-0.1,0.2-0.2,0.2h-2c-0.7,0-1.3,0.6-1.3,1.3v2.9c0.1-0.2,0.3-0.3,0.6-0.3h2.2v1.6
					c0,0.1-0.1,0.2-0.2,0.2H206v9.1c0,0.1-0.1,0.2-0.2,0.2H204v-13.6c0-1.8,1.5-3.3,3.3-3.3H209.6z"/>
				<path fill="#FAFBFC" d="M220,282.9v7.4c0,0.4-0.3,0.7-0.7,0.7h-0.2h-1h-4c-1.8,0-3.3-1.5-3.3-3.3V287c0-1.8,1.5-3.3,3.3-3.3h3.8
					c0.1,0,0.2-0.1,0.2-0.2v-0.6c0-0.7-0.5-1.3-1.3-1.3h-4.5c-0.1,0-0.2-0.1-0.2-0.2v-1.6h4.7C218.6,279.8,220,280.9,220,282.9z
					 M214.1,289.1h3.8c0.1,0,0.2-0.1,0.2-0.2v-3.6c-0.1,0.2-0.3,0.3-0.6,0.3h-3.5c-0.7,0-1.3,0.6-1.3,1.3v0.8
					C212.7,288.5,213.3,289.1,214.1,289.1z"/>
				<path fill="#FAFBFC" d="M232.3,283v8h-1.7c-0.1,0-0.2-0.1-0.2-0.2v-7.8c0-0.7-0.6-1.3-1.3-1.3h-4.1c-0.1,0-0.2,0.1-0.2,0.2v8.9
					c0,0.1-0.1,0.2-0.2,0.2h-1.7v-9.8c0-0.8,0.7-1.5,1.5-1.5h4.8C230.8,279.8,232.3,281.2,232.3,283z"/>
				<path fill="#FAFBFC" d="M238.1,279.8h2.6c0.7,0,1.3,0.3,1.6,0.7v-6.1c0-0.1,0.1-0.2,0.2-0.2h1.7v16.1c0,0.4-0.3,0.7-0.7,0.7
					h-5.3c-1.8,0-3.3-1.5-3.3-3.3V283C234.8,281.2,236.3,279.8,238.1,279.8z M236.8,287.8c0,0.7,0.6,1.3,1.3,1.3h3.9
					c0.1,0,0.2-0.1,0.2-0.2v-6.1c0-0.6-0.5-1.1-1.1-1.1h-3c-0.7,0-1.3,0.6-1.3,1.3V287.8z"/>
				<path fill="#FAFBFC" d="M253,279.8v1.6c0,0.1-0.1,0.2-0.2,0.2H250c-0.6,0-1,0.5-1.1,1v8.4h-1.7c-0.1,0-0.2-0.1-0.2-0.2v-11h1.7
					c0.1,0,0.2,0.1,0.2,0.2v0.5c0.3-0.4,0.8-0.7,1.5-0.7H253z"/>
				<path fill="#FAFBFC" d="M263.3,282.9v7.4c0,0.4-0.3,0.7-0.7,0.7h-0.2h-1h-4c-1.8,0-3.3-1.5-3.3-3.3V287c0-1.8,1.5-3.3,3.3-3.3
					h3.8c0.1,0,0.2-0.1,0.2-0.2v-0.6c0-0.7-0.5-1.3-1.3-1.3h-4.5c-0.1,0-0.2-0.1-0.2-0.2v-1.6h4.7
					C261.9,279.8,263.3,280.9,263.3,282.9z M257.4,289.1h3.8c0.1,0,0.2-0.1,0.2-0.2v-3.6c-0.1,0.2-0.3,0.3-0.6,0.3h-3.5
					c-0.7,0-1.3,0.6-1.3,1.3v0.8C256,288.5,256.6,289.1,257.4,289.1z"/>
			</g>
		</g>
		<path fill="#58ABDC" stroke="#FAFBFC" stroke-width="2" stroke-miterlimit="10" d="M351.6,420.9H190.4
			c-16.7,0-30.2-13.5-30.2-30.2v0c0-16.7,13.5-30.2,30.2-30.2h161.1c16.7,0,30.2,13.5,30.2,30.2v0
			C381.8,407.4,368.3,420.9,351.6,420.9z"/>
		<g>
			<g>
				<path fill="#FAFBFC" d="M206.4,377.2v2.2c0,2.1-1.7,3.8-3.8,3.8h-4.9c-0.7,0-1.3-0.4-1.3-0.9v7.6c0,0.2-0.1,0.3-0.3,0.3h-1.8
					v-15.6c0-0.7,0.6-1.3,1.3-1.3h7C204.7,373.3,206.4,375.1,206.4,377.2z M204.3,377c0-0.9-0.8-1.7-1.7-1.7h-5.8
					c-0.2,0-0.4,0.2-0.4,0.4v5.1c0,0.2,0.2,0.4,0.4,0.4c0,0,0,0,0,0h5.8c0.9,0,1.7-0.8,1.7-1.7V377z"/>
				<path fill="#FAFBFC" d="M217.3,382.1v7.4c0,0.4-0.3,0.7-0.7,0.7h-0.2h-1h-4c-1.8,0-3.3-1.5-3.3-3.3v-0.7c0-1.8,1.5-3.3,3.3-3.3
					h3.8c0.1,0,0.2-0.1,0.2-0.2v-0.6c0-0.7-0.5-1.3-1.3-1.3h-4.5c-0.1,0-0.2-0.1-0.2-0.2V379h4.7C215.8,379,217.3,380.1,217.3,382.1
					z M211.3,388.3h3.8c0.1,0,0.2-0.1,0.2-0.2v-3.6c-0.1,0.2-0.3,0.3-0.6,0.3h-3.5c-0.7,0-1.3,0.6-1.3,1.3v0.8
					C210,387.7,210.6,388.3,211.3,388.3z"/>
				<path fill="#FAFBFC" d="M229.5,382.3v8h-1.7c-0.1,0-0.2-0.1-0.2-0.2v-7.8c0-0.7-0.6-1.3-1.3-1.3h-4.1c-0.1,0-0.2,0.1-0.2,0.2
					v8.9c0,0.1-0.1,0.2-0.2,0.2H220v-9.8c0-0.8,0.7-1.5,1.5-1.5h4.8C228.1,379,229.5,380.4,229.5,382.3z"/>
				<path fill="#FAFBFC" d="M232.3,386.9v-4.8c0-2.1,1.5-3.2,3.3-3.2h3c1.8,0,3.3,1.1,3.3,3.2v2.6c0,0.4,0,0.7-0.6,0.7h-6.2
					c-0.4,0-0.7-0.2-0.9-0.4v2c0,0.7,0.6,1.3,1.3,1.3h5.6c0.1,0,0.2,0.1,0.2,0.2v1.6h-5.8C233.7,390.2,232.3,388.8,232.3,386.9z
					 M235.6,380.8c-0.7,0-1.3,0.4-1.3,1.3v1.2c0,0.1,0.1,0.2,0.2,0.2h5.2c0.1,0,0.2-0.1,0.2-0.2v-1.2c0-0.9-0.4-1.3-1.3-1.3H235.6z"
					/>
				<path fill="#FAFBFC" d="M246.5,373.6v16.6h-1.7c-0.1,0-0.2-0.1-0.2-0.2v-16.6h1.7C246.4,373.4,246.5,373.5,246.5,373.6z"/>
				<path fill="#FAFBFC" d="M267.3,390.2h-1.9c-0.2,0-0.3-0.1-0.4-0.2l-2.2-4.4h-2.7c-0.1,0-0.2,0.1-0.2,0.2v4.2
					c0,0.1-0.1,0.2-0.2,0.2h-1.7v-16.7h1.7c0.1,0,0.2,0.1,0.2,0.2v10.3c0.1-0.2,0.3-0.4,0.6-0.4h2.8c0.7,0,1.3-0.6,1.3-1.3v-3.1
					c0-0.1,0.1-0.2,0.2-0.2h1.7v3.3c0,1.2-0.7,2.3-1.7,2.9L267.3,390.2z"/>
				<path fill="#FAFBFC" d="M272.2,390.4c-1.8,0-3.3-1.5-3.3-3.3v-5c0-1.8,1.5-3.3,3.3-3.3h3c1.8,0,3.3,1.5,3.3,3.3v5
					c0,1.8-1.5,3.3-3.3,3.3H272.2z M270.9,382v5.2c0,0.7,0.6,1.3,1.3,1.3h3c0.7,0,1.3-0.6,1.3-1.3V382c0-0.7-0.6-1.3-1.3-1.3h-3
					C271.5,380.7,270.9,381.3,270.9,382z"/>
				<path fill="#FAFBFC" d="M290.7,382.3v8H289c-0.1,0-0.2-0.1-0.2-0.2v-7.8c0-0.7-0.6-1.3-1.3-1.3h-4.1c-0.1,0-0.2,0.1-0.2,0.2v8.9
					c0,0.1-0.1,0.2-0.2,0.2h-1.7v-9.8c0-0.8,0.7-1.5,1.5-1.5h4.8C289.3,379,290.7,380.4,290.7,382.3z"/>
				<path fill="#FAFBFC" d="M299.1,388.6v1.6h-2.3c-1.8,0-3.3-1.5-3.3-3.3v-13.4h1.7c0.1,0,0.2,0.1,0.2,0.2v5.6
					c0.1-0.2,0.4-0.4,0.7-0.4h2.4v1.6c0,0.1-0.1,0.2-0.2,0.2h-2.8v6.2c0,0.7,0.6,1.3,1.3,1.3h2C299,388.3,299.1,388.5,299.1,388.6z"
					/>
				<path fill="#FAFBFC" d="M307.2,379v1.6c0,0.1-0.1,0.2-0.2,0.2h-2.8c-0.6,0-1,0.5-1.1,1v8.4h-1.7c-0.1,0-0.2-0.1-0.2-0.2v-11h1.7
					c0.1,0,0.2,0.1,0.2,0.2v0.5c0.3-0.4,0.8-0.7,1.5-0.7H307.2z"/>
				<path fill="#FAFBFC" d="M312.3,390.4c-1.8,0-3.3-1.5-3.3-3.3v-5c0-1.8,1.5-3.3,3.3-3.3h3c1.8,0,3.3,1.5,3.3,3.3v5
					c0,1.8-1.5,3.3-3.3,3.3H312.3z M311,382v5.2c0,0.7,0.6,1.3,1.3,1.3h3c0.7,0,1.3-0.6,1.3-1.3V382c0-0.7-0.6-1.3-1.3-1.3h-3
					C311.5,380.7,311,381.3,311,382z"/>
				<path fill="#FAFBFC" d="M323.2,373.6v16.6h-1.7c-0.1,0-0.2-0.1-0.2-0.2v-16.6h1.7C323.1,373.4,323.2,373.5,323.2,373.6z"/>
				<path fill="#FAFBFC" d="M335.6,382.3v8h-1.7c-0.1,0-0.2-0.1-0.2-0.2v-7.8c0-0.7-0.6-1.3-1.3-1.3h-4.1c-0.1,0-0.2,0.1-0.2,0.2
					v8.9c0,0.1-0.1,0.2-0.2,0.2H326v-9.8c0-0.8,0.7-1.5,1.5-1.5h4.8C334.1,379,335.6,380.4,335.6,382.3z"/>
				<path fill="#FAFBFC" d="M347.4,379c0.1,0,0.2,0.1,0.2,0.2v13.2c0,1.8-1.5,3.3-3.3,3.3h-5.5v-1.6c0-0.1,0.1-0.2,0.2-0.2h5.3
					c0.7,0,1.3-0.6,1.3-1.3v-3c-0.3,0.4-0.8,0.7-1.6,0.7h-2.5c-1.8,0-3.3-1.5-3.3-3.3v-8h1.7c0.1,0,0.2,0.1,0.2,0.2v7.8
					c0,0.7,0.6,1.3,1.3,1.3h3c0.6-0.1,1.1-0.6,1.1-1.1V379H347.4z"/>
				<path fill="#FAFBFC" d="M223.7,403.4v-1.5c0-1.8,1.3-3,3.1-3h6.2v1.6c0,0.1-0.1,0.2-0.2,0.2h-5.9c-0.7,0-1.1,0.4-1.1,1.1v0.7
					c0,0.1,0.1,0.2,0.2,0.2l6.9,1.6c0.4,0.1,0.6,0.4,0.6,0.7v2c0,2-1.4,3-3.2,3h-6.4v-1.6c0-0.1,0.1-0.2,0.2-0.2h6.1
					c0.7,0,1.4-0.4,1.4-1.2v-1.1c0-0.1-0.1-0.2-0.2-0.2l-7.1-1.7C223.9,404.1,223.7,403.8,223.7,403.4z"/>
				<path fill="#FAFBFC" d="M245.5,410.2h-1.9c-0.2,0-0.3-0.1-0.4-0.2l-2.2-4.4h-2.7c-0.1,0-0.2,0.1-0.2,0.2v4.2
					c0,0.1-0.1,0.2-0.2,0.2h-1.7v-16.7h1.7c0.1,0,0.2,0.1,0.2,0.2v10.3c0.1-0.2,0.3-0.4,0.6-0.4h2.8c0.7,0,1.3-0.6,1.3-1.3v-3.1
					c0-0.1,0.1-0.2,0.2-0.2h1.7v3.3c0,1.2-0.7,2.3-1.7,2.9L245.5,410.2z"/>
				<path fill="#FAFBFC" d="M256,402.1v7.4c0,0.4-0.3,0.7-0.7,0.7h-0.2h-1h-4c-1.8,0-3.3-1.5-3.3-3.3v-0.7c0-1.8,1.5-3.3,3.3-3.3
					h3.8c0.1,0,0.2-0.1,0.2-0.2v-0.6c0-0.7-0.5-1.3-1.3-1.3h-4.5c-0.1,0-0.2-0.1-0.2-0.2V399h4.7C254.6,399,256,400.1,256,402.1z
					 M250.1,408.3h3.8c0.1,0,0.2-0.1,0.2-0.2v-3.6c-0.1,0.2-0.3,0.3-0.6,0.3h-3.5c-0.7,0-1.3,0.6-1.3,1.3v0.8
					C248.7,407.7,249.3,408.3,250.1,408.3z"/>
				<path fill="#FAFBFC" d="M264.3,393.3v1.6c0,0.1-0.1,0.2-0.2,0.2h-2c-0.7,0-1.3,0.6-1.3,1.3v2.9c0.1-0.2,0.3-0.3,0.6-0.3h2.2v1.6
					c0,0.1-0.1,0.2-0.2,0.2h-2.6v9.1c0,0.1-0.1,0.2-0.2,0.2h-1.7v-13.6c0-1.8,1.5-3.3,3.3-3.3H264.3z"/>
				<path fill="#FAFBFC" d="M274.7,402.1v7.4c0,0.4-0.3,0.7-0.7,0.7h-0.2h-1h-4c-1.8,0-3.3-1.5-3.3-3.3v-0.7c0-1.8,1.5-3.3,3.3-3.3
					h3.8c0.1,0,0.2-0.1,0.2-0.2v-0.6c0-0.7-0.5-1.3-1.3-1.3H267c-0.1,0-0.2-0.1-0.2-0.2V399h4.7C273.3,399,274.7,400.1,274.7,402.1z
					 M268.8,408.3h3.8c0.1,0,0.2-0.1,0.2-0.2v-3.6c-0.1,0.2-0.3,0.3-0.6,0.3h-3.5c-0.7,0-1.3,0.6-1.3,1.3v0.8
					C267.4,407.7,268,408.3,268.8,408.3z"/>
				<path fill="#FAFBFC" d="M287,402.3v8h-1.7c-0.1,0-0.2-0.1-0.2-0.2v-7.8c0-0.7-0.6-1.3-1.3-1.3h-4.1c-0.1,0-0.2,0.1-0.2,0.2v8.9
					c0,0.1-0.1,0.2-0.2,0.2h-1.7v-9.8c0-0.8,0.7-1.5,1.5-1.5h4.8C285.5,399,287,400.4,287,402.3z"/>
				<path fill="#FAFBFC" d="M292.8,399h2.6c0.7,0,1.3,0.3,1.6,0.7v-6.1c0-0.1,0.1-0.2,0.2-0.2h1.7v16.1c0,0.4-0.3,0.7-0.7,0.7h-5.3
					c-1.8,0-3.3-1.5-3.3-3.3v-4.7C289.5,400.4,291,399,292.8,399z M291.5,407c0,0.7,0.6,1.3,1.3,1.3h3.9c0.1,0,0.2-0.1,0.2-0.2V402
					c0-0.6-0.5-1.1-1.1-1.1h-3c-0.7,0-1.3,0.6-1.3,1.3V407z"/>
				<path fill="#FAFBFC" d="M307.7,399v1.6c0,0.1-0.1,0.2-0.2,0.2h-2.8c-0.6,0-1,0.5-1.1,1v8.4h-1.7c-0.1,0-0.2-0.1-0.2-0.2v-11h1.7
					c0.1,0,0.2,0.1,0.2,0.2v0.5c0.3-0.4,0.8-0.7,1.5-0.7H307.7z"/>
				<path fill="#FAFBFC" d="M318,402.1v7.4c0,0.4-0.3,0.7-0.7,0.7h-0.2h-1h-4c-1.8,0-3.3-1.5-3.3-3.3v-0.7c0-1.8,1.5-3.3,3.3-3.3
					h3.8c0.1,0,0.2-0.1,0.2-0.2v-0.6c0-0.7-0.5-1.3-1.3-1.3h-4.5c-0.1,0-0.2-0.1-0.2-0.2V399h4.7C316.6,399,318,400.1,318,402.1z
					 M312.1,408.3h3.8c0.1,0,0.2-0.1,0.2-0.2v-3.6c-0.1,0.2-0.3,0.3-0.6,0.3h-3.5c-0.7,0-1.3,0.6-1.3,1.3v0.8
					C310.7,407.7,311.3,408.3,312.1,408.3z"/>
			</g>
		</g>
		
			<line fill="#58ABDC" stroke="#58ABDC" stroke-width="3" stroke-linecap="round" stroke-linejoin="round" stroke-miterlimit="10" x1="722" y1="596.1" x2="653.7" y2="624.1"/>
		<path fill="#58ABDC" stroke="#FAFBFC" stroke-width="2" stroke-miterlimit="10" d="M806.8,591.3H672.3
			c-18.1,0-32.7-14.6-32.7-32.7v0c0-18.1,14.6-32.7,32.7-32.7h134.5c18.1,0,32.7,14.6,32.7,32.7v0
			C839.5,576.6,824.8,591.3,806.8,591.3z"/>
		<g>
			<g>
				<path fill="#FAFBFC" d="M681.6,556.6v-14.3c0-0.7,0.6-1.3,1.3-1.3h7.2c2.1,0,3.8,1.7,3.8,3.8v9.2c0,2.1-1.7,3.8-3.8,3.8h-7.2
					C682.2,557.9,681.6,557.3,681.6,556.6z M690.1,556c0.9,0,1.7-0.8,1.7-1.7v-9.6c0-0.9-0.8-1.7-1.7-1.7h-6c-0.2,0-0.4,0.2-0.4,0.4
					v12.2c0,0.2,0.2,0.4,0.4,0.4H690.1z"/>
				<path fill="#FAFBFC" d="M699.8,558.1c-1.8,0-3.3-1.5-3.3-3.3v-5c0-1.8,1.5-3.3,3.3-3.3h3c1.8,0,3.3,1.5,3.3,3.3v5
					c0,1.8-1.5,3.3-3.3,3.3H699.8z M698.5,549.7v5.2c0,0.7,0.6,1.3,1.3,1.3h3c0.7,0,1.3-0.6,1.3-1.3v-5.2c0-0.7-0.6-1.3-1.3-1.3h-3
					C699.1,548.4,698.5,549,698.5,549.7z"/>
				<path fill="#FAFBFC" d="M710.8,541.3v16.6h-1.7c-0.1,0-0.2-0.1-0.2-0.2v-16.6h1.7C710.7,541.1,710.8,541.2,710.8,541.3z"/>
				<path fill="#FAFBFC" d="M723.2,550v8h-1.7c-0.1,0-0.2-0.1-0.2-0.2v-7.8c0-0.7-0.6-1.3-1.3-1.3h-4.1c-0.1,0-0.2,0.1-0.2,0.2v8.9
					c0,0.1-0.1,0.2-0.2,0.2h-1.7v-9.8c0-0.8,0.7-1.5,1.5-1.5h4.8C721.7,546.7,723.2,548.1,723.2,550z"/>
				<path fill="#FAFBFC" d="M734.7,549.8v7.4c0,0.4-0.3,0.7-0.7,0.7h-0.2h-1h-4c-1.8,0-3.3-1.5-3.3-3.3v-0.7c0-1.8,1.5-3.3,3.3-3.3
					h3.8c0.1,0,0.2-0.1,0.2-0.2v-0.6c0-0.7-0.5-1.3-1.3-1.3H727c-0.1,0-0.2-0.1-0.2-0.2v-1.6h4.7
					C733.3,546.7,734.7,547.8,734.7,549.8z M728.8,556h3.8c0.1,0,0.2-0.1,0.2-0.2v-3.6c-0.1,0.2-0.3,0.3-0.6,0.3h-3.5
					c-0.7,0-1.3,0.6-1.3,1.3v0.8C727.4,555.4,728,556,728.8,556z"/>
				<path fill="#FAFBFC" d="M747.7,549.9v4.8c0,0.7,0.6,1.3,1.3,1.3h4c0.1,0,0.2,0.1,0.2,0.2v1.6H749c-1.8,0-3.3-1.5-3.3-3.3V550
					c0-1.8,1.5-3.3,3.3-3.3h4.2v1.6c0,0.1-0.1,0.2-0.2,0.2h-4C748.3,548.5,747.7,549.2,747.7,549.9z"/>
				<path fill="#FAFBFC" d="M764.1,557.7c0,0.1-0.1,0.2-0.2,0.2h-8.5c-0.1,0-0.2-0.1-0.2-0.2v-0.9c0-0.4,0.2-0.8,0.4-1.1l6.1-6.9
					c0,0,0-0.1,0-0.1c0-0.1-0.1-0.2-0.2-0.2h-5.8v-1.6c0-0.1,0.1-0.2,0.2-0.2h7.8c0.1,0,0.2,0.1,0.2,0.2v1.3c0,0.4-0.2,0.8-0.4,1.1
					l-5.8,6.6c-0.1,0.1-0.1,0.2,0,0.2c0,0,0.1,0,0.1,0h6.2V557.7z"/>
				<path fill="#FAFBFC" d="M766.2,554.6v-4.8c0-2.1,1.5-3.2,3.3-3.2h3c1.8,0,3.3,1.1,3.3,3.2v2.6c0,0.4,0,0.7-0.6,0.7H769
					c-0.4,0-0.7-0.2-0.9-0.4v2c0,0.7,0.6,1.3,1.3,1.3h5.6c0.1,0,0.2,0.1,0.2,0.2v1.6h-0.9l-1.7,1.5v0.7c0,0.1,0.1,0.2,0.2,0.2h1.6
					c0.2,0,0.4,0.2,0.4,0.4v0.8h-2.2c-0.7,0-1.3-0.6-1.3-1.3v-1.1l1.5-1.2h-3.5C767.6,557.9,766.2,556.5,766.2,554.6z M769.4,548.5
					c-0.7,0-1.3,0.4-1.3,1.3v1.2c0,0.1,0.1,0.2,0.2,0.2h5.2c0.1,0,0.2-0.1,0.2-0.2v-1.2c0-0.9-0.4-1.3-1.3-1.3H769.4z"/>
				<path fill="#FAFBFC" d="M778.6,551.9c-0.4-0.1-0.6-0.4-0.6-0.7v-1.5c0-1.8,1.3-3,3.1-3h6.2v1.6c0,0.1-0.1,0.2-0.2,0.2h-5.9
					c-0.7,0-1.1,0.4-1.1,1.1v0.7c0,0.1,0.1,0.2,0.2,0.2l6.9,1.6c0.4,0.1,0.6,0.4,0.6,0.7v2c0,2-1.4,3-3.2,3h-6.4v-1.6
					c0-0.1,0.1-0.2,0.2-0.2h6.1c0.7,0,1.4-0.4,1.4-1.2v-1.1c0-0.1-0.1-0.2-0.2-0.2L778.6,551.9z M783.7,544.4l1.1-2.6h-1.5
					c-0.2,0-0.3,0.1-0.4,0.2l-1.1,2.6h1.5C783.5,544.7,783.6,544.5,783.7,544.4z"/>
				<path fill="#FAFBFC" d="M792.1,549.9v4.8c0,0.7,0.6,1.3,1.3,1.3h4c0.1,0,0.2,0.1,0.2,0.2v1.6h-4.2c-1.8,0-3.3-1.5-3.3-3.3V550
					c0-1.8,1.5-3.3,3.3-3.3h4.2v1.6c0,0.1-0.1,0.2-0.2,0.2h-4C792.7,548.5,792.1,549.2,792.1,549.9z M795,544.7h-1.5l1.2-2.3
					c0-0.1,0.2-0.2,0.4-0.2h1.5l-1.2,2.3C795.4,544.6,795.1,544.7,795,544.7z"/>
				<path fill="#FAFBFC" d="M692.2,571.2v-1.5c0-1.8,1.3-3,3.1-3h6.2v1.6c0,0.1-0.1,0.2-0.2,0.2h-5.9c-0.7,0-1.1,0.4-1.1,1.1v0.7
					c0,0.1,0.1,0.2,0.2,0.2l6.9,1.6c0.4,0.1,0.6,0.4,0.6,0.7v2c0,2-1.4,3-3.2,3h-6.4v-1.6c0-0.1,0.1-0.2,0.2-0.2h6.1
					c0.7,0,1.4-0.4,1.4-1.2v-1.1c0-0.1-0.1-0.2-0.2-0.2l-7.1-1.7C692.5,571.8,692.2,571.5,692.2,571.2z"/>
				<path fill="#FAFBFC" d="M714.1,577.9h-1.9c-0.2,0-0.3-0.1-0.4-0.2l-2.2-4.4h-2.7c-0.1,0-0.2,0.1-0.2,0.2v4.2
					c0,0.1-0.1,0.2-0.2,0.2h-1.7v-16.7h1.7c0.1,0,0.2,0.1,0.2,0.2v10.3c0.1-0.2,0.3-0.4,0.6-0.4h2.8c0.7,0,1.3-0.6,1.3-1.3v-3.1
					c0-0.1,0.1-0.2,0.2-0.2h1.7v3.3c0,1.2-0.7,2.3-1.7,2.9L714.1,577.9z"/>
				<path fill="#FAFBFC" d="M724.6,569.8v7.4c0,0.4-0.3,0.7-0.7,0.7h-0.2h-1h-4c-1.8,0-3.3-1.5-3.3-3.3v-0.7c0-1.8,1.5-3.3,3.3-3.3
					h3.8c0.1,0,0.2-0.1,0.2-0.2v-0.6c0-0.7-0.5-1.3-1.3-1.3h-4.5c-0.1,0-0.2-0.1-0.2-0.2v-1.6h4.7
					C723.1,566.7,724.6,567.8,724.6,569.8z M718.6,576h3.8c0.1,0,0.2-0.1,0.2-0.2v-3.6c-0.1,0.2-0.3,0.3-0.6,0.3h-3.5
					c-0.7,0-1.3,0.6-1.3,1.3v0.8C717.3,575.4,717.8,576,718.6,576z"/>
				<path fill="#FAFBFC" d="M732.8,561v1.6c0,0.1-0.1,0.2-0.2,0.2h-2c-0.7,0-1.3,0.6-1.3,1.3v2.9c0.1-0.2,0.3-0.3,0.6-0.3h2.2v1.6
					c0,0.1-0.1,0.2-0.2,0.2h-2.6v9.1c0,0.1-0.1,0.2-0.2,0.2h-1.7v-13.6c0-1.8,1.5-3.3,3.3-3.3H732.8z"/>
				<path fill="#FAFBFC" d="M743.3,569.8v7.4c0,0.4-0.3,0.7-0.7,0.7h-0.2h-1h-4c-1.8,0-3.3-1.5-3.3-3.3v-0.7c0-1.8,1.5-3.3,3.3-3.3
					h3.8c0.1,0,0.2-0.1,0.2-0.2v-0.6c0-0.7-0.5-1.3-1.3-1.3h-4.5c-0.1,0-0.2-0.1-0.2-0.2v-1.6h4.7
					C741.8,566.7,743.3,567.8,743.3,569.8z M737.3,576h3.8c0.1,0,0.2-0.1,0.2-0.2v-3.6c-0.1,0.2-0.3,0.3-0.6,0.3h-3.5
					c-0.7,0-1.3,0.6-1.3,1.3v0.8C736,575.4,736.5,576,737.3,576z"/>
				<path fill="#FAFBFC" d="M755.5,570v8h-1.7c-0.1,0-0.2-0.1-0.2-0.2v-7.8c0-0.7-0.6-1.3-1.3-1.3h-4.1c-0.1,0-0.2,0.1-0.2,0.2v8.9
					c0,0.1-0.1,0.2-0.2,0.2h-1.7v-9.8c0-0.8,0.7-1.5,1.5-1.5h4.8C754,566.7,755.5,568.1,755.5,570z"/>
				<path fill="#FAFBFC" d="M761.3,566.7h2.6c0.7,0,1.3,0.3,1.6,0.7v-6.1c0-0.1,0.1-0.2,0.2-0.2h1.7v16.1c0,0.4-0.3,0.7-0.7,0.7
					h-5.3c-1.8,0-3.3-1.5-3.3-3.3V570C758.1,568.1,759.5,566.7,761.3,566.7z M760,574.7c0,0.7,0.6,1.3,1.3,1.3h3.9
					c0.1,0,0.2-0.1,0.2-0.2v-6.1c0-0.6-0.5-1.1-1.1-1.1h-3c-0.7,0-1.3,0.6-1.3,1.3V574.7z"/>
				<path fill="#FAFBFC" d="M776.2,566.7v1.6c0,0.1-0.1,0.2-0.2,0.2h-2.8c-0.6,0-1,0.5-1.1,1v8.4h-1.7c-0.1,0-0.2-0.1-0.2-0.2v-11
					h1.7c0.1,0,0.2,0.1,0.2,0.2v0.5c0.3-0.4,0.8-0.7,1.5-0.7H776.2z"/>
				<path fill="#FAFBFC" d="M786.6,569.8v7.4c0,0.4-0.3,0.7-0.7,0.7h-0.2h-1h-4c-1.8,0-3.3-1.5-3.3-3.3v-0.7c0-1.8,1.5-3.3,3.3-3.3
					h3.8c0.1,0,0.2-0.1,0.2-0.2v-0.6c0-0.7-0.5-1.3-1.3-1.3h-4.5c-0.1,0-0.2-0.1-0.2-0.2v-1.6h4.7
					C785.1,566.7,786.6,567.8,786.6,569.8z M780.6,576h3.8c0.1,0,0.2-0.1,0.2-0.2v-3.6c-0.1,0.2-0.3,0.3-0.6,0.3h-3.5
					c-0.7,0-1.3,0.6-1.3,1.3v0.8C779.3,575.4,779.8,576,780.6,576z"/>
			</g>
		</g>
		<path fill="#58ABDC" stroke="#FAFBFC" stroke-width="2" stroke-miterlimit="10" d="M461.8,640.6H308.7
			c-17.5,0-31.6-14.2-31.6-31.6v0c0-17.5,14.2-31.6,31.6-31.6h153.1c17.5,0,31.6,14.2,31.6,31.6v0
			C493.4,626.5,479.2,640.6,461.8,640.6z"/>
		<g>
			<g>
				<path fill="#FAFBFC" d="M302.3,615v-14.3c0-0.7,0.6-1.3,1.3-1.3h0.4h6.8c2.1,0,3.8,1.7,3.8,3.8v1.7c0,1.1-0.9,2.5-2.1,2.8
					c1.2,0.3,2.1,1.7,2.1,2.8v2c0,2.1-1.7,3.8-3.8,3.8h-7.1C302.9,616.3,302.3,615.7,302.3,615z M304.4,606.8h6.3
					c0.9,0,1.7-0.8,1.7-1.7v-2c0-0.9-0.8-1.7-1.7-1.7h-5.9c-0.2,0-0.4,0.2-0.4,0.4V606.8z M312.5,610.4c0-0.9-0.8-1.7-1.7-1.7h-6.3
					v5.3c0,0.2,0.2,0.4,0.4,0.4h5.9c0.9,0,1.7-0.8,1.7-1.7V610.4z"/>
				<path fill="#FAFBFC" d="M318.8,605.1c0.1,0,0.2,0.1,0.2,0.2v7.8c0,0.7,0.6,1.3,1.3,1.3h3c0.7,0,1.3-0.6,1.3-1.3v-7.8
					c0-0.1,0.1-0.2,0.2-0.2h1.7v8c0,1.8-1.5,3.3-3.3,3.3h-3c-1.8,0-3.3-1.5-3.3-3.3v-8H318.8z"/>
				<path fill="#FAFBFC" d="M335,614.7v1.6h-2.3c-1.8,0-3.3-1.5-3.3-3.3v-13.4h1.7c0.1,0,0.2,0.1,0.2,0.2v5.6
					c0.1-0.2,0.4-0.4,0.7-0.4h2.4v1.6c0,0.1-0.1,0.2-0.2,0.2h-2.8v6.2c0,0.7,0.6,1.3,1.3,1.3h2C334.9,614.4,335,614.6,335,614.7z"/>
				<path fill="#FAFBFC" d="M346,605.1c0.1,0,0.2,0.1,0.2,0.2v13.2c0,1.8-1.5,3.3-3.3,3.3h-5.5v-1.6c0-0.1,0.1-0.2,0.2-0.2h5.3
					c0.7,0,1.3-0.6,1.3-1.3v-3c-0.3,0.4-0.8,0.7-1.6,0.7h-2.5c-1.8,0-3.3-1.5-3.3-3.3v-8h1.7c0.1,0,0.2,0.1,0.2,0.2v7.8
					c0,0.7,0.6,1.3,1.3,1.3h3c0.6-0.1,1.1-0.6,1.1-1.1v-8.2H346z"/>
				<path fill="#FAFBFC" d="M367,616.3H365c-0.2,0-0.3-0.1-0.4-0.2l-2.2-4.4h-2.7c-0.1,0-0.2,0.1-0.2,0.2v4.2c0,0.1-0.1,0.2-0.2,0.2
					h-1.7v-16.7h1.7c0.1,0,0.2,0.1,0.2,0.2v10.3c0.1-0.2,0.3-0.4,0.6-0.4h2.8c0.7,0,1.3-0.6,1.3-1.3v-3.1c0-0.1,0.1-0.2,0.2-0.2h1.7
					v3.3c0,1.2-0.7,2.3-1.7,2.9L367,616.3z"/>
				<path fill="#FAFBFC" d="M368.3,609.5V608c0-1.8,1.3-3,3.1-3h6.2v1.6c0,0.1-0.1,0.2-0.2,0.2h-5.9c-0.7,0-1.1,0.4-1.1,1.1v0.7
					c0,0.1,0.1,0.2,0.2,0.2l6.9,1.6c0.4,0.1,0.6,0.4,0.6,0.7v2c0,2-1.4,3-3.2,3h-6.4v-1.6c0-0.1,0.1-0.2,0.2-0.2h6.1
					c0.7,0,1.4-0.4,1.4-1.2v-1.1c0-0.1-0.1-0.2-0.2-0.2l-7.1-1.7C368.6,610.2,368.3,609.9,368.3,609.5z"/>
				<path fill="#FAFBFC" d="M382.8,600.3v1.8h-1.7c-0.1,0-0.2-0.1-0.2-0.2V600h1.7C382.7,600,382.8,600.2,382.8,600.3z M382.8,605.3
					v11h-1.7c-0.1,0-0.2-0.1-0.2-0.2v-11h1.7C382.7,605.1,382.8,605.2,382.8,605.3z"/>
				<path fill="#FAFBFC" d="M385.6,613v-4.8c0-2.1,1.5-3.2,3.3-3.2h3c1.8,0,3.3,1.1,3.3,3.2v2.6c0,0.4,0,0.7-0.6,0.7h-6.2
					c-0.4,0-0.7-0.2-0.9-0.4v2c0,0.7,0.6,1.3,1.3,1.3h5.6c0.1,0,0.2,0.1,0.2,0.2v1.6h-0.9l-1.7,1.5v0.7c0,0.1,0.1,0.2,0.2,0.2h1.6
					c0.2,0,0.4,0.2,0.4,0.4v0.8h-2.2c-0.7,0-1.3-0.6-1.3-1.3v-1.1l1.5-1.2h-3.5C387.1,616.3,385.6,614.9,385.6,613z M388.9,606.9
					c-0.7,0-1.3,0.4-1.3,1.3v1.2c0,0.1,0.1,0.2,0.2,0.2h5.2c0.1,0,0.2-0.1,0.2-0.2v-1.2c0-0.9-0.4-1.3-1.3-1.3H388.9z"/>
				<path fill="#FAFBFC" d="M406.2,616.1c0,0.1-0.1,0.2-0.2,0.2h-8.6c-0.1,0-0.2-0.1-0.2-0.2v-0.9c0-0.4,0.2-0.8,0.4-1.1l6-6.9
					c0,0,0-0.1,0-0.1c0-0.1-0.1-0.2-0.2-0.2h-6.3v-1.6c0-0.1,0.1-0.2,0.2-0.2h8.3c0.1,0,0.2,0.1,0.2,0.2v1.2c0,0.4-0.2,0.8-0.4,1.1
					l-5.7,6.5c-0.1,0.1-0.1,0.2,0,0.2c0,0,0.1,0,0.1,0h6.3V616.1z M400.7,602.2v-1.6h1.6c0.2,0,0.4,0.2,0.4,0.4v1.6h-1.6
					C400.9,602.6,400.7,602.4,400.7,602.2z"/>
				<path fill="#FAFBFC" d="M417.3,605.1c0.1,0,0.2,0.1,0.2,0.2v13.2c0,1.8-1.5,3.3-3.3,3.3h-5.5v-1.6c0-0.1,0.1-0.2,0.2-0.2h5.3
					c0.7,0,1.3-0.6,1.3-1.3v-3c-0.3,0.4-0.8,0.7-1.6,0.7h-2.5c-1.8,0-3.3-1.5-3.3-3.3v-8h1.7c0.1,0,0.2,0.1,0.2,0.2v7.8
					c0,0.7,0.6,1.3,1.3,1.3h3c0.6-0.1,1.1-0.6,1.1-1.1v-8.2H417.3z"/>
				<path fill="#FAFBFC" d="M422.1,608.3v4.8c0,0.7,0.6,1.3,1.3,1.3h4c0.1,0,0.2,0.1,0.2,0.2v1.6h-4.2c-1.8,0-3.3-1.5-3.3-3.3v-4.7
					c0-1.8,1.5-3.3,3.3-3.3h4.2v1.6c0,0.1-0.1,0.2-0.2,0.2h-4C422.6,606.9,422.1,607.5,422.1,608.3z"/>
				<path fill="#FAFBFC" d="M433.4,616.5c-1.8,0-3.3-1.5-3.3-3.3v-5c0-1.8,1.5-3.3,3.3-3.3h3c1.8,0,3.3,1.5,3.3,3.3v5
					c0,1.8-1.5,3.3-3.3,3.3H433.4z M432.1,608.1v5.2c0,0.7,0.6,1.3,1.3,1.3h3c0.7,0,1.3-0.6,1.3-1.3v-5.2c0-0.7-0.6-1.3-1.3-1.3h-3
					C432.6,606.8,432.1,607.4,432.1,608.1z"/>
				<path fill="#FAFBFC" d="M455.9,605.1v9.8c0,0.8-0.7,1.5-1.5,1.5h-8.8c-1.8,0-3.3-1.5-3.3-3.3v-8h1.7c0.1,0,0.2,0.1,0.2,0.2v7.8
					c0,0.7,0.6,1.3,1.3,1.3h2.9c-0.2-0.1-0.4-0.4-0.4-0.6v-8.7h1.7c0.1,0,0.2,0.1,0.2,0.2v8.9c0,0.1,0.1,0.2,0.2,0.2h3.4
					c0.1,0,0.2-0.1,0.2-0.2v0v-8.9c0-0.1,0.1-0.2,0.2-0.2H455.9z"/>
				<path fill="#FAFBFC" d="M458.6,613v-4.8c0-2.1,1.5-3.2,3.3-3.2h3c1.8,0,3.3,1.1,3.3,3.2v2.6c0,0.4,0,0.7-0.6,0.7h-6.2
					c-0.4,0-0.7-0.2-0.9-0.4v2c0,0.7,0.6,1.3,1.3,1.3h5.6c0.1,0,0.2,0.1,0.2,0.2v1.6h-5.8C460.1,616.3,458.6,614.9,458.6,613z
					 M461.9,606.9c-0.7,0-1.3,0.4-1.3,1.3v1.2c0,0.1,0.1,0.2,0.2,0.2h5.2c0.1,0,0.2-0.1,0.2-0.2v-1.2c0-0.9-0.4-1.3-1.3-1.3H461.9z"
					/>
			</g>
		</g>
		<line fill="none" x1="503" y1="344.6" x2="391.4" y2="390.7"/>
	</g>
</g>
</svg>
