<?xml version="1.0" encoding="utf-8"?>
<!-- Generator: Adobe Illustrator 22.0.1, SVG Export Plug-In . SVG Version: 6.00 Build 0)  -->
<svg version="1.1" xmlns="http://www.w3.org/2000/svg" xmlns:xlink="http://www.w3.org/1999/xlink" x="0px" y="0px" width="316.8px"
	 height="316.8px" viewBox="0 0 316.8 316.8" enable-background="new 0 0 316.8 316.8" xml:space="preserve">
<g id="Layer_1">
</g>
<g id="Layer_6">
</g>
<g id="Astrosuit-boots">
</g>
<g id="Astrosuit-trousers">
</g>
<g id="Astrosuit-gloves">
</g>
<g id="Astrosuit-jacket">
</g>
<g id="BOY-Body-head">
</g>
<g id="Asset-body-tshirt">
</g>
<g id="Isolation_Mode">
	<g opacity="0.3">
		<circle fill="#CD66A4" cx="158.4" cy="158.4" r="158.4"/>
	</g>
	<g>
		<circle fill="#CD66A4" cx="158.4" cy="158.4" r="143.1"/>
	</g>
	<g>
		<linearGradient id="SVGID_1_" gradientUnits="userSpaceOnUse" x1="83.4368" y1="147.4596" x2="239.7942" y2="147.4596">
			<stop  offset="0" style="stop-color:#7F5A41"/>
			<stop  offset="0.4249" style="stop-color:#7B573F"/>
			<stop  offset="0.8631" style="stop-color:#6E4C39"/>
			<stop  offset="1" style="stop-color:#694837"/>
		</linearGradient>
		<path fill="url(#SVGID_1_)" d="M86.1,233.9c20.1,10.8,81.6,19.8,149.1,0c3.9-1.1,7.4-7.4,1.4-10.2c-7.4-3.5-8-15-4.9-27.6
			c0,0,6.3-35.5,4.3-80.5C235,96,225.5,77.2,210.2,65.1c-12-9.6-27.1-15-42.3-15.6c-17.6-0.7-36.3,4.2-51,13.9
			c-17.3,11.3-25.7,30.2-29.7,50.1c-10.3,51.5,7.2,85.8,7.2,85.8s8.3,19.6-7.4,25.2C82.8,225.8,82.1,231.8,86.1,233.9z"/>
		
			<ellipse transform="matrix(0.1852 -0.9827 0.9827 0.1852 33.7042 348.5926)" fill="#F1CDB6" cx="227.1" cy="154" rx="21.2" ry="15.5"/>
		
			<ellipse transform="matrix(0.9827 -0.1852 0.1852 0.9827 -26.8372 20.5919)" fill="#F1CDB6" cx="96.8" cy="154" rx="15.5" ry="21.2"/>
		<linearGradient id="SVGID_2_" gradientUnits="userSpaceOnUse" x1="162.7397" y1="64.0002" x2="162.7397" y2="230.9621">
			<stop  offset="0" style="stop-color:#EBBA9E"/>
			<stop  offset="1.724315e-02" style="stop-color:#EBBB9F"/>
			<stop  offset="0.2419" style="stop-color:#EFC6AD"/>
			<stop  offset="0.5186" style="stop-color:#F0CCB6"/>
			<stop  offset="1" style="stop-color:#F1CEB8"/>
		</linearGradient>
		<path fill="url(#SVGID_2_)" d="M233.5,147.5c0-46.1-31.7-83.5-70.8-83.5S92,101.4,92,147.5s41.9,84.2,70.8,83.5
			C192.1,231,233.5,193.6,233.5,147.5z"/>
		<path fill="#423129" d="M151.5,129.9c-11-2.7-21.8-3.3-32.4-0.6c0,0,3.9-6.3,15.2-6.8S151.5,129.9,151.5,129.9z"/>
		<path fill="#423129" d="M174.9,128.7c11-2.7,21.8-3.3,32.4-0.6c0,0-3.9-6.3-15.2-6.8S174.9,128.7,174.9,128.7z"/>
		<path fill="#F4AC84" d="M171.1,166.9c-5.7,3.1-11.3,3.2-16.8,0C154.3,166.9,161.9,183.3,171.1,166.9"/>
		<g id="GIRL-Mouth_1_">
			<path fill="#BB5058" d="M141.9,192.2c0,0,11.2-6.6,25.6-5.5c14.4,1.1,15.6,6.4,15.6,6.4L141.9,192.2z"/>
			<path fill="#BD4E54" d="M144,197.8c0,0,4.1,14.5,18.5,14.4c14.4-0.1,18.2-12.2,18.2-12.2L144,197.8z"/>
			<path fill="#7E1712" d="M181.2,190.7c2.9,0,4.8,3.1,3.3,5.7c-2,3.6-5.4,8-10.8,10.7c-2.4,1.2-5.2,2-8.4,2.2
				c-4.3,0.3-8.2-0.7-11.6-2.4c-5.3-2.7-9.4-7-12.1-10.5c-1.8-2.3-0.1-5.7,2.8-5.7H181.2z"/>
			<path fill="#FFFFFF" d="M144.2,190.7c0,0,0.4,3,5.9,3.4s25.6,0,25.6,0s3.3,0.2,4.9-3.4H144.2z"/>
			<path fill="#ED6B77" d="M173.7,207.1c-2.4,1.2-5.2,2-8.4,2.2c-4.3,0.3-8.2-0.7-11.6-2.4c0,0,10-7.2,19.7,0
				C173.5,206.9,173.6,207,173.7,207.1z"/>
		</g>
		<g>
			<path fill="#FFFFFF" d="M204.5,148.6c0,0-3.5,7.5-15.4,6.7c-9.2-0.6-12.7-6.8-12.7-6.8s0.6-8,13.7-9.5
				C190.1,139.1,201,138.9,204.5,148.6z"/>
			<g>
				<path fill="#423129" d="M204.5,148.6c-1.8-2.5-3.9-4.6-6.3-5.8c-1.2-0.6-2.4-1.1-3.7-1.4c-0.6-0.2-1.3-0.2-2-0.3
					c-0.7,0-1.3-0.1-2-0.1c-2.7,0-5.4,0.5-7.9,1.7c-1.2,0.6-2.4,1.4-3.4,2.4c-1.1,1-2,2.1-2.8,3.4c0-1.6,0.6-3.1,1.3-4.6
					c0.8-1.4,1.9-2.7,3.3-3.7c2.7-2.1,6.1-3,9.4-3c3.3-0.1,6.8,1,9.5,3.1C202.5,142.4,204.2,145.5,204.5,148.6z"/>
			</g>
			
				<ellipse transform="matrix(6.549271e-02 -0.9979 0.9979 6.549271e-02 30.5572 328.1273)" fill="#724E3A" cx="190.5" cy="147.7" rx="6.2" ry="6.6"/>
			
				<ellipse transform="matrix(6.549271e-02 -0.9979 0.9979 6.549271e-02 31.0007 325.5702)" opacity="0.7" fill="#FFFFFF" cx="189.3" cy="146.2" rx="2.1" ry="1.9"/>
		</g>
		<g>
			<path fill="#FFFFFF" d="M121,148.6c0,0,3.5,7.5,15.4,6.7c9.2-0.6,12.7-6.8,12.7-6.8s-0.6-8-13.7-9.5
				C135.4,139.1,124.5,138.9,121,148.6z"/>
			<g>
				<path fill="#423129" d="M121,148.6c0.3-3.1,2-6.2,4.6-8.3c2.6-2.1,6.1-3.2,9.5-3.1c3.3,0,6.8,0.9,9.4,3c1.3,1,2.4,2.3,3.3,3.7
					c0.8,1.4,1.4,3,1.3,4.6c-0.7-1.4-1.7-2.5-2.8-3.4c-1-1-2.2-1.8-3.4-2.4c-2.4-1.3-5.1-1.7-7.9-1.7c-0.7,0-1.4,0.1-2,0.1
					c-0.6,0.1-1.3,0.1-2,0.3c-1.3,0.2-2.5,0.8-3.7,1.4C124.9,144.1,122.8,146.1,121,148.6z"/>
			</g>
			
				<ellipse transform="matrix(0.9979 -6.549271e-02 6.549271e-02 0.9979 -9.3866 9.1598)" fill="#724E3A" cx="135" cy="147.7" rx="6.4" ry="6"/>
			
				<ellipse transform="matrix(0.9979 -6.549271e-02 6.549271e-02 0.9979 -9.2881 9.2292)" opacity="0.7" fill="#FFFFFF" cx="136.1" cy="146.3" rx="1.8" ry="2"/>
		</g>
		<linearGradient id="SVGID_3_" gradientUnits="userSpaceOnUse" x1="85.5562" y1="114.6692" x2="235.1443" y2="114.6692">
			<stop  offset="0" style="stop-color:#7F5A41"/>
			<stop  offset="0.4249" style="stop-color:#7B573F"/>
			<stop  offset="0.8631" style="stop-color:#6E4C39"/>
			<stop  offset="1" style="stop-color:#694837"/>
		</linearGradient>
		<path fill="url(#SVGID_3_)" d="M107.4,121.8l12.2-5.1c1.4-0.6,2.3-1.9,2.4-3.4l0.7-10.7c0-0.6,0.9-0.6,0.9,0l0.4,7
			c0.1,2.3,2.1,4.1,4.4,4.1l7.1-0.1c2.3,0,4.2-1.7,4.5-4l1.9-14.1c0.1-0.6,0.9-0.5,0.9,0l1.2,15c0.2,2.5,2.3,4.4,4.8,4.3l44.8-1.5
			c2.3-0.1,4.1-1.8,4.3-4.1l1.2-16.2c0-0.6,0.9-0.6,0.9,0l1.5,18.8c0.1,1.5,1,2.9,2.4,3.6l10.5,5.6c1.7,0.9,3.8,0.6,5.2-0.7l2.7-2.5
			c0.3-0.3,0.7-0.1,0.8,0.3c1,5.9,4.3,41.9,3.7,48.7c-0.7,7.2,7.6-32.4,8.3-35.2c0-0.1-8.5-37.3-8.5-37.3c-1.8-1.9-3-2.8-3.2-3
			L195,64.1c-0.1-0.1-0.2-0.1-0.3-0.1l-41-3.5c-0.2,0-1,0.7-1.2,0.7l-33.9,14.4c-0.1,0-4.4,1.1-4.5,1.2l-14,15.2
			c-0.1,0.1-1.1,3.3-1.2,3.4c-0.6,1.5-6.8,9.8-6.8,11.7c0,2-7.6,16.4-6.6,23.7c0.9,6.1,6.4,31.8,9,37.9c0.2,0.5,0.9,0.3,0.9-0.2
			c0.3-8.3,1.5-38.6,5-49c0.3-0.8,1.3-0.8,1.6-0.1l0.2,0.4C103.2,121.7,105.5,122.6,107.4,121.8z"/>
		<g>
			<path fill="#E2900E" d="M86.5,130.5c-0.1-4.7,0.4-9.5,1.4-14.1c1-4.7,2.4-9.3,4.2-13.7c3.7-9,9.2-17.4,16.3-24.5
				c7.2-7,15.9-12.6,25.4-16.2c4.7-1.8,9.6-3.2,14.5-4.1c4.9-1,9.9-1.5,14.8-1.7c9.8-0.5,20.1,0.5,29.9,3.7c2.5,0.8,4.9,1.8,7.2,2.9
				c2.4,1.1,4.7,2.3,6.8,3.7c4.4,2.8,8.4,6.1,11.9,9.9c7,7.6,11.7,16.7,14.4,26.1c1.3,4.7,2.2,9.4,2.6,14.2
				c0.4,4.8,0.4,9.5-0.3,14.2c0,0.3-0.3,0.5-0.6,0.4c-0.2,0-0.4-0.2-0.4-0.4l0,0c-2.2-8.9-5.4-17.5-9.5-25.2
				C221,98,215.8,91.2,209.6,86c-6.2-5.2-13.4-8.9-21.2-10.9c-3.9-1.1-7.9-1.7-12-2.1c-4.1-0.4-8.3-0.4-12.6-0.3
				c-8.5,0.3-16.9,1.5-24.8,4c-2,0.6-3.9,1.3-5.8,2.1c-1.9,0.7-3.8,1.6-5.6,2.6c-3.7,1.9-7.2,4.1-10.5,6.6
				c-6.7,5-12.5,11.4-17.5,18.7c-4.9,7.3-9,15.4-12.1,24l0,0c-0.1,0.3-0.4,0.4-0.6,0.3C86.6,130.9,86.5,130.7,86.5,130.5z"/>
		</g>
	</g>
</g>
<g id="Astrosuit-helmet">
	<g>
	</g>
</g>
<g id="Layer_5">
</g>
<g id="Layer_12" display="none">
</g>
</svg>
