<?xml version="1.0" encoding="utf-8"?>
<!-- Generator: Adobe Illustrator 22.0.1, SVG Export Plug-In . SVG Version: 6.00 Build 0)  -->
<svg version="1.1" xmlns="http://www.w3.org/2000/svg" xmlns:xlink="http://www.w3.org/1999/xlink" x="0px" y="0px" width="49.6px"
	 height="89.2px" viewBox="0 0 49.6 89.2" enable-background="new 0 0 49.6 89.2" xml:space="preserve">
<g id="Layer_1">
</g>
<g id="Layer_6">
</g>
<g id="Astrosuit-boots">
</g>
<g id="Astrosuit-trousers">
</g>
<g id="Astrosuit-gloves">
</g>
<g id="Astrosuit-jacket">
</g>
<g id="BOY-Body-head">
</g>
<g id="Asset-body-tshirt">
</g>
<g id="Isolation_Mode">
	<g>
		<path fill="#F94153" d="M44.6,86.7c-0.7,0-1.3-0.3-1.8-0.7L3.2,46.4c-0.5-0.5-0.7-1.1-0.7-1.8s0.3-1.3,0.7-1.8L42.8,3.2
			c0.5-0.5,1.1-0.7,1.8-0.7c0.3,0,0.6,0.1,1,0.2C46.5,3.1,47.1,4,47.1,5v79.2c0,1-0.6,1.9-1.5,2.3C45.3,86.7,44.9,86.7,44.6,86.7z"
			/>
		<path fill="#FFFFFF" d="M44.6,5v79.2L5,44.6L44.6,5 M44.6,0c-1.3,0-2.6,0.5-3.5,1.5L1.5,41.1c-2,2-2,5.1,0,7.1l39.6,39.6
			c1,1,2.2,1.5,3.5,1.5c0.6,0,1.3-0.1,1.9-0.4c1.9-0.8,3.1-2.6,3.1-4.6V5c0-2-1.2-3.8-3.1-4.6C45.9,0.1,45.3,0,44.6,0L44.6,0z"/>
	</g>
</g>
<g id="Astrosuit-helmet">
	<g>
	</g>
</g>
<g id="Layer_5">
</g>
<g id="Layer_12" display="none">
</g>
</svg>
