<?xml version="1.0" encoding="utf-8"?>
<!-- Generator: Adobe Illustrator 22.0.1, SVG Export Plug-In . SVG Version: 6.00 Build 0)  -->
<svg version="1.1" xmlns="http://www.w3.org/2000/svg" xmlns:xlink="http://www.w3.org/1999/xlink" x="0px" y="0px" width="108px"
	 height="108px" viewBox="0 0 108 108" enable-background="new 0 0 108 108" xml:space="preserve">
<g id="Layer_1">
</g>
<g id="Layer_6">
</g>
<g id="Astrosuit-boots">
</g>
<g id="Astrosuit-trousers">
</g>
<g id="Astrosuit-gloves">
</g>
<g id="Astrosuit-jacket">
</g>
<g id="BOY-Body-head">
</g>
<g id="Asset-body-tshirt">
	
		<radialGradient id="SVGID_1_" cx="941.6843" cy="624.9236" r="358.3508" gradientTransform="matrix(0.7071 0.7071 -0.7071 0.7071 388.2985 -1259.0215)" gradientUnits="userSpaceOnUse">
		<stop  offset="0" style="stop-color:#2BBD5A"/>
		<stop  offset="5.568504e-03" style="stop-color:#2BBC5A;stop-opacity:0.9944"/>
		<stop  offset="0.3228" style="stop-color:#2B8F5A;stop-opacity:0.6772"/>
		<stop  offset="0.6055" style="stop-color:#2B6E5A;stop-opacity:0.3945"/>
		<stop  offset="0.8409" style="stop-color:#2B5A5A;stop-opacity:0.1591"/>
		<stop  offset="1" style="stop-color:#2B535A;stop-opacity:0"/>
	</radialGradient>
	<path opacity="0.6" fill="url(#SVGID_1_)" d="M1093.8-176.5l-1.4-1.4l-23.9-23.9l-1.4-1.4l-23.9-23.9l-1.4-1.4l-23.9-23.9l-1.4-1.4
		l-23.9-23.9l-1.4-1.4l-23.9-23.9l-1.4-1.4l-23.9-23.9l-1.4-1.4l-23.9-23.9l-1.4-1.4l-23.9-23.9l-1.4-1.4l-23.9-23.9l-1.4-1.4
		l-23.9-23.9l-1.4-1.4l-23.9-23.9l-1.4-1.4l-23.9-23.9l-1.4-1.4L765.3-505l-1.4-1.4L740-530.3l-1.4-1.4l-23.9-23.9l-1.4-1.4
		l-23.9-23.9l-1.4-1.4l-23.9-23.9l-1.4-1.4L639-631.4l-1.4-1.4L612.3-658L587-632.8l-1.4,1.4l-23.9,23.9l-1.4,1.4l-23.9,23.9
		l-1.4,1.4L511.2-557l-1.4,1.4l-23.9,23.9l-1.4,1.4l-23.9,23.9l-1.4,1.4l-23.9,23.9l-1.4,1.4l-23.9,23.9l-1.4,1.4l-23.9,23.9
		l-1.4,1.4l-23.9,23.9l-1.4,1.4l-23.9,23.9l-1.4,1.4l-23.9,23.9l-1.4,1.4l-23.9,23.9l-1.4,1.4l-23.9,23.9l-1.4,1.4L233.3-279
		l-1.4,1.4L208-253.8l-1.4,1.4l-23.9,23.9l-1.4,1.4l-23.9,23.9l-1.4,1.4l-23.9,23.9l-1.4,1.4l-25.3,25.3l25.3,25.3l1.4,1.4
		l23.9,23.9l1.4,1.4l23.9,23.9l1.4,1.4l23.9,23.9l1.4,1.4l23.9,23.9l1.4,1.4l23.9,23.9l1.4,1.4l23.9,23.9l1.4,1.4l23.9,23.9l1.4,1.4
		l23.9,23.9l1.4,1.4l23.9,23.9l1.4,1.4l23.9,23.9l1.4,1.4l23.9,23.9l1.4,1.4l23.9,23.9l1.4,1.4l23.9,23.9l1.4,1.4l23.9,23.9l1.4,1.4
		l23.9,23.9l1.4,1.4l23.9,23.9l1.4,1.4l23.9,23.9l1.4,1.4l23.9,23.9l1.4,1.4l25.3,25.3l25.3-25.3l1.4-1.4l23.9-23.9l1.4-1.4
		l23.9-23.9l1.4-1.4l23.9-23.9l1.4-1.4l23.9-23.9l1.4-1.4l23.9-23.9l1.4-1.4l23.9-23.9l1.4-1.4l23.9-23.9l1.4-1.4l23.9-23.9l1.4-1.4
		l23.9-23.9l1.4-1.4l23.9-23.9l1.4-1.4l23.9-23.9l1.4-1.4L940.8,27l1.4-1.4L966,1.8l1.4-1.4l23.9-23.9l1.4-1.4l23.9-23.9l1.4-1.4
		l23.9-23.9l1.4-1.4l23.9-23.9l1.4-1.4l23.9-23.9l1.4-1.4l25.3-25.3L1093.8-176.5z M1067.1-200.4l23.9,23.9l-23.9,23.9l-23.9-23.9
		L1067.1-200.4z M1041.8-127.4l-23.9-23.9l23.9-23.9l23.9,23.9L1041.8-127.4z M1016.6-102.1L992.7-126l23.9-23.9l23.9,23.9
		L1016.6-102.1z M991.3-76.9l-23.9-23.9l23.9-23.9l23.9,23.9L991.3-76.9z M966-51.6l-23.9-23.9L966-99.3l23.9,23.9L966-51.6z
		 M940.8-26.3l-23.9-23.9L940.8-74l23.9,23.9L940.8-26.3z M915.5-1.1l-23.9-23.9l23.9-23.9l23.9,23.9L915.5-1.1z M890.2,24.2
		L866.4,0.3l23.9-23.9l23.9,23.9L890.2,24.2z M865,49.5l-23.9-23.9L865,1.8l23.9,23.9L865,49.5z M839.7,74.7l-23.9-23.9L839.7,27
		l23.9,23.9L839.7,74.7z M814.4,100l-23.9-23.9l23.9-23.9l23.9,23.9L814.4,100z M789.2,125.3l-23.9-23.9l23.9-23.9l23.9,23.9
		L789.2,125.3z M763.9,150.5L740,126.7l23.9-23.9l23.9,23.9L763.9,150.5z M738.6,175.8L714.8,152l23.9-23.9l23.9,23.9L738.6,175.8z
		 M713.4,201.1l-23.9-23.9l23.9-23.9l23.9,23.9L713.4,201.1z M688.1,226.4l-23.9-23.9l23.9-23.9l23.9,23.9L688.1,226.4z
		 M662.8,251.6L639,227.8l23.9-23.9l23.9,23.9L662.8,251.6z M637.6,276.9L613.7,253l23.9-23.9l23.9,23.9L637.6,276.9z M612.3,302.2
		l-23.9-23.9l23.9-23.9l23.9,23.9L612.3,302.2z M182.7-175.1l23.9,23.9l-23.9,23.9l-23.9-23.9L182.7-175.1z M208-200.4l23.9,23.9
		L208-152.7l-23.9-23.9L208-200.4z M233.3-225.7l23.9,23.9l-23.9,23.9l-23.9-23.9L233.3-225.7z M258.5-250.9l23.9,23.9l-23.9,23.9
		l-23.9-23.9L258.5-250.9z M283.8-276.2l23.9,23.9l-23.9,23.9l-23.9-23.9L283.8-276.2z M309.1-301.5l23.9,23.9l-23.9,23.9
		l-23.9-23.9L309.1-301.5z M334.3-326.7l23.9,23.9L334.3-279l-23.9-23.9L334.3-326.7z M359.6-352l23.9,23.9l-23.9,23.9l-23.9-23.9
		L359.6-352z M384.9-377.3l23.9,23.9l-23.9,23.9L361-353.4L384.9-377.3z M410.1-402.5l23.9,23.9l-23.9,23.9l-23.9-23.9L410.1-402.5z
		 M435.4-427.8l23.9,23.9l-23.9,23.9l-23.9-23.9L435.4-427.8z M460.7-453.1l23.9,23.9l-23.9,23.9l-23.9-23.9L460.7-453.1z
		 M485.9-478.3l23.9,23.9l-23.9,23.9l-23.9-23.9L485.9-478.3z M511.2-503.6l23.9,23.9l-23.9,23.9l-23.9-23.9L511.2-503.6z
		 M536.5-528.9l23.9,23.9l-23.9,23.9L512.6-505L536.5-528.9z M561.7-554.1l23.9,23.9l-23.9,23.9l-23.9-23.9L561.7-554.1z M587-579.4
		l23.9,23.9L587-531.7l-23.9-23.9L587-579.4z M612.3-604.7l23.9,23.9L612.3-557l-23.9-23.9L612.3-604.7z M1016.6-152.7l-23.9-23.9
		l23.9-23.9l23.9,23.9L1016.6-152.7z M991.3-127.4l-23.9-23.9l23.9-23.9l23.9,23.9L991.3-127.4z M966-102.1L942.2-126l23.9-23.9
		l23.9,23.9L966-102.1z M940.8-76.9l-23.9-23.9l23.9-23.9l23.9,23.9L940.8-76.9z M915.5-51.6l-23.9-23.9l23.9-23.9l23.9,23.9
		L915.5-51.6z M890.2-26.3l-23.9-23.9L890.2-74l23.9,23.9L890.2-26.3z M865-1.1l-23.9-23.9L865-48.8l23.9,23.9L865-1.1z M839.7,24.2
		L815.8,0.3l23.9-23.9l23.9,23.9L839.7,24.2z M814.4,49.5l-23.9-23.9l23.9-23.9l23.9,23.9L814.4,49.5z M789.2,74.7l-23.9-23.9
		L789.2,27L813,50.9L789.2,74.7z M763.9,100L740,76.2l23.9-23.9l23.9,23.9L763.9,100z M738.6,125.3l-23.9-23.9l23.9-23.9l23.9,23.9
		L738.6,125.3z M713.4,150.5l-23.9-23.9l23.9-23.9l23.9,23.9L713.4,150.5z M688.1,175.8L664.2,152l23.9-23.9l23.9,23.9L688.1,175.8z
		 M662.8,201.1L639,177.2l23.9-23.9l23.9,23.9L662.8,201.1z M637.6,226.4l-23.9-23.9l23.9-23.9l23.9,23.9L637.6,226.4z M612.3,251.6
		l-23.9-23.9l23.9-23.9l23.9,23.9L612.3,251.6z M233.3-175.1l23.9,23.9l-23.9,23.9l-23.9-23.9L233.3-175.1z M258.5-200.4l23.9,23.9
		l-23.9,23.9l-23.9-23.9L258.5-200.4z M283.8-225.7l23.9,23.9l-23.9,23.9l-23.9-23.9L283.8-225.7z M309.1-250.9l23.9,23.9
		l-23.9,23.9l-23.9-23.9L309.1-250.9z M334.3-276.2l23.9,23.9l-23.9,23.9l-23.9-23.9L334.3-276.2z M359.6-301.5l23.9,23.9
		l-23.9,23.9l-23.9-23.9L359.6-301.5z M384.9-326.7l23.9,23.9L384.9-279L361-302.9L384.9-326.7z M410.1-352l23.9,23.9l-23.9,23.9
		l-23.9-23.9L410.1-352z M435.4-377.3l23.9,23.9l-23.9,23.9l-23.9-23.9L435.4-377.3z M460.7-402.5l23.9,23.9l-23.9,23.9l-23.9-23.9
		L460.7-402.5z M485.9-427.8l23.9,23.9l-23.9,23.9l-23.9-23.9L485.9-427.8z M511.2-453.1l23.9,23.9l-23.9,23.9l-23.9-23.9
		L511.2-453.1z M536.5-478.3l23.9,23.9l-23.9,23.9l-23.9-23.9L536.5-478.3z M561.7-503.6l23.9,23.9l-23.9,23.9l-23.9-23.9
		L561.7-503.6z M587-528.9l23.9,23.9L587-481.2L563.2-505L587-528.9z M612.3-554.1l23.9,23.9l-23.9,23.9l-23.9-23.9L612.3-554.1z
		 M966-152.7l-23.9-23.9l23.9-23.9l23.9,23.9L966-152.7z M940.8-127.4l-23.9-23.9l23.9-23.9l23.9,23.9L940.8-127.4z M915.5-102.1
		L891.6-126l23.9-23.9l23.9,23.9L915.5-102.1z M890.2-76.9l-23.9-23.9l23.9-23.9l23.9,23.9L890.2-76.9z M865-51.6l-23.9-23.9
		L865-99.3l23.9,23.9L865-51.6z M839.7-26.3l-23.9-23.9L839.7-74l23.9,23.9L839.7-26.3z M814.4-1.1l-23.9-23.9l23.9-23.9l23.9,23.9
		L814.4-1.1z M789.2,24.2L765.3,0.3l23.9-23.9L813,0.3L789.2,24.2z M763.9,49.5L740,25.6l23.9-23.9l23.9,23.9L763.9,49.5z
		 M738.6,74.7l-23.9-23.9L738.6,27l23.9,23.9L738.6,74.7z M713.4,100l-23.9-23.9l23.9-23.9l23.9,23.9L713.4,100z M688.1,125.3
		l-23.9-23.9l23.9-23.9l23.9,23.9L688.1,125.3z M662.8,150.5L639,126.7l23.9-23.9l23.9,23.9L662.8,150.5z M637.5,175.8L613.7,152
		l23.9-23.9l23.9,23.9L637.5,175.8z M612.3,201.1l-23.9-23.9l23.9-23.9l23.9,23.9L612.3,201.1z M283.8-175.1l23.9,23.9l-23.9,23.9
		l-23.9-23.9L283.8-175.1z M309.1-200.4l23.9,23.9l-23.9,23.9l-23.9-23.9L309.1-200.4z M334.3-225.7l23.9,23.9l-23.9,23.9
		l-23.9-23.9L334.3-225.7z M359.6-250.9l23.9,23.9l-23.9,23.9l-23.9-23.9L359.6-250.9z M384.9-276.2l23.9,23.9l-23.9,23.9L361-252.3
		L384.9-276.2z M410.1-301.5l23.9,23.9l-23.9,23.9l-23.9-23.9L410.1-301.5z M435.4-326.7l23.9,23.9L435.4-279l-23.9-23.9
		L435.4-326.7z M460.7-352l23.9,23.9l-23.9,23.9l-23.9-23.9L460.7-352z M485.9-377.3l23.9,23.9l-23.9,23.9l-23.9-23.9L485.9-377.3z
		 M511.2-402.5l23.9,23.9l-23.9,23.9l-23.9-23.9L511.2-402.5z M536.5-427.8l23.9,23.9l-23.9,23.9l-23.9-23.9L536.5-427.8z
		 M561.7-453.1l23.9,23.9l-23.9,23.9l-23.9-23.9L561.7-453.1z M587-478.3l23.9,23.9L587-430.6l-23.9-23.9L587-478.3z M612.3-503.6
		l23.9,23.9l-23.9,23.9l-23.9-23.9L612.3-503.6z M915.5-152.7l-23.9-23.9l23.9-23.9l23.9,23.9L915.5-152.7z M890.2-127.4l-23.9-23.9
		l23.9-23.9l23.9,23.9L890.2-127.4z M865-102.1L841.1-126l23.9-23.9l23.9,23.9L865-102.1z M839.7-76.9l-23.9-23.9l23.9-23.9
		l23.9,23.9L839.7-76.9z M814.4-51.6l-23.9-23.9l23.9-23.9l23.9,23.9L814.4-51.6z M789.2-26.3l-23.9-23.9L789.2-74L813-50.2
		L789.2-26.3z M763.9-1.1L740-24.9l23.9-23.9l23.9,23.9L763.9-1.1z M738.6,24.2L714.8,0.3l23.9-23.9l23.9,23.9L738.6,24.2z
		 M713.4,49.5l-23.9-23.9l23.9-23.9l23.9,23.9L713.4,49.5z M688.1,74.7l-23.9-23.9L688.1,27l23.9,23.9L688.1,74.7z M662.8,100
		L639,76.2l23.9-23.9l23.9,23.9L662.8,100z M637.6,125.3l-23.9-23.9l23.9-23.9l23.9,23.9L637.6,125.3z M612.3,150.5l-23.9-23.9
		l23.9-23.9l23.9,23.9L612.3,150.5z M334.3-175.1l23.9,23.9l-23.9,23.9l-23.9-23.9L334.3-175.1z M359.6-200.4l23.9,23.9l-23.9,23.9
		l-23.9-23.9L359.6-200.4z M384.9-225.7l23.9,23.9l-23.9,23.9L361-201.8L384.9-225.7z M410.1-250.9l23.9,23.9l-23.9,23.9l-23.9-23.9
		L410.1-250.9z M435.4-276.2l23.9,23.9l-23.9,23.9l-23.9-23.9L435.4-276.2z M460.7-301.5l23.9,23.9l-23.9,23.9l-23.9-23.9
		L460.7-301.5z M485.9-326.7l23.9,23.9L485.9-279l-23.9-23.9L485.9-326.7z M511.2-352l23.9,23.9l-23.9,23.9l-23.9-23.9L511.2-352z
		 M536.5-377.3l23.9,23.9l-23.9,23.9l-23.9-23.9L536.5-377.3z M561.7-402.5l23.9,23.9l-23.9,23.9l-23.9-23.9L561.7-402.5z
		 M587-427.8l23.9,23.9L587-380.1l-23.9-23.9L587-427.8z M612.3-453.1l23.9,23.9l-23.9,23.9l-23.9-23.9L612.3-453.1z M865-152.7
		l-23.9-23.9l23.9-23.9l23.9,23.9L865-152.7z M839.7-127.4l-23.9-23.9l23.9-23.9l23.9,23.9L839.7-127.4z M814.4-102.1L790.6-126
		l23.9-23.9l23.9,23.9L814.4-102.1z M789.2-76.9l-23.9-23.9l23.9-23.9l23.9,23.9L789.2-76.9z M763.9-51.6L740-75.5l23.9-23.9
		l23.9,23.9L763.9-51.6z M738.6-26.3l-23.9-23.9L738.6-74l23.9,23.9L738.6-26.3z M713.4-1.1l-23.9-23.9l23.9-23.9l23.9,23.9
		L713.4-1.1z M688.1,24.2L664.2,0.3l23.9-23.9l23.9,23.9L688.1,24.2z M662.8,49.5L639,25.6l23.9-23.9l23.9,23.9L662.8,49.5z
		 M637.6,74.7l-23.9-23.9L637.6,27l23.9,23.9L637.6,74.7z M612.3,100l-23.9-23.9l23.9-23.9l23.9,23.9L612.3,100z M384.9-175.1
		l23.9,23.9l-23.9,23.9L361-151.3L384.9-175.1z M410.1-200.4l23.9,23.9l-23.9,23.9l-23.9-23.9L410.1-200.4z M435.4-225.7l23.9,23.9
		l-23.9,23.9l-23.9-23.9L435.4-225.7z M460.7-250.9l23.9,23.9l-23.9,23.9l-23.9-23.9L460.7-250.9z M485.9-276.2l23.9,23.9
		l-23.9,23.9l-23.9-23.9L485.9-276.2z M511.2-301.5l23.9,23.9l-23.9,23.9l-23.9-23.9L511.2-301.5z M536.5-326.7l23.9,23.9L536.5-279
		l-23.9-23.9L536.5-326.7z M561.7-352l23.9,23.9l-23.9,23.9l-23.9-23.9L561.7-352z M587-377.3l23.9,23.9L587-329.6l-23.9-23.9
		L587-377.3z M612.3-402.5l23.9,23.9l-23.9,23.9l-23.9-23.9L612.3-402.5z M814.4-152.7l-23.9-23.9l23.9-23.9l23.9,23.9L814.4-152.7z
		 M789.2-127.4l-23.9-23.9l23.9-23.9l23.9,23.9L789.2-127.4z M763.9-102.1L740-126l23.9-23.9l23.9,23.9L763.9-102.1z M738.6-76.9
		l-23.9-23.9l23.9-23.9l23.9,23.9L738.6-76.9z M713.4-51.6l-23.9-23.9l23.9-23.9l23.9,23.9L713.4-51.6z M688.1-26.3l-23.9-23.9
		L688.1-74l23.9,23.9L688.1-26.3z M662.8-1.1L639-24.9l23.9-23.9l23.9,23.9L662.8-1.1z M637.6,24.2L613.7,0.3l23.9-23.9l23.9,23.9
		L637.6,24.2z M612.3,49.5l-23.9-23.9l23.9-23.9l23.9,23.9L612.3,49.5z M435.4-175.1l23.9,23.9l-23.9,23.9l-23.9-23.9L435.4-175.1z
		 M460.7-200.4l23.9,23.9l-23.9,23.9l-23.9-23.9L460.7-200.4z M485.9-225.7l23.9,23.9l-23.9,23.9l-23.9-23.9L485.9-225.7z
		 M511.2-250.9l23.9,23.9l-23.9,23.9l-23.9-23.9L511.2-250.9z M536.5-276.2l23.9,23.9l-23.9,23.9l-23.9-23.9L536.5-276.2z
		 M561.7-301.5l23.9,23.9l-23.9,23.9l-23.9-23.9L561.7-301.5z M587-326.7l23.9,23.9L587-279l-23.9-23.9L587-326.7z M612.3-352
		l23.9,23.9l-23.9,23.9l-23.9-23.9L612.3-352z M763.9-152.7L740-176.5l23.9-23.9l23.9,23.9L763.9-152.7z M738.6-127.4l-23.9-23.9
		l23.9-23.9l23.9,23.9L738.6-127.4z M713.4-102.1L689.5-126l23.9-23.9l23.9,23.9L713.4-102.1z M688.1-76.9l-23.9-23.9l23.9-23.9
		l23.9,23.9L688.1-76.9z M662.8-51.6L639-75.5l23.9-23.9l23.9,23.9L662.8-51.6z M637.5-26.3l-23.9-23.9L637.6-74l23.9,23.9
		L637.5-26.3z M612.3-1.1l-23.9-23.9l23.9-23.9l23.9,23.9L612.3-1.1z M485.9-175.1l23.9,23.9l-23.9,23.9l-23.9-23.9L485.9-175.1z
		 M511.2-200.4l23.9,23.9l-23.9,23.9l-23.9-23.9L511.2-200.4z M536.5-225.7l23.9,23.9l-23.9,23.9l-23.9-23.9L536.5-225.7z
		 M561.7-250.9l23.9,23.9l-23.9,23.9l-23.9-23.9L561.7-250.9z M587-276.2l23.9,23.9L587-228.5l-23.9-23.9L587-276.2z M612.3-301.5
		l23.9,23.9l-23.9,23.9l-23.9-23.9L612.3-301.5z M713.4-152.7l-23.9-23.9l23.9-23.9l23.9,23.9L713.4-152.7z M688.1-127.4l-23.9-23.9
		l23.9-23.9l23.9,23.9L688.1-127.4z M662.8-102.1L639-126l23.9-23.9l23.9,23.9L662.8-102.1z M637.6-76.9l-23.9-23.9l23.9-23.9
		l23.9,23.9L637.6-76.9z M612.3-51.6l-23.9-23.9l23.9-23.9l23.9,23.9L612.3-51.6z M536.5-175.1l23.9,23.9l-23.9,23.9l-23.9-23.9
		L536.5-175.1z M561.7-200.4l23.9,23.9l-23.9,23.9l-23.9-23.9L561.7-200.4z M587-225.7l23.9,23.9L587-177.9l-23.9-23.9L587-225.7z
		 M612.3-250.9l23.9,23.9l-23.9,23.9l-23.9-23.9L612.3-250.9z M662.8-152.7L639-176.5l23.9-23.9l23.9,23.9L662.8-152.7z
		 M637.6-127.4l-23.9-23.9l23.9-23.9l23.9,23.9L637.6-127.4z M612.3-102.1L588.4-126l23.9-23.9l23.9,23.9L612.3-102.1z M587-175.1
		l23.9,23.9L587-127.4l-23.9-23.9L587-175.1z M612.3-200.4l23.9,23.9l-23.9,23.9l-23.9-23.9L612.3-200.4z M637.6-177.9l-23.9-23.9
		l23.9-23.9l23.9,23.9L637.6-177.9z M561.7-149.8l23.9,23.9l-23.9,23.9L537.9-126L561.7-149.8z M587-124.6l23.9,23.9L587-76.9
		l-23.9-23.9L587-124.6z M688.1-177.9l-23.9-23.9l23.9-23.9l23.9,23.9L688.1-177.9z M662.8-203.2L639-227.1l23.9-23.9l23.9,23.9
		L662.8-203.2z M637.6-228.5l-23.9-23.9l23.9-23.9l23.9,23.9L637.6-228.5z M511.2-149.8l23.9,23.9l-23.9,23.9L487.4-126L511.2-149.8
		z M536.5-124.6l23.9,23.9l-23.9,23.9l-23.9-23.9L536.5-124.6z M561.7-99.3l23.9,23.9l-23.9,23.9l-23.9-23.9L561.7-99.3z M587-74
		l23.9,23.9L587-26.3l-23.9-23.9L587-74z M738.6-177.9l-23.9-23.9l23.9-23.9l23.9,23.9L738.6-177.9z M713.4-203.2l-23.9-23.9
		l23.9-23.9l23.9,23.9L713.4-203.2z M688.1-228.5l-23.9-23.9l23.9-23.9l23.9,23.9L688.1-228.5z M662.8-253.8L639-277.6l23.9-23.9
		l23.9,23.9L662.8-253.8z M637.6-279l-23.9-23.9l23.9-23.9l23.9,23.9L637.6-279z M460.7-149.8l23.9,23.9l-23.9,23.9L436.8-126
		L460.7-149.8z M485.9-124.6l23.9,23.9l-23.9,23.9l-23.9-23.9L485.9-124.6z M511.2-99.3l23.9,23.9l-23.9,23.9l-23.9-23.9L511.2-99.3
		z M536.5-74l23.9,23.9l-23.9,23.9l-23.9-23.9L536.5-74z M561.7-48.8l23.9,23.9L561.7-1.1l-23.9-23.9L561.7-48.8z M587-23.5
		l23.9,23.9L587,24.2L563.2,0.3L587-23.5z M789.2-177.9l-23.9-23.9l23.9-23.9l23.9,23.9L789.2-177.9z M763.9-203.2L740-227.1
		l23.9-23.9l23.9,23.9L763.9-203.2z M738.6-228.5l-23.9-23.9l23.9-23.9l23.9,23.9L738.6-228.5z M713.4-253.8l-23.9-23.9l23.9-23.9
		l23.9,23.9L713.4-253.8z M688.1-279l-23.9-23.9l23.9-23.9l23.9,23.9L688.1-279z M662.8-304.3L639-328.1l23.9-23.9l23.9,23.9
		L662.8-304.3z M637.6-329.6l-23.9-23.9l23.9-23.9l23.9,23.9L637.6-329.6z M410.1-149.8L434-126l-23.9,23.9L386.3-126L410.1-149.8z
		 M435.4-124.6l23.9,23.9l-23.9,23.9l-23.9-23.9L435.4-124.6z M460.7-99.3l23.9,23.9l-23.9,23.9l-23.9-23.9L460.7-99.3z M485.9-74
		l23.9,23.9l-23.9,23.9l-23.9-23.9L485.9-74z M511.2-48.8l23.9,23.9L511.2-1.1l-23.9-23.9L511.2-48.8z M536.5-23.5l23.9,23.9
		l-23.9,23.9L512.6,0.3L536.5-23.5z M561.7,1.8l23.9,23.9l-23.9,23.9l-23.9-23.9L561.7,1.8z M587,27l23.9,23.9L587,74.7l-23.9-23.9
		L587,27z M839.7-177.9l-23.9-23.9l23.9-23.9l23.9,23.9L839.7-177.9z M814.4-203.2l-23.9-23.9l23.9-23.9l23.9,23.9L814.4-203.2z
		 M789.2-228.5l-23.9-23.9l23.9-23.9l23.9,23.9L789.2-228.5z M763.9-253.8L740-277.6l23.9-23.9l23.9,23.9L763.9-253.8z M738.6-279
		l-23.9-23.9l23.9-23.9l23.9,23.9L738.6-279z M713.4-304.3l-23.9-23.9l23.9-23.9l23.9,23.9L713.4-304.3z M688.1-329.6l-23.9-23.9
		l23.9-23.9l23.9,23.9L688.1-329.6z M662.8-354.8L639-378.7l23.9-23.9l23.9,23.9L662.8-354.8z M637.5-380.1l-23.9-23.9l23.9-23.9
		l23.9,23.9L637.5-380.1z M359.6-149.8l23.9,23.9l-23.9,23.9L335.7-126L359.6-149.8z M384.9-124.6l23.9,23.9l-23.9,23.9L361-100.7
		L384.9-124.6z M410.1-99.3L434-75.5l-23.9,23.9l-23.9-23.9L410.1-99.3z M435.4-74l23.9,23.9l-23.9,23.9l-23.9-23.9L435.4-74z
		 M460.7-48.8l23.9,23.9L460.7-1.1l-23.9-23.9L460.7-48.8z M485.9-23.5l23.9,23.9l-23.9,23.9L462.1,0.3L485.9-23.5z M511.2,1.8
		l23.9,23.9l-23.9,23.9l-23.9-23.9L511.2,1.8z M536.5,27l23.9,23.9l-23.9,23.9l-23.9-23.9L536.5,27z M561.7,52.3l23.9,23.9
		L561.7,100l-23.9-23.9L561.7,52.3z M587,77.6l23.9,23.9L587,125.3l-23.9-23.9L587,77.6z M890.2-177.9l-23.9-23.9l23.9-23.9
		l23.9,23.9L890.2-177.9z M865-203.2l-23.9-23.9l23.9-23.9l23.9,23.9L865-203.2z M839.7-228.5l-23.9-23.9l23.9-23.9l23.9,23.9
		L839.7-228.5z M814.4-253.8l-23.9-23.9l23.9-23.9l23.9,23.9L814.4-253.8z M789.2-279l-23.9-23.9l23.9-23.9l23.9,23.9L789.2-279z
		 M763.9-304.3L740-328.1l23.9-23.9l23.9,23.9L763.9-304.3z M738.6-329.6l-23.9-23.9l23.9-23.9l23.9,23.9L738.6-329.6z M713.4-354.8
		l-23.9-23.9l23.9-23.9l23.9,23.9L713.4-354.8z M688.1-380.1l-23.9-23.9l23.9-23.9l23.9,23.9L688.1-380.1z M662.8-405.4L639-429.2
		l23.9-23.9l23.9,23.9L662.8-405.4z M637.6-430.6l-23.9-23.9l23.9-23.9l23.9,23.9L637.6-430.6z M309.1-149.8l23.9,23.9l-23.9,23.9
		L285.2-126L309.1-149.8z M334.3-124.6l23.9,23.9l-23.9,23.9l-23.9-23.9L334.3-124.6z M359.6-99.3l23.9,23.9l-23.9,23.9l-23.9-23.9
		L359.6-99.3z M384.9-74l23.9,23.9l-23.9,23.9L361-50.2L384.9-74z M410.1-48.8L434-24.9L410.1-1.1l-23.9-23.9L410.1-48.8z
		 M435.4-23.5l23.9,23.9l-23.9,23.9L411.5,0.3L435.4-23.5z M460.7,1.8l23.9,23.9l-23.9,23.9l-23.9-23.9L460.7,1.8z M485.9,27
		l23.9,23.9l-23.9,23.9l-23.9-23.9L485.9,27z M511.2,52.3l23.9,23.9L511.2,100l-23.9-23.9L511.2,52.3z M536.5,77.6l23.9,23.9
		l-23.9,23.9l-23.9-23.9L536.5,77.6z M561.7,102.8l23.9,23.9l-23.9,23.9l-23.9-23.9L561.7,102.8z M587,128.1l23.9,23.9L587,175.8
		L563.2,152L587,128.1z M940.8-177.9l-23.9-23.9l23.9-23.9l23.9,23.9L940.8-177.9z M915.5-203.2l-23.9-23.9l23.9-23.9l23.9,23.9
		L915.5-203.2z M890.2-228.5l-23.9-23.9l23.9-23.9l23.9,23.9L890.2-228.5z M865-253.8l-23.9-23.9l23.9-23.9l23.9,23.9L865-253.8z
		 M839.7-279l-23.9-23.9l23.9-23.9l23.9,23.9L839.7-279z M814.4-304.3l-23.9-23.9l23.9-23.9l23.9,23.9L814.4-304.3z M789.2-329.6
		l-23.9-23.9l23.9-23.9l23.9,23.9L789.2-329.6z M763.9-354.8L740-378.7l23.9-23.9l23.9,23.9L763.9-354.8z M738.6-380.1l-23.9-23.9
		l23.9-23.9l23.9,23.9L738.6-380.1z M713.4-405.4l-23.9-23.9l23.9-23.9l23.9,23.9L713.4-405.4z M688.1-430.6l-23.9-23.9l23.9-23.9
		l23.9,23.9L688.1-430.6z M662.8-455.9L639-479.8l23.9-23.9l23.9,23.9L662.8-455.9z M637.6-481.2L613.7-505l23.9-23.9l23.9,23.9
		L637.6-481.2z M258.5-149.8l23.9,23.9l-23.9,23.9L234.7-126L258.5-149.8z M283.8-124.6l23.9,23.9l-23.9,23.9l-23.9-23.9
		L283.8-124.6z M309.1-99.3l23.9,23.9l-23.9,23.9l-23.9-23.9L309.1-99.3z M334.3-74l23.9,23.9l-23.9,23.9l-23.9-23.9L334.3-74z
		 M359.6-48.8l23.9,23.9L359.6-1.1l-23.9-23.9L359.6-48.8z M384.9-23.5l23.9,23.9l-23.9,23.9L361,0.3L384.9-23.5z M410.1,1.8
		L434,25.6l-23.9,23.9l-23.9-23.9L410.1,1.8z M435.4,27l23.9,23.9l-23.9,23.9l-23.9-23.9L435.4,27z M460.7,52.3l23.9,23.9L460.7,100
		l-23.9-23.9L460.7,52.3z M485.9,77.6l23.9,23.9l-23.9,23.9l-23.9-23.9L485.9,77.6z M511.2,102.8l23.9,23.9l-23.9,23.9l-23.9-23.9
		L511.2,102.8z M536.5,128.1l23.9,23.9l-23.9,23.9L512.6,152L536.5,128.1z M561.7,153.4l23.9,23.9l-23.9,23.9l-23.9-23.9
		L561.7,153.4z M587,178.6l23.9,23.9L587,226.4l-23.9-23.9L587,178.6z M991.3-177.9l-23.9-23.9l23.9-23.9l23.9,23.9L991.3-177.9z
		 M966-203.2l-23.9-23.9l23.9-23.9l23.9,23.9L966-203.2z M940.8-228.5l-23.9-23.9l23.9-23.9l23.9,23.9L940.8-228.5z M915.5-253.8
		l-23.9-23.9l23.9-23.9l23.9,23.9L915.5-253.8z M890.2-279l-23.9-23.9l23.9-23.9l23.9,23.9L890.2-279z M865-304.3l-23.9-23.9
		L865-352l23.9,23.9L865-304.3z M839.7-329.6l-23.9-23.9l23.9-23.9l23.9,23.9L839.7-329.6z M814.4-354.8l-23.9-23.9l23.9-23.9
		l23.9,23.9L814.4-354.8z M789.2-380.1l-23.9-23.9l23.9-23.9l23.9,23.9L789.2-380.1z M763.9-405.4L740-429.2l23.9-23.9l23.9,23.9
		L763.9-405.4z M738.6-430.6l-23.9-23.9l23.9-23.9l23.9,23.9L738.6-430.6z M713.4-455.9l-23.9-23.9l23.9-23.9l23.9,23.9L713.4-455.9
		z M688.1-481.2L664.2-505l23.9-23.9l23.9,23.9L688.1-481.2z M662.8-506.4L639-530.3l23.9-23.9l23.9,23.9L662.8-506.4z M637.6-531.7
		l-23.9-23.9l23.9-23.9l23.9,23.9L637.6-531.7z M208-149.8l23.9,23.9L208-102.1L184.1-126L208-149.8z M233.3-124.6l23.9,23.9
		l-23.9,23.9l-23.9-23.9L233.3-124.6z M258.5-99.3l23.9,23.9l-23.9,23.9l-23.9-23.9L258.5-99.3z M283.8-74l23.9,23.9l-23.9,23.9
		l-23.9-23.9L283.8-74z M309.1-48.8l23.9,23.9L309.1-1.1l-23.9-23.9L309.1-48.8z M334.3-23.5l23.9,23.9l-23.9,23.9L310.5,0.3
		L334.3-23.5z M359.6,1.8l23.9,23.9l-23.9,23.9l-23.9-23.9L359.6,1.8z M384.9,27l23.9,23.9l-23.9,23.9L361,50.9L384.9,27z
		 M410.1,52.3L434,76.2L410.1,100l-23.9-23.9L410.1,52.3z M435.4,77.6l23.9,23.9l-23.9,23.9l-23.9-23.9L435.4,77.6z M460.7,102.8
		l23.9,23.9l-23.9,23.9l-23.9-23.9L460.7,102.8z M485.9,128.1l23.9,23.9l-23.9,23.9L462.1,152L485.9,128.1z M511.2,153.4l23.9,23.9
		l-23.9,23.9l-23.9-23.9L511.2,153.4z M536.5,178.6l23.9,23.9l-23.9,23.9l-23.9-23.9L536.5,178.6z M561.7,203.9l23.9,23.9
		l-23.9,23.9l-23.9-23.9L561.7,203.9z M587,229.2l23.9,23.9L587,276.9L563.2,253L587,229.2z M1041.8-225.7l23.9,23.9l-23.9,23.9
		l-23.9-23.9L1041.8-225.7z M1016.6-250.9l23.9,23.9l-23.9,23.9l-23.9-23.9L1016.6-250.9z M991.3-276.2l23.9,23.9l-23.9,23.9
		l-23.9-23.9L991.3-276.2z M966-301.5l23.9,23.9L966-253.8l-23.9-23.9L966-301.5z M940.8-326.7l23.9,23.9L940.8-279l-23.9-23.9
		L940.8-326.7z M915.5-352l23.9,23.9l-23.9,23.9l-23.9-23.9L915.5-352z M890.2-377.3l23.9,23.9l-23.9,23.9l-23.9-23.9L890.2-377.3z
		 M865-402.5l23.9,23.9L865-354.8l-23.9-23.9L865-402.5z M839.7-427.8l23.9,23.9l-23.9,23.9l-23.9-23.9L839.7-427.8z M814.4-453.1
		l23.9,23.9l-23.9,23.9l-23.9-23.9L814.4-453.1z M789.2-478.3l23.9,23.9l-23.9,23.9l-23.9-23.9L789.2-478.3z M763.9-503.6l23.9,23.9
		l-23.9,23.9L740-479.8L763.9-503.6z M738.6-528.9l23.9,23.9l-23.9,23.9L714.8-505L738.6-528.9z M713.4-554.1l23.9,23.9l-23.9,23.9
		l-23.9-23.9L713.4-554.1z M688.1-579.4l23.9,23.9l-23.9,23.9l-23.9-23.9L688.1-579.4z M662.8-604.7l23.9,23.9L662.8-557L639-580.8
		L662.8-604.7z M637.6-629.9l23.9,23.9l-23.9,23.9l-23.9-23.9L637.6-629.9z M612.3-655.2l23.9,23.9l-23.9,23.9l-23.9-23.9
		L612.3-655.2z M587-629.9l23.9,23.9L587-582.2l-23.9-23.9L587-629.9z M561.7-604.7l23.9,23.9L561.7-557l-23.9-23.9L561.7-604.7z
		 M536.5-579.4l23.9,23.9l-23.9,23.9l-23.9-23.9L536.5-579.4z M511.2-554.1l23.9,23.9l-23.9,23.9l-23.9-23.9L511.2-554.1z
		 M485.9-528.9l23.9,23.9l-23.9,23.9L462.1-505L485.9-528.9z M460.7-503.6l23.9,23.9l-23.9,23.9l-23.9-23.9L460.7-503.6z
		 M435.4-478.3l23.9,23.9l-23.9,23.9l-23.9-23.9L435.4-478.3z M410.1-453.1l23.9,23.9l-23.9,23.9l-23.9-23.9L410.1-453.1z
		 M384.9-427.8l23.9,23.9l-23.9,23.9L361-403.9L384.9-427.8z M359.6-402.5l23.9,23.9l-23.9,23.9l-23.9-23.9L359.6-402.5z
		 M334.3-377.3l23.9,23.9l-23.9,23.9l-23.9-23.9L334.3-377.3z M309.1-352l23.9,23.9l-23.9,23.9l-23.9-23.9L309.1-352z M283.8-326.7
		l23.9,23.9L283.8-279l-23.9-23.9L283.8-326.7z M258.5-301.5l23.9,23.9l-23.9,23.9l-23.9-23.9L258.5-301.5z M233.3-276.2l23.9,23.9
		l-23.9,23.9l-23.9-23.9L233.3-276.2z M208-250.9l23.9,23.9L208-203.2l-23.9-23.9L208-250.9z M182.7-225.7l23.9,23.9l-23.9,23.9
		l-23.9-23.9L182.7-225.7z M157.4-200.4l23.9,23.9l-23.9,23.9l-23.9-23.9L157.4-200.4z M132.2-127.4l-23.9-23.9l23.9-23.9l23.9,23.9
		L132.2-127.4z M157.4-102.1L133.6-126l23.9-23.9l23.9,23.9L157.4-102.1z M182.7-76.9l-23.9-23.9l23.9-23.9l23.9,23.9L182.7-76.9z
		 M208-51.6l-23.9-23.9L208-99.3l23.9,23.9L208-51.6z M233.3-26.3l-23.9-23.9L233.3-74l23.9,23.9L233.3-26.3z M258.5-1.1l-23.9-23.9
		l23.9-23.9l23.9,23.9L258.5-1.1z M283.8,24.2L259.9,0.3l23.9-23.9l23.9,23.9L283.8,24.2z M309.1,49.5l-23.9-23.9l23.9-23.9
		l23.9,23.9L309.1,49.5z M334.3,74.7l-23.9-23.9L334.3,27l23.9,23.9L334.3,74.7z M359.6,100l-23.9-23.9l23.9-23.9l23.9,23.9
		L359.6,100z M384.9,125.3L361,101.4l23.9-23.9l23.9,23.9L384.9,125.3z M410.1,150.5l-23.9-23.9l23.9-23.9l23.9,23.9L410.1,150.5z
		 M435.4,175.8L411.5,152l23.9-23.9l23.9,23.9L435.4,175.8z M460.7,201.1l-23.9-23.9l23.9-23.9l23.9,23.9L460.7,201.1z M485.9,226.4
		l-23.9-23.9l23.9-23.9l23.9,23.9L485.9,226.4z M511.2,251.6l-23.9-23.9l23.9-23.9l23.9,23.9L511.2,251.6z M536.5,276.9L512.6,253
		l23.9-23.9l23.9,23.9L536.5,276.9z M561.7,302.2l-23.9-23.9l23.9-23.9l23.9,23.9L561.7,302.2z M587,327.4l-23.9-23.9l23.9-23.9
		l23.9,23.9L587,327.4z M612.3,352.7l-23.9-23.9l23.9-23.9l23.9,23.9L612.3,352.7z M637.6,327.4l-23.9-23.9l23.9-23.9l23.9,23.9
		L637.6,327.4z M662.8,302.2L639,278.3l23.9-23.9l23.9,23.9L662.8,302.2z M688.1,276.9L664.2,253l23.9-23.9l23.9,23.9L688.1,276.9z
		 M713.4,251.6l-23.9-23.9l23.9-23.9l23.9,23.9L713.4,251.6z M738.6,226.4l-23.9-23.9l23.9-23.9l23.9,23.9L738.6,226.4z
		 M763.9,201.1L740,177.2l23.9-23.9l23.9,23.9L763.9,201.1z M789.2,175.8L765.3,152l23.9-23.9L813,152L789.2,175.8z M814.4,150.5
		l-23.9-23.9l23.9-23.9l23.9,23.9L814.4,150.5z M839.7,125.3l-23.9-23.9l23.9-23.9l23.9,23.9L839.7,125.3z M865,100l-23.9-23.9
		L865,52.3l23.9,23.9L865,100z M890.2,74.7l-23.9-23.9L890.2,27l23.9,23.9L890.2,74.7z M915.5,49.5l-23.9-23.9l23.9-23.9l23.9,23.9
		L915.5,49.5z M940.8,24.2L916.9,0.3l23.9-23.9l23.9,23.9L940.8,24.2z M966-1.1l-23.9-23.9L966-48.8l23.9,23.9L966-1.1z M991.3-26.3
		l-23.9-23.9L991.3-74l23.9,23.9L991.3-26.3z M1016.6-51.6l-23.9-23.9l23.9-23.9l23.9,23.9L1016.6-51.6z M1041.8-76.9l-23.9-23.9
		l23.9-23.9l23.9,23.9L1041.8-76.9z M1067.1-102.1l-23.9-23.9l23.9-23.9L1091-126L1067.1-102.1z M1068.5-151.3l23.9-23.9l23.9,23.9
		l-23.9,23.9L1068.5-151.3z"/>
</g>
<g id="Isolation_Mode">
	<circle fill="#F94153" cx="54" cy="54" r="54"/>
	<g>
		<path fill="#FFFFFF" d="M50.9,58.4H29.4v-7.8h21.5V29h7.8v21.6h21.5v7.8H58.7v21.4h-7.8V58.4z"/>
	</g>
</g>
<g id="Astrosuit-helmet">
	<g>
	</g>
</g>
<g id="Layer_5">
</g>
<g id="Layer_12" display="none">
</g>
</svg>
