<?xml version="1.0" encoding="utf-8"?>
<!-- Generator: Adobe Illustrator 22.0.1, SVG Export Plug-In . SVG Version: 6.00 Build 0)  -->
<svg version="1.1" xmlns="http://www.w3.org/2000/svg" xmlns:xlink="http://www.w3.org/1999/xlink" x="0px" y="0px" width="316.8px"
	 height="316.8px" viewBox="0 0 316.8 316.8" enable-background="new 0 0 316.8 316.8" xml:space="preserve">
<g id="Layer_1">
</g>
<g id="Layer_6">
</g>
<g id="Astrosuit-boots">
</g>
<g id="Astrosuit-trousers">
</g>
<g id="Astrosuit-gloves">
</g>
<g id="Astrosuit-jacket">
</g>
<g id="BOY-Body-head">
</g>
<g id="Asset-body-tshirt">
</g>
<g id="Isolation_Mode">
	<g opacity="0.3">
		<circle fill="#58ABDC" cx="158.4" cy="158.4" r="158.4"/>
	</g>
	<g>
		<circle fill="#58ABDC" cx="158.4" cy="158.4" r="143.1"/>
	</g>
	<path fill="#F1CDB6" d="M238.6,173.2c-2,11.8-14.2,28.1-23,25.5c-8.7-2.6-11.1-14.7-8.1-26.7s10-18.8,19-17.6
		C234.4,155.5,240,164.8,238.6,173.2z"/>
	<path fill="#F1CDB6" d="M76.5,173.2c2,11.8,14.2,28.1,23,25.5s11.1-14.7,8.1-26.7s-10-18.8-19-17.6
		C80.7,155.5,75.1,164.8,76.5,173.2z"/>
	<linearGradient id="SVGID_1_" gradientUnits="userSpaceOnUse" x1="158.3802" y1="81.3246" x2="158.3802" y2="258.1962">
		<stop  offset="0" style="stop-color:#EBBA9E"/>
		<stop  offset="1.724315e-02" style="stop-color:#EBBB9F"/>
		<stop  offset="0.2419" style="stop-color:#EFC6AD"/>
		<stop  offset="0.5186" style="stop-color:#F0CCB6"/>
		<stop  offset="1" style="stop-color:#F1CEB8"/>
	</linearGradient>
	<path fill="url(#SVGID_1_)" d="M230.9,169.8c0-48.8-32.5-88.4-72.5-88.4s-72.5,39.6-72.5,88.4c0,28.2,12.5,55.6,32.2,69.9
		c15.9,11.6,27.9,18.9,40.3,18.5c13.2,0,26.7-7.4,42-20.2C218.6,222.9,230.9,197.2,230.9,169.8z"/>
	<path fill="#F4AC84" d="M167.3,195.6c-6,2.1-12,2.1-17.8,0C149.5,195.6,157.5,206.5,167.3,195.6"/>
	<g>
		<path fill="#FFFFFF" d="M202.6,171c0,0-3.7,7.9-16.3,7.1c-9.7-0.6-13.5-7.2-13.5-7.2s0.7-8.5,14.5-10
			C187.3,160.9,198.9,160.6,202.6,171z"/>
		<g>
			<path fill="#DDB9A4" d="M202.6,171c-1.9-2.7-4.1-4.9-6.6-6.2c-1.3-0.7-2.6-1.2-4-1.5l-0.5-0.1l-0.5-0.1c-0.4-0.1-0.7-0.1-1.1-0.2
				c-0.7,0-1.4-0.1-2.2-0.1c-2.9,0-5.8,0.5-8.4,1.9c-1.3,0.7-2.5,1.5-3.6,2.6c-1.1,1-2.1,2.2-2.9,3.7c0-1.7,0.6-3.3,1.5-4.8
				c0.9-1.5,2-2.8,3.5-3.9c2.8-2.2,6.5-3.1,9.9-3.2c3.5-0.1,7.2,1,10,3.3C200.4,164.5,202.2,167.7,202.6,171z"/>
		</g>
		
			<ellipse transform="matrix(6.549271e-02 -0.9979 0.9979 6.549271e-02 5.7734 346.2544)" fill="#724E3A" cx="187.7" cy="170" rx="6.6" ry="7"/>
		
			<ellipse transform="matrix(6.549271e-02 -0.9979 0.9979 6.549271e-02 6.2432 343.5455)" opacity="0.7" fill="#FFFFFF" cx="186.5" cy="168.4" rx="2.2" ry="2"/>
	</g>
	<g>
		<path fill="#FFFFFF" d="M114.2,171c0,0,3.7,7.9,16.3,7.1c9.7-0.6,13.5-7.2,13.5-7.2s-0.7-8.5-14.5-10
			C129.4,160.9,117.9,160.6,114.2,171z"/>
		<g>
			<path fill="#DDB9A4" d="M114.2,171c0.4-3.3,2.2-6.5,5-8.7c2.8-2.2,6.5-3.3,10-3.3c3.5,0.1,7.1,1,9.9,3.2c1.4,1.1,2.6,2.4,3.5,3.9
				c0.8,1.5,1.5,3.1,1.5,4.8c-0.8-1.4-1.8-2.6-2.9-3.7c-1.1-1.1-2.3-1.9-3.6-2.6c-2.6-1.4-5.4-1.8-8.4-1.9c-0.7,0-1.4,0.1-2.2,0.1
				c-0.4,0.1-0.7,0.1-1.1,0.2l-0.5,0.1l-0.5,0.1c-1.4,0.3-2.7,0.8-4,1.5C118.3,166.1,116,168.3,114.2,171z"/>
		</g>
		
			<ellipse transform="matrix(0.9979 -6.549271e-02 6.549271e-02 0.9979 -10.8597 8.8144)" fill="#724E3A" cx="129" cy="170" rx="6.8" ry="6.4"/>
		
			<ellipse transform="matrix(0.9979 -6.549271e-02 6.549271e-02 0.9979 -10.7553 8.8879)" opacity="0.7" fill="#FFFFFF" cx="130.2" cy="168.5" rx="1.9" ry="2.1"/>
	</g>
	<path fill="#423129" d="M173.3,140.9c0,0-3.7,2.5-1.1,7.4h37.4c0,0-2.2-7.1-6.5-8.5L173.3,140.9z"/>
	<path fill="#423129" d="M144.2,140.9c0,0,3.7,2.5,1.1,7.4h-37.4c0,0,2.2-7.1,6.5-8.5L144.2,140.9z"/>
	<linearGradient id="SVGID_2_" gradientUnits="userSpaceOnUse" x1="82.6581" y1="122.6588" x2="232.8565" y2="122.6588">
		<stop  offset="0" style="stop-color:#7F5A41"/>
		<stop  offset="0.4249" style="stop-color:#7B573F"/>
		<stop  offset="0.8631" style="stop-color:#6E4C39"/>
		<stop  offset="1" style="stop-color:#694837"/>
	</linearGradient>
	<path fill="url(#SVGID_2_)" d="M232.9,108.3l-4.3,61.2l-15.1-44.8l-28.1-19.1l-83.8,22.5L88.6,170l-5.9-56.6l10.6-13.4l37-20.7
		l42.6-4.1l34.6,14.3l22.8,20.9l2.6-3C232.8,107.7,232.8,108,232.9,108.3z"/>
	<g id="BOY-mouth_5_">
		<path fill="#7E1712" d="M181.4,218c0,0-0.5,1.8-1.8,4.2c-1.2,2.3-3.2,5.1-6,7.4c-3.3,2.8-7.9,5-14.2,5c-6.6,0-11.5-2.1-15-4.8
			c-3.2-2.4-5.3-5.3-6.6-7.6c-1.1-1.9-1.6-3.4-1.9-4.1C136,218,180.9,216.8,181.4,218z"/>
		<path fill="#FFFFFF" d="M181.9,217.7c0,0,0.1,0.7-1.2,3.2c-23.1,4.4-38.7,1.6-43.3,0.5c-1.1-2-1.4-2.9-1.7-3.6
			C135.6,217.7,181.3,216.5,181.9,217.7z"/>
		<path fill="#ED6B77" d="M173.6,229.8c-3.3,2.8-7.9,5-14.2,5c-6.6,0-11.5-2.1-15-4.8c3.5-1.6,8.8-2.7,14.7-2.7
			C164.9,227.3,170.1,228.3,173.6,229.8z"/>
	</g>
	<linearGradient id="BOY-hair_5_" gradientUnits="userSpaceOnUse" x1="81.9227" y1="80.3225" x2="232.82" y2="80.3225">
		<stop  offset="0" style="stop-color:#7F5A41"/>
		<stop  offset="0.4249" style="stop-color:#7B573F"/>
		<stop  offset="0.8631" style="stop-color:#6E4C39"/>
		<stop  offset="1" style="stop-color:#694837"/>
	</linearGradient>
	<path id="BOY-hair_1_" fill="url(#BOY-hair_5_)" d="M232.8,107.9l-2.5,3.7l-23.2-20.4l-34.5-14.4L130,80.7l-36.5,20.6l-10.7,13
		l-0.8-8l37.4-60.1v11.2C119.3,57.4,224.8,48.1,232.8,107.9z"/>
</g>
<g id="Astrosuit-helmet">
</g>
<g id="Layer_5">
</g>
<g id="Layer_12" display="none">
</g>
</svg>
