<?xml version="1.0" encoding="utf-8"?>
<!-- Generator: Adobe Illustrator 22.0.1, SVG Export Plug-In . SVG Version: 6.00 Build 0)  -->
<svg version="1.1" xmlns="http://www.w3.org/2000/svg" xmlns:xlink="http://www.w3.org/1999/xlink" x="0px" y="0px" width="1920px"
	 height="1080px" viewBox="0 0 1920 1080" enable-background="new 0 0 1920 1080" xml:space="preserve">
<g id="Layer_4">
</g>
<g id="Layer_6">
</g>
<g id="Layer_1">
</g>
<g id="Layer_5">
	<g>
		<path fill="#8C8C8C" d="M0,0v1080h1920V0H0z M18.9,230.2c0-22.9,18.6-41.5,41.5-41.5h243c44.8,0,72.8,48.5,50.4,87.3L69.3,768.7
			c-0.1,0.2-0.2,0.4-0.3,0.6c-13.9,23.5-50.1,13.1-50.1-14.2V230.2z M750,1061.1H71.5c-30.7,0-52.6-25.2-52.6-52.6
			c0-8.7,2.2-17.7,7.1-26.2l339.3-587.6c20.2-35,70.8-35,91,0l339.3,587.6C815.7,1017.4,790.4,1061.1,750,1061.1z M901.5,1027.1
			L377.9,120.3c-26-45.1,6.5-101.4,58.5-101.4h1047.1c52,0,84.6,56.3,58.5,101.4l-523.6,906.8
			C992.5,1072.2,927.5,1072.2,901.5,1027.1z M1848.5,1061.1H1170c-40.4,0-65.7-43.8-45.5-78.8l339.3-587.6c20.2-35,70.7-35,91,0
			l81.3,140.7l258,446.9c4.9,8.5,7.1,17.4,7.1,26.2C1901.1,1036,1879.2,1061.1,1848.5,1061.1z M1901.1,755.2
			c0,27.3-36.2,37.6-50.1,14.2c-0.1-0.2-0.2-0.4-0.3-0.6l-154.4-267.4l-130.1-225.4c-22.4-38.8,5.6-87.3,50.4-87.3h243
			c22.9,0,41.5,18.6,41.5,41.5V755.2z"/>
	</g>
</g>
<g id="Layer_3">
</g>
<g id="Layer_7">
</g>
</svg>
