<?xml version="1.0" encoding="utf-8"?>
<!-- Generator: Adobe Illustrator 22.0.1, SVG Export Plug-In . SVG Version: 6.00 Build 0)  -->
<svg version="1.1" xmlns="http://www.w3.org/2000/svg" xmlns:xlink="http://www.w3.org/1999/xlink" x="0px" y="0px" width="207.6px"
	 height="344.4px" viewBox="0 0 207.6 344.4" enable-background="new 0 0 207.6 344.4" xml:space="preserve">
<g id="Layer_1">
</g>
<g id="status">
	<g id="GUI-status-green">
		<image overflow="visible" width="194" height="340" xlink:href="4ADB9927.png"  transform="matrix(1 0 0 1 10.5 2)">
		</image>
		<g>
			<g>
				<g id="GUI-astro-backpack_12_">
					<g>
						<g>
							<path fill="#C9E5C8" d="M77.5,175.7l-0.7,5.9c-0.2,2.9-0.7,8.4-1.3,14.6l-1,11.1L60.7,207c-1.6,0-2.8-1.3-2.8-2.9l0.3-29.2
								c0.2-0.2,0.3-0.3,0.5-0.6c2-1,4.3-3.3,4.3-9c2.4-5.2,5.3-11.1,8.5-16.8c0.5,3.4,1.1,6.5,1.8,9.2c0.3,1.3,0.7,2.3,0.9,3.2
								c-0.8,1.3-1.8,3.7-1.3,6.4c0.3,1.3,0.9,2.5,1.9,3.5c0,0.3-0.1,0.4,0,0.7C74.6,173,75.6,174.4,77.5,175.7z"/>
						</g>
						<g>
							<path fill="#C9E5C8" d="M153.1,164.9c-2.8-5.2-7.2-12.9-11.9-20c-0.7,6.1-1.6,11.4-2.9,15.6c0.4,0.7,0.9,1.6,1.3,2.7
								c0,0.2,0,0.2,0.1,0.3c0.5,1.9,0.3,3.8-0.7,5.4c0.2,0.4,0.2,0.8,0.2,1.2c0,1.2-0.5,2.3-1.4,3.4c-0.8,0.8-1.2,1.2-2.6,1.9
								c0.6,0.6,1.1,3.2,1.3,4.7c0.3,1.8,0.4,4.3,0.6,8.2v0.3c0.2,4.9,0.3,11.8,1.3,19.3l12.7,0.1c1.6,0,2.9-1.3,2.9-2.8l0.3-35.2
								C153.4,168.4,153.1,166.8,153.1,164.9z"/>
						</g>
					</g>
					<g>
						<g>
							<path fill="#C9E5C8" d="M94.4,83.6c-1.7,0.8-3.1,1.7-4.2,2.7c-1.3,0.9-2.2,2-2.8,3.2c-1.8,0.3-6.3,1.2-10.6,4.1l-5,4.1
								c-0.3,0.2-1.1,1.1-1.1,1.1c-4.1,3.7-8.2,8.3-12.1,13.6l0.3-26.2c0-1.6,1.3-2.8,2.8-2.8h2.7l0.1-12l15,0.2l-0.1,12L94.4,83.6z
								"/>
						</g>
						<g>
							<path fill="#C9E5C8" d="M154.7,86.9l-0.3,25.5c-5.2-6.6-10.2-11.9-15-15.6c-0.1-0.1-0.2-0.2-0.3-0.3c-5.9-6-10.8-7.3-12-7.4
								c-0.8-0.3-1.5-0.5-2.3-0.7c-0.7-0.9-1.5-1.8-2.4-2.4c-0.9-0.8-2-1.6-3.3-2.3l13.9,0.2l0.1-12l15,0.2l-0.1,12h3.7
								c0.8,0,1.5,0.3,2,0.8C154.4,85.5,154.7,86.2,154.7,86.9z"/>
						</g>
					</g>
				</g>
				<g id="GUI-astro-boots_12_">
					<path fill="#C9E5C8" d="M148.6,320.1l-0.2-2.7c-2.6-5.3-12.3-6.6-12.3-6.6c0.8-5.9,0.8-12,0.7-14.5c0.5-0.3,0.8-0.9,0.8-1.6
						c0-1.1-0.9-2-2-2c-5.5,0.7-10.9,0.7-16.2,0c-1.1,0-2,0.9-2,2c0,0.7,0.3,1.3,0.9,1.7c0,1.4,0,3.3-0.1,5.2l0,0c0,0,0,0,0,0.1
						c-0.2,3.9-0.5,8.4-0.8,11.5c-0.1,0.6-0.2,1.1-0.3,1.6c-0.1-0.1-0.2-0.1-0.3-0.2c0,0-0.3,3.8,0.4,5.9c0,0,3.1,2.1,4.9,2.2l0,0
						l0,0h0.1l0,0l3.6-0.3c0.3,0.3,0.7,0.8,0.9,1.5c0,0,0,0,0.1,0l0,0c0.1,0,0.1,0.1,0.3,0.1l0,0c0.1,0.1,0.3,0.1,0.3,0.2
						c0,0,0.1,0,0.1,0.1c0.1,0.1,0.3,0.1,0.4,0.2h0.1c0.2,0.1,0.3,0.2,0.6,0.3c0.1,0,0.1,0.1,0.2,0.1c0.2,0.1,0.3,0.2,0.6,0.3
						c0.1,0,0.1,0,0.2,0.1c0.3,0.1,0.5,0.2,0.8,0.3c0.1,0,0.1,0.1,0.2,0.1c0.3,0.1,0.5,0.2,0.8,0.3c0.1,0,0.2,0.1,0.2,0.1
						c0.3,0.1,0.6,0.2,0.9,0.3c0.1,0,0.2,0,0.2,0.1c0.3,0.1,0.6,0.2,0.8,0.2c0.1,0,0.2,0,0.3,0.1c0.3,0.1,0.7,0.2,1.1,0.2
						c0.1,0,0.1,0,0.2,0c0.3,0.1,0.6,0.1,0.9,0.2c0.1,0,0.2,0,0.3,0c0.4,0,0.8,0.1,1.2,0.1c0.1,0,0.1,0,0.2,0c0.3,0,0.7,0,1,0
						c0.1,0,0.2,0,0.3,0c0.4,0,0.8,0,1.2-0.1h0.1c0.4-0.1,0.8-0.1,1.2-0.2c0.1,0,0.1,0,0.2,0l0,0c2.6-0.5,5.3-1.8,7.5-4.2
						C149.2,321.9,148.9,320.7,148.6,320.1z"/>
					<path fill="#C9E5C8" d="M94.9,315.1c0-0.4,0-0.6,0-0.6c-0.1,0-0.2,0.1-0.3,0.1c-0.2-3.7-0.5-11.1-0.7-16.1c0-0.3,0-0.8,0-1.1
						c0.3-0.3,0.4-0.7,0.4-1.1c0.1-1-0.8-1.9-1.8-1.9c-5.2,0.4-10.3,0.2-15.2-0.7c-1-0.1-1.9,0.8-1.9,1.8c0,0.4,0.1,0.8,0.3,1.2
						c-0.1,2.6-0.2,8.4,0.5,13.9c0,0-9.4,1.2-12,6.3l-0.3,2.6c-0.3,0.6-0.8,1.8-0.2,2.3c2.3,2.4,4.8,3.6,7.4,4.2l0,0
						c0.1,0,0.1,0,0.2,0c0.3,0.1,0.8,0.2,1.1,0.2c0,0,0,0,0.1,0c0.4,0.1,0.8,0.1,1.2,0.1c0.1,0,0.2,0,0.3,0c0.3,0,0.7,0,1,0
						c0.1,0,0.1,0,0.2,0c0.4,0,0.8,0,1.1-0.1c0.1,0,0.2,0,0.3,0c0.3,0,0.7-0.1,0.9-0.1c0.1,0,0.1,0,0.2,0c0.3-0.1,0.7-0.1,1-0.2
						c0.1,0,0.2,0,0.3-0.1c0.3-0.1,0.6-0.1,0.8-0.2c0.1,0,0.1,0,0.2-0.1c0.3-0.1,0.6-0.2,0.9-0.3c0.1,0,0.1,0,0.2-0.1
						c0.3-0.1,0.5-0.2,0.8-0.3c0.1,0,0.1,0,0.2-0.1c0.3-0.1,0.5-0.2,0.8-0.3c0.1,0,0.1,0,0.2-0.1c0.2-0.1,0.4-0.2,0.6-0.3
						c0.1,0,0.1,0,0.2-0.1c0.2-0.1,0.4-0.2,0.6-0.3h0.1c0.2-0.1,0.3-0.2,0.4-0.2c0,0,0.1,0,0.1-0.1c0.2-0.1,0.3-0.1,0.3-0.2l0,0
						c0.1-0.1,0.2-0.1,0.2-0.1l0,0h0.1l0,0c0.3-0.7,0.6-1.2,0.9-1.4l3.5,0.3l0,0h0.1l0,0l0,0c0.1,0,0.2,0,0.2,0
						c1.8-0.2,4.5-2.1,4.5-2.1c0.3-0.7,0.3-1.5,0.4-2.3c0.1-0.8,0.1-1.6,0.1-2.3C94.9,315.5,94.9,315.2,94.9,315.1z"/>
				</g>
				<g id="GUI-astro-legs_12_">
					<path fill="#C9E5C8" d="M141.4,246c0,0,1.6-2.2-1.1-5.1c0,0-0.1,0-0.3,0.1c-0.6-8.2-1.4-15.7-2.1-22.4
						c-0.2-1.3-0.2-2.5-0.4-3.7c-3.6-17.7-2.3-33.2-3.3-37.1c0-0.2-0.2-0.5-0.2-0.5c-0.2-0.5-0.5-0.8-1-0.8
						c-2.2,2.3-8.4,6.5-25.9,6.5c-18.8,0-26-4.3-28-6.4c0,0.3-0.3,1.4-0.3,1.5c0,0-3.3,35.6-5,62.8c-2.6,2.8-1.2,5-1.2,5
						c-0.9,5.4-0.7,8-0.3,9.2l0,0v0.1c0,0.1,0,0.1,0.1,0.2c0,0.1,0,0.1,0.1,0.2c0,0.1,0,0.1,0.1,0.2c0,0,0,0.1,0.1,0.1
						c0,0.1,0.1,0.1,0.1,0.2v0.1c0,0,0,0.1,0.1,0.1l0,0l0,0l0,0l0,0l0,0c0.1,0,0.1,0.1,0.2,0.1c-0.4,12.2-0.4,23.4,0.6,31.4
						c0,0,0,0,0.1,0c0.7,2.3,6.4,3.7,13.2,3.3c7.2-0.4,12.5-2.4,12.5-4.9l0.3-1c0,0-2.2-32.8-0.3-38.1c0,0,3.2-0.4,0.2-4.3
						c0,0,3.4-0.3,0.3-4.3c0,0,3.8-3.5,2-10l0,0l0,0l0.3-3.2c0.3-3.6,1.3-9.4,3.4-13.2c0.1,0,0.1,0,0.2,0c1,0.3,2.1,0.3,3.1,0.2
						c0.7,3.8,1.3,8.7,2,13.3c0.3,2.4,0.7,3.9,0.9,3.8l0,0c-1.8,6.5,2,10,2,10c-3,4.1,0.3,4.3,0.3,4.3c-3,3.9,0.2,4.3,0.2,4.3
						c1.9,5.2-0.3,37.5-0.3,37.5l0,0c0,2.4,5.6,5.8,12.7,5.7c6.9-0.1,12.5-2.6,12.8-5l0,0c1.3-10.5,1.6-20.4,1.4-29.8l0,0l0,0l0,0
						l0,0l0,0c0,0,0,0,0.1-0.1l0,0c0,0,0.1-0.1,0.1-0.2l0,0c0-0.1,0.1-0.1,0.1-0.2v-0.1c0-0.1,0.1-0.1,0.1-0.2v-0.1v-0.1l0,0
						C141.8,254,142.2,251.4,141.4,246z"/>
				</g>
				<g id="GUI-astro-gloves_12_">
					<path fill="#C9E5C8" d="M188.4,185c0,0-2.5-6.9-5.6-10.9l0,0l-0.1-0.1c-0.8-1-1.6-1.8-2.3-2.3c0.2-0.3,0.2-0.7,0-1
						c-0.3-0.6-0.9-0.8-1.5-0.6l-10.8,5c-0.6,0.3-0.8,0.9-0.6,1.5c0.2,0.3,0.4,0.5,0.8,0.6c0,2.6,0.3,7.4,2.7,7.1c0,0-1.9,5.1,2.4,9
						c0,0,4.1,1.2,2.3-3.9c0,0-0.4-4.5,2.1-4.9c-0.4,6,1.4,7.7,2.3,8.1c0.8,1.7,1.8,1.9,1.8,1.9c0.1,0,0.1,0,0.2,0.1
						c0.8,1.3,1.7,1.6,1.7,1.6c0.5,0.3,0.9,0.1,1.2-0.4c0.3,0.6,0.5,1.1,0.9,1.3C185.8,197.1,191.1,197.6,188.4,185z"/>
					<path fill="#C9E5C8" d="M46.6,177.2l-10.8-5c-0.6-0.3-1.3,0-1.5,0.6c-0.2,0.3-0.2,0.8,0,1c-0.8,0.5-1.6,1.3-2.3,2.3l-0.1,0.1
						l0,0c-3.1,4.1-5.5,10.9-5.6,10.9c-2.8,12.5,2.6,12,2.6,12c0.4-0.2,0.7-0.6,0.9-1.3c0.3,0.4,0.7,0.6,1.2,0.4
						c0,0,0.9-0.2,1.7-1.6c0.1,0,0.1,0,0.2-0.1c0,0,1-0.3,1.8-1.9c0.8-0.4,2.6-2.1,2.3-8.1c2.6,0.4,2.1,4.9,2.1,4.9
						c-1.8,5.1,2.3,3.9,2.3,3.9c4.3-3.9,2.4-9,2.4-9c2.5,0.3,2.8-4.5,2.7-7.1c0.3-0.1,0.6-0.3,0.8-0.6
						C47.4,178.2,47.2,177.5,46.6,177.2z"/>
				</g>
				<g id="GUI-astro-body_12_">
					<path fill="#C9E5C8" d="M177.3,155.8c-7.4-17.9-23.6-45.2-39.2-57.5c-0.1-0.1-0.2-0.2-0.3-0.3c-6.2-6.4-11.1-6.9-11.1-6.9
						c-0.9-0.3-1.9-0.7-2.9-0.8c-0.6-1-1.4-1.9-2.5-2.7c-2.8-2.7-8.4-4.4-14.8-4.3c-6.4,0.1-12,1.9-14.7,4.7c-1.3,1-2.2,2.1-2.8,3.3
						c-0.3,0.1-0.6,0.3-0.9,0.3c-1.9,0.3-8.6,1.5-13.8,6.9c-0.3,0.3-1.7,1.3-1.7,1.4c-15.8,13.9-27.9,38.3-34.5,57.4
						c-3.3,2-3.3,4.2-1.8,6.2c-1.8,4,5.6,7.6,8.4,8.9c2.8,1.3,10.5,4.3,12.5,0.4c2.3-0.8,3.8-3.1,3.5-7.9c3.3-7.1,7.4-15.4,12-22.7
						c0.4,5.4,1.3,10.5,2.4,15.1c0.3,1.4,0.8,2.8,1.3,4c-0.1,0.2-2.2,2.8-1.5,5.6c0.2,0.9,0.7,1.9,1.7,2.8c0,0,0.3,0.1,0.8,0.3
						c-0.3,0.5-0.5,0.9-0.5,1.4c0.1,4.3,15.1,9.2,30.9,8.8c15.7-0.3,29.4-5.9,29.4-10.1c0-0.5-0.2-0.9-0.6-1.4
						c1.4-1.6,1.4-3.3,1.1-4.8v-0.1l0,0c-0.5-1.7-1.5-2.9-1.5-2.9c2.1-6.1,3.2-13.9,3.7-21.9c5.9,7.9,11.2,17.6,15.6,25.4
						c0.1,4.7,1.7,6.9,3.9,7.5c2.1,3.7,9.6,0.3,12.4-1c2.8-1.3,10-5.3,8-9.1C180.8,159.8,180.7,157.7,177.3,155.8z"/>
				</g>
				<g id="GUI-astro-head_12_">
					<path fill="#C9E5C8" d="M108.7,17.5c-15.5-0.5-28.5,11.6-29,27.1c-0.3,8.9,3.6,17.1,10,22.5c0.1,0.1,0.3,0.2,0.3,0.3l0,0
						c0.2,0.2,0.4,0.3,0.6,0.4c0.6,0.5,1.3,0.9,1.9,1.3c0,0.2,0,0.3,0.1,0.5l0,0l0,0c-0.1,0.3-0.1,0.6-0.1,0.9c0,0.3,0,0.5,0.1,0.7
						c0,0.1,0.1,0.3,0.1,0.3c0,0.2-0.1,0.3-0.1,0.4c0,0.3-0.1,0.5-0.1,0.7c0,4.3,6.6,7.8,14.7,7.8s14.7-3.5,14.7-7.8
						c0-0.3,0-0.5-0.1-0.7c0-0.2-0.1-0.3-0.1-0.4c0-0.1,0.1-0.3,0.1-0.3c0-0.3,0.1-0.4,0.1-0.7s0-0.5-0.1-0.8
						c0.6-0.3,1.2-0.7,1.7-1.1c0.2-0.2,0.4-0.3,0.6-0.4c0.2-0.1,0.3-0.3,0.4-0.3l0,0c6.6-4.9,11-12.7,11.3-21.6
						C136.3,31.1,124.1,18.1,108.7,17.5z M131.4,46.5C131,59.6,120,69.8,106.8,69.4S83.5,57.9,83.9,44.9s11.5-23.3,24.5-22.9
						C121.5,22.4,131.8,33.3,131.4,46.5z"/>
					<path opacity="0.8" fill="#C9E5C8" enable-background="new    " d="M131.7,46.5c-0.4,13.2-11.5,23.6-24.8,23.2
						c-13.2-0.4-23.6-11.5-23.2-24.8c0.4-13.2,11.5-23.6,24.8-23.2C121.7,22.1,132.1,33.2,131.7,46.5z"/>
				</g>
			</g>
		</g>
	</g>
	<g id="GUI-status-red">
		<image overflow="visible" width="194" height="340" xlink:href="4ADB9925.png"  transform="matrix(1 0 0 1 10.5 2)">
		</image>
		<g>
			<g>
				<g id="GUI-astro-backpack_10_">
					<g>
						<g>
							<path fill="#E1606C" d="M77.5,175.7l-0.7,5.9c-0.2,2.9-0.7,8.4-1.3,14.6l-1,11.1L60.7,207c-1.6,0-2.8-1.3-2.8-2.9l0.3-29.2
								c0.2-0.2,0.3-0.3,0.5-0.6c2-1,4.3-3.3,4.3-9c2.4-5.2,5.3-11.1,8.5-16.8c0.5,3.4,1.1,6.5,1.8,9.2c0.3,1.3,0.7,2.3,0.9,3.2
								c-0.8,1.3-1.8,3.7-1.3,6.4c0.3,1.3,0.9,2.5,1.9,3.5c0,0.3-0.1,0.4,0,0.7C74.6,173,75.6,174.4,77.5,175.7z"/>
						</g>
						<g>
							<path fill="#E1606C" d="M153.1,164.9c-2.8-5.2-7.2-12.9-11.9-20c-0.7,6.1-1.6,11.4-2.9,15.6c0.4,0.7,0.9,1.6,1.3,2.7
								c0,0.2,0,0.2,0.1,0.3c0.5,1.9,0.3,3.8-0.7,5.4c0.2,0.4,0.2,0.8,0.2,1.2c0,1.2-0.5,2.3-1.4,3.4c-0.8,0.8-1.2,1.2-2.6,1.9
								c0.6,0.6,1.1,3.2,1.3,4.7c0.3,1.8,0.4,4.3,0.6,8.2v0.3c0.2,4.9,0.3,11.8,1.3,19.3l12.7,0.1c1.6,0,2.9-1.3,2.9-2.8l0.3-35.2
								C153.4,168.4,153.1,166.8,153.1,164.9z"/>
						</g>
					</g>
					<g>
						<g>
							<path fill="#E1606C" d="M94.4,83.6c-1.7,0.8-3.1,1.7-4.2,2.7c-1.3,0.9-2.2,2-2.8,3.2c-1.8,0.3-6.3,1.2-10.6,4.1l-5,4.1
								c-0.3,0.2-1.1,1.1-1.1,1.1c-4.1,3.7-8.2,8.3-12.1,13.6l0.3-26.2c0-1.6,1.3-2.8,2.8-2.8h2.7l0.1-12l15,0.2l-0.1,12L94.4,83.6z
								"/>
						</g>
						<g>
							<path fill="#E1606C" d="M154.7,86.9l-0.3,25.5c-5.2-6.6-10.2-11.9-15-15.6c-0.1-0.1-0.2-0.2-0.3-0.3c-5.9-6-10.8-7.3-12-7.4
								c-0.8-0.3-1.5-0.5-2.3-0.7c-0.7-0.9-1.5-1.8-2.4-2.4c-0.9-0.8-2-1.6-3.3-2.3l13.9,0.2l0.1-12l15,0.2l-0.1,12h3.7
								c0.8,0,1.5,0.3,2,0.8C154.4,85.5,154.7,86.2,154.7,86.9z"/>
						</g>
					</g>
				</g>
				<g id="GUI-astro-boots_10_">
					<path fill="#E1606C" d="M148.6,320.1l-0.2-2.7c-2.6-5.3-12.3-6.6-12.3-6.6c0.8-5.9,0.8-12,0.7-14.5c0.5-0.3,0.8-0.9,0.8-1.6
						c0-1.1-0.9-2-2-2c-5.5,0.7-10.9,0.7-16.2,0c-1.1,0-2,0.9-2,2c0,0.7,0.3,1.3,0.9,1.7c0,1.4,0,3.3-0.1,5.2l0,0c0,0,0,0,0,0.1
						c-0.2,3.9-0.5,8.4-0.8,11.5c-0.1,0.6-0.2,1.1-0.3,1.6c-0.1-0.1-0.2-0.1-0.3-0.2c0,0-0.3,3.8,0.4,5.9c0,0,3.1,2.1,4.9,2.2l0,0
						l0,0h0.1l0,0l3.6-0.3c0.3,0.3,0.7,0.8,0.9,1.5c0,0,0,0,0.1,0l0,0c0.1,0,0.1,0.1,0.3,0.1l0,0c0.1,0.1,0.3,0.1,0.3,0.2
						c0,0,0.1,0,0.1,0.1c0.1,0.1,0.3,0.1,0.4,0.2h0.1c0.2,0.1,0.3,0.2,0.6,0.3c0.1,0,0.1,0.1,0.2,0.1c0.2,0.1,0.3,0.2,0.6,0.3
						c0.1,0,0.1,0,0.2,0.1c0.3,0.1,0.5,0.2,0.8,0.3c0.1,0,0.1,0.1,0.2,0.1c0.3,0.1,0.5,0.2,0.8,0.3c0.1,0,0.2,0.1,0.2,0.1
						c0.3,0.1,0.6,0.2,0.9,0.3c0.1,0,0.2,0,0.2,0.1c0.3,0.1,0.6,0.2,0.8,0.2c0.1,0,0.2,0,0.3,0.1c0.3,0.1,0.7,0.2,1.1,0.2
						c0.1,0,0.1,0,0.2,0c0.3,0.1,0.6,0.1,0.9,0.2c0.1,0,0.2,0,0.3,0c0.4,0,0.8,0.1,1.2,0.1c0.1,0,0.1,0,0.2,0c0.3,0,0.7,0,1,0
						c0.1,0,0.2,0,0.3,0c0.4,0,0.8,0,1.2-0.1h0.1c0.4-0.1,0.8-0.1,1.2-0.2c0.1,0,0.1,0,0.2,0l0,0c2.6-0.5,5.3-1.8,7.5-4.2
						C149.2,321.9,148.9,320.7,148.6,320.1z"/>
					<path fill="#E1606C" d="M94.9,315.1c0-0.4,0-0.6,0-0.6c-0.1,0-0.2,0.1-0.3,0.1c-0.2-3.7-0.5-11.1-0.7-16.1c0-0.3,0-0.8,0-1.1
						c0.3-0.3,0.4-0.7,0.4-1.1c0.1-1-0.8-1.9-1.8-1.9c-5.2,0.4-10.3,0.2-15.2-0.7c-1-0.1-1.9,0.8-1.9,1.8c0,0.4,0.1,0.8,0.3,1.2
						c-0.1,2.6-0.2,8.4,0.5,13.9c0,0-9.4,1.2-12,6.3l-0.3,2.6c-0.3,0.6-0.8,1.8-0.2,2.3c2.3,2.4,4.8,3.6,7.4,4.2l0,0
						c0.1,0,0.1,0,0.2,0c0.3,0.1,0.8,0.2,1.1,0.2c0,0,0,0,0.1,0c0.4,0.1,0.8,0.1,1.2,0.1c0.1,0,0.2,0,0.3,0c0.3,0,0.7,0,1,0
						c0.1,0,0.1,0,0.2,0c0.4,0,0.8,0,1.1-0.1c0.1,0,0.2,0,0.3,0c0.3,0,0.7-0.1,0.9-0.1c0.1,0,0.1,0,0.2,0c0.3-0.1,0.7-0.1,1-0.2
						c0.1,0,0.2,0,0.3-0.1c0.3-0.1,0.6-0.1,0.8-0.2c0.1,0,0.1,0,0.2-0.1c0.3-0.1,0.6-0.2,0.9-0.3c0.1,0,0.1,0,0.2-0.1
						c0.3-0.1,0.5-0.2,0.8-0.3c0.1,0,0.1,0,0.2-0.1c0.3-0.1,0.5-0.2,0.8-0.3c0.1,0,0.1,0,0.2-0.1c0.2-0.1,0.4-0.2,0.6-0.3
						c0.1,0,0.1,0,0.2-0.1c0.2-0.1,0.4-0.2,0.6-0.3h0.1c0.2-0.1,0.3-0.2,0.4-0.2c0,0,0.1,0,0.1-0.1c0.2-0.1,0.3-0.1,0.3-0.2l0,0
						c0.1-0.1,0.2-0.1,0.2-0.1l0,0h0.1l0,0c0.3-0.7,0.6-1.2,0.9-1.4l3.5,0.3l0,0h0.1l0,0l0,0c0.1,0,0.2,0,0.2,0
						c1.8-0.2,4.5-2.1,4.5-2.1c0.3-0.7,0.3-1.5,0.4-2.3c0.1-0.8,0.1-1.6,0.1-2.3C94.9,315.5,94.9,315.2,94.9,315.1z"/>
				</g>
				<g id="GUI-astro-legs_10_">
					<path fill="#E1606C" d="M141.4,246c0,0,1.6-2.2-1.1-5.1c0,0-0.1,0-0.3,0.1c-0.6-8.2-1.4-15.7-2.1-22.4
						c-0.2-1.3-0.2-2.5-0.4-3.7c-3.6-17.7-2.3-33.2-3.3-37.1c0-0.2-0.2-0.5-0.2-0.5c-0.2-0.5-0.5-0.8-1-0.8
						c-2.2,2.3-8.4,6.5-25.9,6.5c-18.8,0-26-4.3-28-6.4c0,0.3-0.3,1.4-0.3,1.5c0,0-3.3,35.6-5,62.8c-2.6,2.8-1.2,5-1.2,5
						c-0.9,5.4-0.7,8-0.3,9.2l0,0v0.1c0,0.1,0,0.1,0.1,0.2c0,0.1,0,0.1,0.1,0.2c0,0.1,0,0.1,0.1,0.2c0,0,0,0.1,0.1,0.1
						c0,0.1,0.1,0.1,0.1,0.2v0.1c0,0,0,0.1,0.1,0.1l0,0l0,0l0,0l0,0l0,0c0.1,0,0.1,0.1,0.2,0.1c-0.4,12.2-0.4,23.4,0.6,31.4
						c0,0,0,0,0.1,0c0.7,2.3,6.4,3.7,13.2,3.3c7.2-0.4,12.5-2.4,12.5-4.9l0.3-1c0,0-2.2-32.8-0.3-38.1c0,0,3.2-0.4,0.2-4.3
						c0,0,3.4-0.3,0.3-4.3c0,0,3.8-3.5,2-10l0,0l0,0l0.3-3.2c0.3-3.6,1.3-9.4,3.4-13.2c0.1,0,0.1,0,0.2,0c1,0.3,2.1,0.3,3.1,0.2
						c0.7,3.8,1.3,8.7,2,13.3c0.3,2.4,0.7,3.9,0.9,3.8l0,0c-1.8,6.5,2,10,2,10c-3,4.1,0.3,4.3,0.3,4.3c-3,3.9,0.2,4.3,0.2,4.3
						c1.9,5.2-0.3,37.5-0.3,37.5l0,0c0,2.4,5.6,5.8,12.7,5.7c6.9-0.1,12.5-2.6,12.8-5l0,0c1.3-10.5,1.6-20.4,1.4-29.8l0,0l0,0l0,0
						l0,0l0,0c0,0,0,0,0.1-0.1l0,0c0,0,0.1-0.1,0.1-0.2l0,0c0-0.1,0.1-0.1,0.1-0.2v-0.1c0-0.1,0.1-0.1,0.1-0.2v-0.1v-0.1l0,0
						C141.8,254,142.2,251.4,141.4,246z"/>
				</g>
				<g id="GUI-astro-gloves_10_">
					<path fill="#E1606C" d="M188.4,185c0,0-2.5-6.9-5.6-10.9l0,0l-0.1-0.1c-0.8-1-1.6-1.8-2.3-2.3c0.2-0.3,0.2-0.7,0-1
						c-0.3-0.6-0.9-0.8-1.5-0.6l-10.8,5c-0.6,0.3-0.8,0.9-0.6,1.5c0.2,0.3,0.4,0.5,0.8,0.6c0,2.6,0.3,7.4,2.7,7.1c0,0-1.9,5.1,2.4,9
						c0,0,4.1,1.2,2.3-3.9c0,0-0.4-4.5,2.1-4.9c-0.4,6,1.4,7.7,2.3,8.1c0.8,1.7,1.8,1.9,1.8,1.9c0.1,0,0.1,0,0.2,0.1
						c0.8,1.3,1.7,1.6,1.7,1.6c0.5,0.3,0.9,0.1,1.2-0.4c0.3,0.6,0.5,1.1,0.9,1.3C185.8,197.1,191.1,197.6,188.4,185z"/>
					<path fill="#E1606C" d="M46.6,177.2l-10.8-5c-0.6-0.3-1.3,0-1.5,0.6c-0.2,0.3-0.2,0.8,0,1c-0.8,0.5-1.6,1.3-2.3,2.3l-0.1,0.1
						l0,0c-3.1,4.1-5.5,10.9-5.6,10.9c-2.8,12.5,2.6,12,2.6,12c0.4-0.2,0.7-0.6,0.9-1.3c0.3,0.4,0.7,0.6,1.2,0.4
						c0,0,0.9-0.2,1.7-1.6c0.1,0,0.1,0,0.2-0.1c0,0,1-0.3,1.8-1.9c0.8-0.4,2.6-2.1,2.3-8.1c2.6,0.4,2.1,4.9,2.1,4.9
						c-1.8,5.1,2.3,3.9,2.3,3.9c4.3-3.9,2.4-9,2.4-9c2.5,0.3,2.8-4.5,2.7-7.1c0.3-0.1,0.6-0.3,0.8-0.6
						C47.4,178.2,47.2,177.5,46.6,177.2z"/>
				</g>
				<g id="GUI-astro-body_10_">
					<path fill="#E1606C" d="M177.3,155.8c-7.4-17.9-23.6-45.2-39.2-57.5c-0.1-0.1-0.2-0.2-0.3-0.3c-6.2-6.4-11.1-6.9-11.1-6.9
						c-0.9-0.3-1.9-0.7-2.9-0.8c-0.6-1-1.4-1.9-2.5-2.7c-2.8-2.7-8.4-4.4-14.8-4.3c-6.4,0.1-12,1.9-14.7,4.7c-1.3,1-2.2,2.1-2.8,3.3
						c-0.3,0.1-0.6,0.3-0.9,0.3c-1.9,0.3-8.6,1.5-13.8,6.9c-0.3,0.3-1.7,1.3-1.7,1.4c-15.8,13.9-27.9,38.3-34.5,57.4
						c-3.3,2-3.3,4.2-1.8,6.2c-1.8,4,5.6,7.6,8.4,8.9c2.8,1.3,10.5,4.3,12.5,0.4c2.3-0.8,3.8-3.1,3.5-7.9c3.3-7.1,7.4-15.4,12-22.7
						c0.4,5.4,1.3,10.5,2.4,15.1c0.3,1.4,0.8,2.8,1.3,4c-0.1,0.2-2.2,2.8-1.5,5.6c0.2,0.9,0.7,1.9,1.7,2.8c0,0,0.3,0.1,0.8,0.3
						c-0.3,0.5-0.5,0.9-0.5,1.4c0.1,4.3,15.1,9.2,30.9,8.8c15.7-0.3,29.4-5.9,29.4-10.1c0-0.5-0.2-0.9-0.6-1.4
						c1.4-1.6,1.4-3.3,1.1-4.8v-0.1l0,0c-0.5-1.7-1.5-2.9-1.5-2.9c2.1-6.1,3.2-13.9,3.7-21.9c5.9,7.9,11.2,17.6,15.6,25.4
						c0.1,4.7,1.7,6.9,3.9,7.5c2.1,3.7,9.6,0.3,12.4-1c2.8-1.3,10-5.3,8-9.1C180.8,159.8,180.7,157.7,177.3,155.8z"/>
				</g>
				<g id="GUI-astro-head_10_">
					<path fill="#E1606C" d="M108.7,17.5c-15.5-0.5-28.5,11.6-29,27.1c-0.3,8.9,3.6,17.1,10,22.5c0.1,0.1,0.3,0.2,0.3,0.3l0,0
						c0.2,0.2,0.4,0.3,0.6,0.4c0.6,0.5,1.3,0.9,1.9,1.3c0,0.2,0,0.3,0.1,0.5l0,0l0,0c-0.1,0.3-0.1,0.6-0.1,0.9c0,0.3,0,0.5,0.1,0.7
						c0,0.1,0.1,0.3,0.1,0.3c0,0.2-0.1,0.3-0.1,0.4c0,0.3-0.1,0.5-0.1,0.7c0,4.3,6.6,7.8,14.7,7.8s14.7-3.5,14.7-7.8
						c0-0.3,0-0.5-0.1-0.7c0-0.2-0.1-0.3-0.1-0.4c0-0.1,0.1-0.3,0.1-0.3c0-0.3,0.1-0.4,0.1-0.7s0-0.5-0.1-0.8
						c0.6-0.3,1.2-0.7,1.7-1.1c0.2-0.2,0.4-0.3,0.6-0.4c0.2-0.1,0.3-0.3,0.4-0.3l0,0c6.6-4.9,11-12.7,11.3-21.6
						C136.3,31.1,124.1,18.1,108.7,17.5z M131.4,46.5C131,59.6,120,69.8,106.8,69.4S83.5,57.9,83.9,44.9s11.5-23.3,24.5-22.9
						C121.5,22.4,131.8,33.3,131.4,46.5z"/>
					<path opacity="0.8" fill="#E1606C" enable-background="new    " d="M131.7,46.5c-0.4,13.2-11.5,23.6-24.8,23.2
						c-13.2-0.4-23.6-11.5-23.2-24.8c0.4-13.2,11.5-23.6,24.8-23.2C121.7,22.1,132.1,33.2,131.7,46.5z"/>
				</g>
			</g>
		</g>
	</g>
</g>
</svg>
